M48
; DRILL file {KiCad 9.0.7} date 2026-03-03T17:08:03+0100
; FORMAT={-:-/ absolute / metric / decimal}
; #@! TF.CreationDate,2026-03-03T17:08:03+01:00
; #@! TF.GenerationSoftware,Kicad,Pcbnew,9.0.7
; #@! TF.FileFunction,Plated,1,2,PTH
FMAT,2
METRIC
; #@! TA.AperFunction,Plated,PTH,ViaDrill
T1C0.300
; #@! TA.AperFunction,Plated,PTH,ComponentDrill
T2C0.800
; #@! TA.AperFunction,Plated,PTH,ComponentDrill
T3C1.000
; #@! TA.AperFunction,Plated,PTH,ComponentDrill
T4C1.200
; #@! TA.AperFunction,Plated,PTH,ComponentDrill
T5C4.300
%
G90
G05
T1
X73.75Y-94.5
X76.5Y-107.5
X77.75Y-115.75
X110.75Y-114.0
X116.5Y-114.0
X119.75Y-112.25
X126.0Y-125.0
X129.75Y-134.75
X130.75Y-123.25
X132.75Y-129.75
X141.0Y-125.25
X146.5Y-126.75
X146.5Y-130.5
X155.25Y-125.75
X159.0Y-121.5
X173.25Y-129.5
X175.25Y-119.0
X181.0Y-118.0
X192.5Y-103.75
T2
X127.5Y-127.25
X129.5Y-127.25
X131.5Y-127.25
X133.5Y-127.25
X135.5Y-127.25
X168.75Y-119.0
X168.75Y-121.0
X168.75Y-123.0
X168.75Y-125.0
X168.75Y-127.0
T3
X108.5Y-109.65
X110.5Y-109.65
X112.5Y-109.65
X114.5Y-109.65
X116.5Y-109.65
X118.5Y-109.65
X120.5Y-109.65
X122.5Y-109.65
T4
X167.75Y-105.0
X167.75Y-110.0
X180.25Y-105.0
X180.25Y-110.0
X183.75Y-89.0
X183.75Y-94.0
X183.75Y-121.0
X183.75Y-126.0
X196.25Y-89.0
X196.25Y-94.0
X196.25Y-121.0
X196.25Y-126.0
X199.75Y-105.0
X199.75Y-110.0
X212.25Y-105.0
X212.25Y-110.0
T5
X75.0Y-79.5
X75.0Y-135.5
X221.0Y-79.5
X221.0Y-135.5
T3
X76.95Y-88.7G85X76.95Y-90.3
G05
X76.95Y-97.2G85X76.95Y-98.8
G05
M30
