%TF.GenerationSoftware,KiCad,Pcbnew,9.0.7*%
%TF.CreationDate,2026-02-22T13:23:50+01:00*%
%TF.ProjectId,Front_Panel,46726f6e-745f-4506-916e-656c2e6b6963,1.2*%
%TF.SameCoordinates,Original*%
%TF.FileFunction,Soldermask,Top*%
%TF.FilePolarity,Negative*%
%FSLAX46Y46*%
G04 Gerber Fmt 4.6, Leading zero omitted, Abs format (unit mm)*
G04 Created by KiCad (PCBNEW 9.0.7) date 2026-02-22 13:23:50*
%MOMM*%
%LPD*%
G01*
G04 APERTURE LIST*
G04 Aperture macros list*
%AMRoundRect*
0 Rectangle with rounded corners*
0 $1 Rounding radius*
0 $2 $3 $4 $5 $6 $7 $8 $9 X,Y pos of 4 corners*
0 Add a 4 corners polygon primitive as box body*
4,1,4,$2,$3,$4,$5,$6,$7,$8,$9,$2,$3,0*
0 Add four circle primitives for the rounded corners*
1,1,$1+$1,$2,$3*
1,1,$1+$1,$4,$5*
1,1,$1+$1,$6,$7*
1,1,$1+$1,$8,$9*
0 Add four rect primitives between the rounded corners*
20,1,$1+$1,$2,$3,$4,$5,0*
20,1,$1+$1,$4,$5,$6,$7,0*
20,1,$1+$1,$6,$7,$8,$9,0*
20,1,$1+$1,$8,$9,$2,$3,0*%
G04 Aperture macros list end*
%ADD10RoundRect,0.298780X-0.313720X-0.501220X0.313720X-0.501220X0.313720X0.501220X-0.313720X0.501220X0*%
%ADD11RoundRect,0.298780X0.501220X-0.313720X0.501220X0.313720X-0.501220X0.313720X-0.501220X-0.313720X0*%
%ADD12RoundRect,0.300000X0.525000X-0.300000X0.525000X0.300000X-0.525000X0.300000X-0.525000X-0.300000X0*%
%ADD13RoundRect,0.200000X-0.925000X-0.200000X0.925000X-0.200000X0.925000X0.200000X-0.925000X0.200000X0*%
%ADD14O,3.200000X2.700000*%
%ADD15C,4.900000*%
%ADD16C,7.700000*%
%ADD17RoundRect,0.100000X0.675000X0.675000X-0.675000X0.675000X-0.675000X-0.675000X0.675000X-0.675000X0*%
%ADD18C,1.550000*%
%ADD19C,3.200000*%
%ADD20RoundRect,0.300000X0.300000X0.525000X-0.300000X0.525000X-0.300000X-0.525000X0.300000X-0.525000X0*%
%ADD21RoundRect,0.200000X0.637500X0.200000X-0.637500X0.200000X-0.637500X-0.200000X0.637500X-0.200000X0*%
%ADD22RoundRect,0.300000X-0.300000X-0.525000X0.300000X-0.525000X0.300000X0.525000X-0.300000X0.525000X0*%
%ADD23RoundRect,0.298780X-0.501220X0.313720X-0.501220X-0.313720X0.501220X-0.313720X0.501220X0.313720X0*%
%ADD24RoundRect,0.300000X-0.525000X0.300000X-0.525000X-0.300000X0.525000X-0.300000X0.525000X0.300000X0*%
%ADD25C,2.700000*%
%ADD26RoundRect,0.100000X-0.800000X-0.800000X0.800000X-0.800000X0.800000X0.800000X-0.800000X0.800000X0*%
%ADD27C,1.800000*%
%ADD28O,2.000000X3.600000*%
%ADD29RoundRect,0.100000X-0.675000X0.675000X-0.675000X-0.675000X0.675000X-0.675000X0.675000X0.675000X0*%
G04 APERTURE END LIST*
D10*
%TO.C,R2*%
X78837500Y-119250000D03*
X80662500Y-119250000D03*
%TD*%
D11*
%TO.C,R3*%
X201750000Y-97662500D03*
X201750000Y-95837500D03*
%TD*%
D12*
%TO.C,C5*%
X160500000Y-123400000D03*
X160500000Y-121500000D03*
%TD*%
D13*
%TO.C,U2*%
X148600000Y-123420000D03*
X148600000Y-124690000D03*
X148600000Y-125960000D03*
X148600000Y-127230000D03*
X148600000Y-128500000D03*
X148600000Y-129770000D03*
X148600000Y-131040000D03*
X148600000Y-132310000D03*
X148600000Y-133580000D03*
X157900000Y-133580000D03*
X157900000Y-132310000D03*
X157900000Y-131040000D03*
X157900000Y-129770000D03*
X157900000Y-128500000D03*
X157900000Y-127230000D03*
X157900000Y-125960000D03*
X157900000Y-124690000D03*
X157900000Y-123420000D03*
%TD*%
D14*
%TO.C,SW1*%
X183750000Y-89000000D03*
X196250000Y-89000000D03*
X183750000Y-94000000D03*
X196250000Y-94000000D03*
%TD*%
D15*
%TO.C,H2*%
X75000000Y-135500000D03*
D16*
X75000000Y-135500000D03*
%TD*%
D17*
%TO.C,J2*%
X168750000Y-127000000D03*
D18*
X168750000Y-125000000D03*
X168750000Y-123000000D03*
X168750000Y-121000000D03*
X168750000Y-119000000D03*
%TD*%
D10*
%TO.C,R4*%
X200087500Y-117500000D03*
X201912500Y-117500000D03*
%TD*%
%TO.C,R1*%
X73087500Y-107500000D03*
X74912500Y-107500000D03*
%TD*%
D14*
%TO.C,SW3*%
X183750000Y-121000000D03*
X196250000Y-121000000D03*
X183750000Y-126000000D03*
X196250000Y-126000000D03*
%TD*%
D19*
%TO.C,TP1*%
X116250000Y-127000000D03*
%TD*%
D20*
%TO.C,C3*%
X110400000Y-112000000D03*
X108500000Y-112000000D03*
%TD*%
D10*
%TO.C,R5*%
X178087500Y-123750000D03*
X179912500Y-123750000D03*
%TD*%
D21*
%TO.C,Q1*%
X75937500Y-117700000D03*
X75937500Y-115800000D03*
X74062500Y-116750000D03*
%TD*%
D22*
%TO.C,C1*%
X114600000Y-112500000D03*
X116500000Y-112500000D03*
%TD*%
D14*
%TO.C,SW4*%
X167750000Y-105000000D03*
X180250000Y-105000000D03*
X167750000Y-110000000D03*
X180250000Y-110000000D03*
%TD*%
D12*
%TO.C,C2*%
X73750000Y-98000000D03*
X73750000Y-96100000D03*
%TD*%
D23*
%TO.C,R6*%
X173250000Y-116087500D03*
X173250000Y-117912500D03*
%TD*%
D24*
%TO.C,C7*%
X179250000Y-116050000D03*
X179250000Y-117950000D03*
%TD*%
D15*
%TO.C,H1*%
X75000000Y-79500000D03*
D16*
X75000000Y-79500000D03*
%TD*%
D25*
%TO.C,U1*%
X83000000Y-80450000D03*
X83000000Y-113550000D03*
X148000000Y-80450000D03*
X148000000Y-113550000D03*
D26*
X122500000Y-109650000D03*
D27*
X120500000Y-109650000D03*
X118500000Y-109650000D03*
X116500000Y-109650000D03*
X114500000Y-109650000D03*
X112500000Y-109650000D03*
X110500000Y-109650000D03*
X108500000Y-109650000D03*
D28*
X76950000Y-98000000D03*
X76950000Y-89500000D03*
%TD*%
D15*
%TO.C,H3*%
X221000000Y-79500000D03*
D16*
X221000000Y-79500000D03*
%TD*%
D12*
%TO.C,C6*%
X194250000Y-103700000D03*
X194250000Y-101800000D03*
%TD*%
D15*
%TO.C,H4*%
X221000000Y-135500000D03*
D16*
X221000000Y-135500000D03*
%TD*%
D14*
%TO.C,SW2*%
X199750000Y-105000000D03*
X212250000Y-105000000D03*
X199750000Y-110000000D03*
X212250000Y-110000000D03*
%TD*%
D24*
%TO.C,C4*%
X112500000Y-112050000D03*
X112500000Y-113950000D03*
%TD*%
D19*
%TO.C,TP2*%
X109250000Y-127000000D03*
%TD*%
D29*
%TO.C,J1*%
X127500000Y-127250000D03*
D18*
X129500000Y-127250000D03*
X131500000Y-127250000D03*
X133500000Y-127250000D03*
X135500000Y-127250000D03*
%TD*%
M02*
