%TF.GenerationSoftware,KiCad,Pcbnew,9.0.7*%
%TF.CreationDate,2026-02-22T13:23:50+01:00*%
%TF.ProjectId,Front_Panel,46726f6e-745f-4506-916e-656c2e6b6963,1.2*%
%TF.SameCoordinates,Original*%
%TF.FileFunction,Copper,L1,Top*%
%TF.FilePolarity,Positive*%
%FSLAX46Y46*%
G04 Gerber Fmt 4.6, Leading zero omitted, Abs format (unit mm)*
G04 Created by KiCad (PCBNEW 9.0.7) date 2026-02-22 13:23:50*
%MOMM*%
%LPD*%
G01*
G04 APERTURE LIST*
G04 Aperture macros list*
%AMRoundRect*
0 Rectangle with rounded corners*
0 $1 Rounding radius*
0 $2 $3 $4 $5 $6 $7 $8 $9 X,Y pos of 4 corners*
0 Add a 4 corners polygon primitive as box body*
4,1,4,$2,$3,$4,$5,$6,$7,$8,$9,$2,$3,0*
0 Add four circle primitives for the rounded corners*
1,1,$1+$1,$2,$3*
1,1,$1+$1,$4,$5*
1,1,$1+$1,$6,$7*
1,1,$1+$1,$8,$9*
0 Add four rect primitives between the rounded corners*
20,1,$1+$1,$2,$3,$4,$5,0*
20,1,$1+$1,$4,$5,$6,$7,0*
20,1,$1+$1,$6,$7,$8,$9,0*
20,1,$1+$1,$8,$9,$2,$3,0*%
G04 Aperture macros list end*
%TA.AperFunction,SMDPad,CuDef*%
%ADD10RoundRect,0.250000X-0.262500X-0.450000X0.262500X-0.450000X0.262500X0.450000X-0.262500X0.450000X0*%
%TD*%
%TA.AperFunction,SMDPad,CuDef*%
%ADD11RoundRect,0.250000X0.450000X-0.262500X0.450000X0.262500X-0.450000X0.262500X-0.450000X-0.262500X0*%
%TD*%
%TA.AperFunction,SMDPad,CuDef*%
%ADD12RoundRect,0.250000X0.475000X-0.250000X0.475000X0.250000X-0.475000X0.250000X-0.475000X-0.250000X0*%
%TD*%
%TA.AperFunction,SMDPad,CuDef*%
%ADD13RoundRect,0.150000X-0.875000X-0.150000X0.875000X-0.150000X0.875000X0.150000X-0.875000X0.150000X0*%
%TD*%
%TA.AperFunction,ComponentPad*%
%ADD14O,3.000000X2.500000*%
%TD*%
%TA.AperFunction,ComponentPad*%
%ADD15C,4.700000*%
%TD*%
%TA.AperFunction,ConnectorPad*%
%ADD16C,7.500000*%
%TD*%
%TA.AperFunction,ComponentPad*%
%ADD17R,1.350000X1.350000*%
%TD*%
%TA.AperFunction,ComponentPad*%
%ADD18C,1.350000*%
%TD*%
%TA.AperFunction,SMDPad,CuDef*%
%ADD19C,3.000000*%
%TD*%
%TA.AperFunction,SMDPad,CuDef*%
%ADD20RoundRect,0.250000X0.250000X0.475000X-0.250000X0.475000X-0.250000X-0.475000X0.250000X-0.475000X0*%
%TD*%
%TA.AperFunction,SMDPad,CuDef*%
%ADD21RoundRect,0.150000X0.587500X0.150000X-0.587500X0.150000X-0.587500X-0.150000X0.587500X-0.150000X0*%
%TD*%
%TA.AperFunction,SMDPad,CuDef*%
%ADD22RoundRect,0.250000X-0.250000X-0.475000X0.250000X-0.475000X0.250000X0.475000X-0.250000X0.475000X0*%
%TD*%
%TA.AperFunction,SMDPad,CuDef*%
%ADD23RoundRect,0.250000X-0.450000X0.262500X-0.450000X-0.262500X0.450000X-0.262500X0.450000X0.262500X0*%
%TD*%
%TA.AperFunction,SMDPad,CuDef*%
%ADD24RoundRect,0.250000X-0.475000X0.250000X-0.475000X-0.250000X0.475000X-0.250000X0.475000X0.250000X0*%
%TD*%
%TA.AperFunction,ComponentPad*%
%ADD25R,1.600000X1.600000*%
%TD*%
%TA.AperFunction,ComponentPad*%
%ADD26C,1.600000*%
%TD*%
%TA.AperFunction,ComponentPad*%
%ADD27O,1.800000X3.400000*%
%TD*%
%TA.AperFunction,ViaPad*%
%ADD28C,0.700000*%
%TD*%
%TA.AperFunction,Conductor*%
%ADD29C,0.750000*%
%TD*%
%TA.AperFunction,Conductor*%
%ADD30C,0.500000*%
%TD*%
%TA.AperFunction,Conductor*%
%ADD31C,0.300000*%
%TD*%
G04 APERTURE END LIST*
D10*
%TO.P,R2,1*%
%TO.N,Net-(Q1-B)*%
X78837500Y-119250000D03*
%TO.P,R2,2*%
%TO.N,/GP4*%
X80662500Y-119250000D03*
%TD*%
D11*
%TO.P,R3,1*%
%TO.N,+3.3V*%
X201750000Y-97662500D03*
%TO.P,R3,2*%
%TO.N,/GP0*%
X201750000Y-95837500D03*
%TD*%
D12*
%TO.P,C5,1*%
%TO.N,+3.3V*%
X160500000Y-123400000D03*
%TO.P,C5,2*%
%TO.N,GND*%
X160500000Y-121500000D03*
%TD*%
D13*
%TO.P,U2,1,SCL*%
%TO.N,/I2C_IO.SCL*%
X148600000Y-123420000D03*
%TO.P,U2,2,SDA*%
%TO.N,/I2C_IO.SDA*%
X148600000Y-124690000D03*
%TO.P,U2,3,A2*%
%TO.N,+3.3V*%
X148600000Y-125960000D03*
%TO.P,U2,4,A1*%
X148600000Y-127230000D03*
%TO.P,U2,5,A0*%
%TO.N,GND*%
X148600000Y-128500000D03*
%TO.P,U2,6,~{RESET}*%
%TO.N,unconnected-(U2-~{RESET}-Pad6)*%
X148600000Y-129770000D03*
%TO.P,U2,7,NC*%
%TO.N,unconnected-(U2-NC-Pad7)*%
X148600000Y-131040000D03*
%TO.P,U2,8,INT*%
%TO.N,/I2C_IO.INT*%
X148600000Y-132310000D03*
%TO.P,U2,9,VSS*%
%TO.N,GND*%
X148600000Y-133580000D03*
%TO.P,U2,10,GP0*%
%TO.N,/GP0*%
X157900000Y-133580000D03*
%TO.P,U2,11,GP1*%
%TO.N,/GP1*%
X157900000Y-132310000D03*
%TO.P,U2,12,GP2*%
%TO.N,/GP2*%
X157900000Y-131040000D03*
%TO.P,U2,13,GP3*%
%TO.N,/GP3*%
X157900000Y-129770000D03*
%TO.P,U2,14,GP4*%
%TO.N,/GP4*%
X157900000Y-128500000D03*
%TO.P,U2,15,GP5*%
%TO.N,Net-(J2-Pin_1)*%
X157900000Y-127230000D03*
%TO.P,U2,16,GP6*%
%TO.N,Net-(J2-Pin_2)*%
X157900000Y-125960000D03*
%TO.P,U2,17,GP7*%
%TO.N,Net-(J2-Pin_3)*%
X157900000Y-124690000D03*
%TO.P,U2,18,VDD*%
%TO.N,+3.3V*%
X157900000Y-123420000D03*
%TD*%
D14*
%TO.P,SW1,1,1*%
%TO.N,GND*%
X183750000Y-89000000D03*
X196250000Y-89000000D03*
%TO.P,SW1,2,2*%
%TO.N,/GP0*%
X183750000Y-94000000D03*
X196250000Y-94000000D03*
%TD*%
D15*
%TO.P,H2,1,1*%
%TO.N,GND*%
X75000000Y-135500000D03*
D16*
X75000000Y-135500000D03*
%TD*%
D17*
%TO.P,J2,1,Pin_1*%
%TO.N,Net-(J2-Pin_1)*%
X168750000Y-127000000D03*
D18*
%TO.P,J2,2,Pin_2*%
%TO.N,Net-(J2-Pin_2)*%
X168750000Y-125000000D03*
%TO.P,J2,3,Pin_3*%
%TO.N,Net-(J2-Pin_3)*%
X168750000Y-123000000D03*
%TO.P,J2,4,Pin_4*%
%TO.N,+3.3V*%
X168750000Y-121000000D03*
%TO.P,J2,5,Pin_5*%
%TO.N,GND*%
X168750000Y-119000000D03*
%TD*%
D10*
%TO.P,R4,1*%
%TO.N,+3.3V*%
X200087500Y-117500000D03*
%TO.P,R4,2*%
%TO.N,/GP1*%
X201912500Y-117500000D03*
%TD*%
%TO.P,R1,1*%
%TO.N,Net-(Q1-C)*%
X73087500Y-107500000D03*
%TO.P,R1,2*%
%TO.N,GND*%
X74912500Y-107500000D03*
%TD*%
D14*
%TO.P,SW3,1,1*%
%TO.N,GND*%
X183750000Y-121000000D03*
X196250000Y-121000000D03*
%TO.P,SW3,2,2*%
%TO.N,/GP2*%
X183750000Y-126000000D03*
X196250000Y-126000000D03*
%TD*%
D19*
%TO.P,TP1,1,1*%
%TO.N,+3.3V*%
X116250000Y-127000000D03*
%TD*%
D20*
%TO.P,C3,1*%
%TO.N,Net-(U1-C1+)*%
X110400000Y-112000000D03*
%TO.P,C3,2*%
%TO.N,Net-(U1-C1-)*%
X108500000Y-112000000D03*
%TD*%
D10*
%TO.P,R5,1*%
%TO.N,+3.3V*%
X178087500Y-123750000D03*
%TO.P,R5,2*%
%TO.N,/GP2*%
X179912500Y-123750000D03*
%TD*%
D21*
%TO.P,Q1,1,B*%
%TO.N,Net-(Q1-B)*%
X75937500Y-117700000D03*
%TO.P,Q1,2,E*%
%TO.N,GND*%
X75937500Y-115800000D03*
%TO.P,Q1,3,C*%
%TO.N,Net-(Q1-C)*%
X74062500Y-116750000D03*
%TD*%
D22*
%TO.P,C1,1*%
%TO.N,+3.3V*%
X114600000Y-112500000D03*
%TO.P,C1,2*%
%TO.N,GND*%
X116500000Y-112500000D03*
%TD*%
D14*
%TO.P,SW4,1,1*%
%TO.N,GND*%
X167750000Y-105000000D03*
X180250000Y-105000000D03*
%TO.P,SW4,2,2*%
%TO.N,/GP3*%
X167750000Y-110000000D03*
X180250000Y-110000000D03*
%TD*%
D12*
%TO.P,C2,1*%
%TO.N,+3.3V*%
X73750000Y-98000000D03*
%TO.P,C2,2*%
%TO.N,GND*%
X73750000Y-96100000D03*
%TD*%
D23*
%TO.P,R6,1*%
%TO.N,+3.3V*%
X173250000Y-116087500D03*
%TO.P,R6,2*%
%TO.N,/GP3*%
X173250000Y-117912500D03*
%TD*%
D24*
%TO.P,C7,1*%
%TO.N,+3.3V*%
X179250000Y-116050000D03*
%TO.P,C7,2*%
%TO.N,GND*%
X179250000Y-117950000D03*
%TD*%
D15*
%TO.P,H1,1,1*%
%TO.N,GND*%
X75000000Y-79500000D03*
D16*
X75000000Y-79500000D03*
%TD*%
D25*
%TO.P,U1,1,~{RST}*%
%TO.N,unconnected-(U1-~{RST}-Pad1)*%
X122500000Y-109650000D03*
D26*
%TO.P,U1,2,SCL*%
%TO.N,/I2C_IO.SCL*%
X120500000Y-109650000D03*
%TO.P,U1,3,SDA*%
%TO.N,/I2C_IO.SDA*%
X118500000Y-109650000D03*
%TO.P,U1,4,VSS*%
%TO.N,GND*%
X116500000Y-109650000D03*
%TO.P,U1,5,VDD*%
%TO.N,+3.3V*%
X114500000Y-109650000D03*
%TO.P,U1,6,VOUT*%
%TO.N,Net-(U1-VOUT)*%
X112500000Y-109650000D03*
%TO.P,U1,7,C1+*%
%TO.N,Net-(U1-C1+)*%
X110500000Y-109650000D03*
%TO.P,U1,8,C1-*%
%TO.N,Net-(U1-C1-)*%
X108500000Y-109650000D03*
D27*
%TO.P,U1,9,A*%
%TO.N,+3.3V*%
X76950000Y-98000000D03*
%TO.P,U1,10,K*%
%TO.N,Net-(Q1-C)*%
X76950000Y-89500000D03*
%TD*%
D15*
%TO.P,H3,1,1*%
%TO.N,GND*%
X221000000Y-79500000D03*
D16*
X221000000Y-79500000D03*
%TD*%
D12*
%TO.P,C6,1*%
%TO.N,GND*%
X194250000Y-103700000D03*
%TO.P,C6,2*%
%TO.N,+3.3V*%
X194250000Y-101800000D03*
%TD*%
D15*
%TO.P,H4,1,1*%
%TO.N,GND*%
X221000000Y-135500000D03*
D16*
X221000000Y-135500000D03*
%TD*%
D14*
%TO.P,SW2,1,1*%
%TO.N,GND*%
X199750000Y-105000000D03*
X212250000Y-105000000D03*
%TO.P,SW2,2,2*%
%TO.N,/GP1*%
X199750000Y-110000000D03*
X212250000Y-110000000D03*
%TD*%
D24*
%TO.P,C4,1*%
%TO.N,Net-(U1-VOUT)*%
X112500000Y-112050000D03*
%TO.P,C4,2*%
%TO.N,GND*%
X112500000Y-113950000D03*
%TD*%
D19*
%TO.P,TP2,1,1*%
%TO.N,GND*%
X109250000Y-127000000D03*
%TD*%
D17*
%TO.P,J1,1,Pin_1*%
%TO.N,+3.3V*%
X127500000Y-127250000D03*
D18*
%TO.P,J1,2,Pin_2*%
%TO.N,/I2C_IO.INT*%
X129500000Y-127250000D03*
%TO.P,J1,3,Pin_3*%
%TO.N,/I2C_IO.SDA*%
X131500000Y-127250000D03*
%TO.P,J1,4,Pin_4*%
%TO.N,/I2C_IO.SCL*%
X133500000Y-127250000D03*
%TO.P,J1,5,Pin_5*%
%TO.N,GND*%
X135500000Y-127250000D03*
%TD*%
D28*
%TO.N,GND*%
X119750000Y-112250000D03*
X141000000Y-125250000D03*
X181000000Y-118000000D03*
X116500000Y-114000000D03*
X76500000Y-107500000D03*
X192500000Y-103750000D03*
X146500000Y-130500000D03*
X155250000Y-125750000D03*
X110750000Y-114000000D03*
X173250000Y-129500000D03*
X132750000Y-129750000D03*
X146500000Y-126750000D03*
X126000000Y-125000000D03*
X77750000Y-115750000D03*
X73750000Y-94500000D03*
X159000000Y-121500000D03*
X175250000Y-119000000D03*
X130750000Y-123250000D03*
X129750000Y-134750000D03*
%TD*%
D29*
%TO.N,+3.3V*%
X151540000Y-136460000D02*
X151540000Y-125960000D01*
X177000000Y-116050000D02*
X173287500Y-116050000D01*
X179250000Y-116050000D02*
X177000000Y-116050000D01*
X151540000Y-125960000D02*
X154080000Y-123420000D01*
X114500000Y-109650000D02*
X114500000Y-119550000D01*
X116550000Y-119550000D02*
X120125000Y-123125000D01*
X106050000Y-119550000D02*
X114500000Y-119550000D01*
X184500000Y-112750000D02*
X181200000Y-116050000D01*
X84500000Y-98000000D02*
X106050000Y-119550000D01*
X157250000Y-123420000D02*
X157250000Y-105750000D01*
X120125000Y-123125000D02*
X124250000Y-127250000D01*
X154080000Y-123420000D02*
X157250000Y-123420000D01*
X157250000Y-105750000D02*
X167000000Y-96000000D01*
D30*
X168750000Y-121000000D02*
X166250000Y-121000000D01*
D29*
X198500000Y-101750000D02*
X201750000Y-98500000D01*
X181200000Y-116050000D02*
X179250000Y-116050000D01*
X184500000Y-112750000D02*
X184500000Y-101750000D01*
X196250000Y-115000000D02*
X198750000Y-117500000D01*
D30*
X163800000Y-123450000D02*
X160750000Y-123450000D01*
D29*
X198750000Y-117500000D02*
X200087500Y-117500000D01*
X148600000Y-125960000D02*
X148600000Y-127230000D01*
X196250000Y-101750000D02*
X198500000Y-101750000D01*
X119250000Y-124000000D02*
X116250000Y-127000000D01*
X154080000Y-123420000D02*
X157900000Y-123420000D01*
X177000000Y-122750000D02*
X178000000Y-123750000D01*
X201750000Y-98500000D02*
X201750000Y-97662500D01*
X127500000Y-136750000D02*
X128250000Y-137500000D01*
X178750000Y-96000000D02*
X184500000Y-101750000D01*
X150500000Y-137500000D02*
X151540000Y-136460000D01*
X157930000Y-123450000D02*
X157900000Y-123420000D01*
X114500000Y-119550000D02*
X116550000Y-119550000D01*
X76950000Y-98000000D02*
X73750000Y-98000000D01*
X177000000Y-116050000D02*
X177000000Y-122750000D01*
D30*
X166250000Y-121000000D02*
X163800000Y-123450000D01*
D29*
X124250000Y-127250000D02*
X127500000Y-127250000D01*
X184500000Y-101750000D02*
X196250000Y-101750000D01*
X167000000Y-96000000D02*
X178750000Y-96000000D01*
X76950000Y-98000000D02*
X84500000Y-98000000D01*
X151540000Y-125960000D02*
X148600000Y-125960000D01*
X127500000Y-127250000D02*
X127500000Y-136750000D01*
X160750000Y-123450000D02*
X157930000Y-123450000D01*
X128250000Y-137500000D02*
X150500000Y-137500000D01*
X119250000Y-124000000D02*
X120125000Y-123125000D01*
X196250000Y-101750000D02*
X196250000Y-115000000D01*
X178000000Y-123750000D02*
X178087500Y-123750000D01*
X173287500Y-116050000D02*
X173250000Y-116087500D01*
D31*
%TO.N,/I2C_IO.SDA*%
X131500000Y-127250000D02*
X131500000Y-125750000D01*
X140500000Y-131250000D02*
X132250000Y-131250000D01*
X132250000Y-131250000D02*
X131500000Y-130500000D01*
X142250000Y-126000000D02*
X142250000Y-129500000D01*
X143560000Y-124690000D02*
X142250000Y-126000000D01*
X148600000Y-124690000D02*
X143560000Y-124690000D01*
X118500000Y-112750000D02*
X118500000Y-109650000D01*
X142250000Y-129500000D02*
X140500000Y-131250000D01*
X131500000Y-130500000D02*
X131500000Y-127250000D01*
X131500000Y-125750000D02*
X118500000Y-112750000D01*
%TO.N,/I2C_IO.INT*%
X132500000Y-134000000D02*
X129500000Y-131000000D01*
X144250000Y-134000000D02*
X132500000Y-134000000D01*
X145940000Y-132310000D02*
X144250000Y-134000000D01*
X148600000Y-132310000D02*
X145940000Y-132310000D01*
X148410000Y-132500000D02*
X148600000Y-132310000D01*
X129500000Y-131000000D02*
X129500000Y-127250000D01*
%TO.N,/I2C_IO.SCL*%
X148600000Y-123420000D02*
X148520000Y-123500000D01*
X139250000Y-125000000D02*
X140830000Y-123420000D01*
X139250000Y-128000000D02*
X139250000Y-125000000D01*
X140830000Y-123420000D02*
X148600000Y-123420000D01*
X133500000Y-127250000D02*
X133500000Y-124250000D01*
X134250000Y-129500000D02*
X137750000Y-129500000D01*
X137750000Y-129500000D02*
X139250000Y-128000000D01*
X133500000Y-128750000D02*
X134250000Y-129500000D01*
X133500000Y-124250000D02*
X120500000Y-111250000D01*
X120500000Y-111250000D02*
X120500000Y-109650000D01*
X133500000Y-127250000D02*
X133500000Y-128750000D01*
%TO.N,Net-(Q1-B)*%
X76250000Y-119250000D02*
X78837500Y-119250000D01*
X75937500Y-118937500D02*
X76250000Y-119250000D01*
X75937500Y-117700000D02*
X75937500Y-118937500D01*
D29*
%TO.N,Net-(Q1-C)*%
X75250000Y-89500000D02*
X70250000Y-94500000D01*
X70250000Y-94500000D02*
X70250000Y-106500000D01*
X70250000Y-106500000D02*
X71250000Y-107500000D01*
X76950000Y-89500000D02*
X75250000Y-89500000D01*
X71250000Y-107500000D02*
X73087500Y-107500000D01*
X73087500Y-115775000D02*
X74062500Y-116750000D01*
X73087500Y-107500000D02*
X73087500Y-115775000D01*
D31*
%TO.N,/GP4*%
X154500000Y-130875001D02*
X154500000Y-138000000D01*
X105500000Y-139750000D02*
X85000000Y-119250000D01*
X156875001Y-128500000D02*
X154500000Y-130875001D01*
X157900000Y-128500000D02*
X156875001Y-128500000D01*
X85000000Y-119250000D02*
X80662500Y-119250000D01*
X154500000Y-138000000D02*
X152750000Y-139750000D01*
X152750000Y-139750000D02*
X105500000Y-139750000D01*
%TO.N,/GP0*%
X214750000Y-96000000D02*
X201912500Y-96000000D01*
X219000000Y-100250000D02*
X214750000Y-96000000D01*
X201587500Y-95837500D02*
X199750000Y-94000000D01*
X201912500Y-96000000D02*
X201750000Y-95837500D01*
X157900000Y-133580000D02*
X203170000Y-133580000D01*
X199750000Y-94000000D02*
X196250000Y-94000000D01*
X203170000Y-133580000D02*
X219000000Y-117750000D01*
X219000000Y-117750000D02*
X219000000Y-100250000D01*
X201750000Y-95837500D02*
X201587500Y-95837500D01*
X196250000Y-94000000D02*
X183750000Y-94000000D01*
%TO.N,/GP1*%
X202162500Y-114412500D02*
X202162500Y-117250000D01*
X200250000Y-112500000D02*
X202162500Y-114412500D01*
X212750000Y-110000000D02*
X200250000Y-110000000D01*
X200250000Y-110000000D02*
X200250000Y-112500000D01*
X202162500Y-117750000D02*
X201912500Y-117500000D01*
X157900000Y-132310000D02*
X199190000Y-132310000D01*
X202162500Y-129337500D02*
X202162500Y-117750000D01*
X199190000Y-132310000D02*
X202162500Y-129337500D01*
X202162500Y-117250000D02*
X201912500Y-117500000D01*
%TO.N,/GP2*%
X181750000Y-123750000D02*
X183750000Y-125750000D01*
X183750000Y-126000000D02*
X196250000Y-126000000D01*
X173960000Y-131040000D02*
X179912500Y-125087500D01*
X179912500Y-123750000D02*
X181750000Y-123750000D01*
X183750000Y-125750000D02*
X183750000Y-126000000D01*
X179912500Y-125087500D02*
X179912500Y-123750000D01*
X157900000Y-131040000D02*
X173960000Y-131040000D01*
%TO.N,/GP3*%
X172912500Y-117750000D02*
X171750000Y-117750000D01*
X168000000Y-114000000D02*
X168000000Y-110250000D01*
X157920000Y-129750000D02*
X157900000Y-129770000D01*
X168250000Y-110000000D02*
X180250000Y-110000000D01*
X173250000Y-127000000D02*
X170500000Y-129750000D01*
X168000000Y-110250000D02*
X167750000Y-110000000D01*
X171750000Y-117750000D02*
X168000000Y-114000000D01*
X170500000Y-129750000D02*
X157920000Y-129750000D01*
X173250000Y-117912500D02*
X173250000Y-127000000D01*
D29*
%TO.N,Net-(U1-C1-)*%
X108500000Y-112000000D02*
X108500000Y-109650000D01*
%TO.N,Net-(U1-C1+)*%
X110400000Y-112000000D02*
X110400000Y-109750000D01*
X110400000Y-109750000D02*
X110500000Y-109650000D01*
%TO.N,Net-(U1-VOUT)*%
X112500000Y-112050000D02*
X112500000Y-109650000D01*
D31*
%TO.N,Net-(J2-Pin_1)*%
X168520000Y-127230000D02*
X168750000Y-127000000D01*
X157900000Y-127230000D02*
X168520000Y-127230000D01*
%TO.N,Net-(J2-Pin_3)*%
X166500000Y-123000000D02*
X168750000Y-123000000D01*
X157900000Y-124690000D02*
X159440000Y-124690000D01*
X164500000Y-125000000D02*
X166500000Y-123000000D01*
X159750000Y-125000000D02*
X164500000Y-125000000D01*
X159440000Y-124690000D02*
X159750000Y-125000000D01*
%TO.N,Net-(J2-Pin_2)*%
X166250000Y-125000000D02*
X168750000Y-125000000D01*
X157900000Y-125960000D02*
X165290000Y-125960000D01*
X165290000Y-125960000D02*
X166250000Y-125000000D01*
%TD*%
%TA.AperFunction,Conductor*%
%TO.N,GND*%
G36*
X147131544Y-125359407D02*
G01*
X147167508Y-125408907D01*
X147167508Y-125470093D01*
X147158568Y-125489891D01*
X147151308Y-125502169D01*
X147123256Y-125549602D01*
X147077403Y-125707427D01*
X147077401Y-125707434D01*
X147074500Y-125744311D01*
X147074500Y-126175688D01*
X147077401Y-126212565D01*
X147077401Y-126212568D01*
X147077402Y-126212569D01*
X147123256Y-126370398D01*
X147206919Y-126511865D01*
X147220052Y-126524998D01*
X147247828Y-126579516D01*
X147238254Y-126639948D01*
X147220052Y-126665002D01*
X147206919Y-126678135D01*
X147123256Y-126819602D01*
X147077403Y-126977427D01*
X147077401Y-126977434D01*
X147074500Y-127014311D01*
X147074500Y-127445688D01*
X147077401Y-127482565D01*
X147077401Y-127482568D01*
X147077402Y-127482569D01*
X147123256Y-127640398D01*
X147206919Y-127781865D01*
X147323135Y-127898081D01*
X147323137Y-127898082D01*
X147323138Y-127898083D01*
X147351379Y-127914785D01*
X147391842Y-127960680D01*
X147397600Y-128021594D01*
X147380639Y-128058786D01*
X147322655Y-128137350D01*
X147277850Y-128265398D01*
X147275000Y-128295788D01*
X147275000Y-128349999D01*
X147275001Y-128350000D01*
X149924998Y-128350000D01*
X149924999Y-128349999D01*
X149924999Y-128295796D01*
X149922149Y-128265399D01*
X149922149Y-128265397D01*
X149877345Y-128137352D01*
X149819360Y-128058787D01*
X149800018Y-128000739D01*
X149818489Y-127942409D01*
X149848619Y-127914785D01*
X149876865Y-127898081D01*
X149993081Y-127781865D01*
X150076744Y-127640398D01*
X150122598Y-127482569D01*
X150125500Y-127445694D01*
X150125500Y-127014306D01*
X150122598Y-126977431D01*
X150118149Y-126962117D01*
X150120072Y-126900963D01*
X150157574Y-126852618D01*
X150213219Y-126835500D01*
X150565500Y-126835500D01*
X150623691Y-126854407D01*
X150659655Y-126903907D01*
X150664500Y-126934500D01*
X150664500Y-136056348D01*
X150645593Y-136114539D01*
X150635504Y-136126352D01*
X150166352Y-136595504D01*
X150111835Y-136623281D01*
X150096348Y-136624500D01*
X128653652Y-136624500D01*
X128595461Y-136605593D01*
X128583648Y-136595504D01*
X128404496Y-136416352D01*
X128376719Y-136361835D01*
X128375500Y-136346348D01*
X128375500Y-128449666D01*
X128394407Y-128391475D01*
X128415171Y-128370413D01*
X128442439Y-128350000D01*
X128532546Y-128282546D01*
X128611011Y-128177730D01*
X128623260Y-128169095D01*
X128632072Y-128156967D01*
X128647640Y-128151908D01*
X128661018Y-128142478D01*
X128676006Y-128142692D01*
X128690263Y-128138060D01*
X128705830Y-128143118D01*
X128722197Y-128143352D01*
X128748450Y-128156965D01*
X128808691Y-128200733D01*
X128844655Y-128250233D01*
X128849500Y-128280825D01*
X128849500Y-131064069D01*
X128857457Y-131104069D01*
X128874499Y-131189745D01*
X128923533Y-131308124D01*
X128923534Y-131308126D01*
X128923535Y-131308127D01*
X128994723Y-131414669D01*
X132085331Y-134505277D01*
X132191873Y-134576465D01*
X132310256Y-134625501D01*
X132435931Y-134650500D01*
X132435932Y-134650500D01*
X144314068Y-134650500D01*
X144314069Y-134650500D01*
X144439744Y-134625501D01*
X144558127Y-134576465D01*
X144664669Y-134505277D01*
X145439945Y-133730001D01*
X147275001Y-133730001D01*
X147275001Y-133784203D01*
X147277850Y-133814600D01*
X147277850Y-133814602D01*
X147322654Y-133942647D01*
X147403207Y-134051790D01*
X147403209Y-134051792D01*
X147512352Y-134132345D01*
X147640398Y-134177149D01*
X147670789Y-134179999D01*
X148449998Y-134179999D01*
X148450000Y-134179998D01*
X148450000Y-133730001D01*
X148750000Y-133730001D01*
X148750000Y-134179998D01*
X148750001Y-134179999D01*
X149529203Y-134179999D01*
X149559600Y-134177149D01*
X149559602Y-134177149D01*
X149687647Y-134132345D01*
X149796790Y-134051792D01*
X149796792Y-134051790D01*
X149877345Y-133942647D01*
X149922149Y-133814601D01*
X149924999Y-133784211D01*
X149925000Y-133784210D01*
X149925000Y-133730001D01*
X149924999Y-133730000D01*
X148750001Y-133730000D01*
X148750000Y-133730001D01*
X148450000Y-133730001D01*
X148449999Y-133730000D01*
X147275002Y-133730000D01*
X147275001Y-133730001D01*
X145439945Y-133730001D01*
X146180450Y-132989496D01*
X146234967Y-132961719D01*
X146250454Y-132960500D01*
X147266575Y-132960500D01*
X147317242Y-132974448D01*
X147322832Y-132977778D01*
X147323135Y-132978081D01*
X147351476Y-132994841D01*
X147351651Y-132994946D01*
X147371693Y-133017826D01*
X147391842Y-133040680D01*
X147391857Y-133040846D01*
X147391967Y-133040971D01*
X147394724Y-133071171D01*
X147397600Y-133101594D01*
X147397518Y-133101773D01*
X147397530Y-133101903D01*
X147397227Y-133102410D01*
X147380639Y-133138786D01*
X147322655Y-133217350D01*
X147277850Y-133345398D01*
X147275000Y-133375788D01*
X147275000Y-133429999D01*
X147275001Y-133430000D01*
X149924998Y-133430000D01*
X149924999Y-133429999D01*
X149924999Y-133375796D01*
X149922149Y-133345399D01*
X149922149Y-133345397D01*
X149877345Y-133217352D01*
X149819360Y-133138787D01*
X149800018Y-133080739D01*
X149818489Y-133022409D01*
X149848619Y-132994785D01*
X149876865Y-132978081D01*
X149993081Y-132861865D01*
X150076744Y-132720398D01*
X150122598Y-132562569D01*
X150125500Y-132525694D01*
X150125500Y-132094306D01*
X150122598Y-132057431D01*
X150076744Y-131899602D01*
X149993081Y-131758135D01*
X149979947Y-131745001D01*
X149952172Y-131690487D01*
X149961743Y-131630055D01*
X149979948Y-131604998D01*
X149993081Y-131591865D01*
X150076744Y-131450398D01*
X150122598Y-131292569D01*
X150125500Y-131255694D01*
X150125500Y-130824306D01*
X150122598Y-130787431D01*
X150076744Y-130629602D01*
X149993081Y-130488135D01*
X149979947Y-130475001D01*
X149952172Y-130420487D01*
X149961743Y-130360055D01*
X149979948Y-130334998D01*
X149993081Y-130321865D01*
X150076744Y-130180398D01*
X150122598Y-130022569D01*
X150125500Y-129985694D01*
X150125500Y-129554306D01*
X150122598Y-129517431D01*
X150076744Y-129359602D01*
X149993081Y-129218135D01*
X149876865Y-129101919D01*
X149872775Y-129099500D01*
X149848619Y-129085214D01*
X149808157Y-129039318D01*
X149802399Y-128978404D01*
X149819361Y-128941212D01*
X149877344Y-128862649D01*
X149922149Y-128734601D01*
X149924999Y-128704211D01*
X149925000Y-128704210D01*
X149925000Y-128650001D01*
X149924999Y-128650000D01*
X147275002Y-128650000D01*
X147275001Y-128650001D01*
X147275001Y-128704203D01*
X147277850Y-128734600D01*
X147277850Y-128734602D01*
X147322654Y-128862647D01*
X147380639Y-128941212D01*
X147399981Y-128999260D01*
X147381510Y-129057591D01*
X147351381Y-129085213D01*
X147323138Y-129101916D01*
X147206918Y-129218136D01*
X147123256Y-129359602D01*
X147077403Y-129517427D01*
X147077401Y-129517434D01*
X147074500Y-129554311D01*
X147074500Y-129985688D01*
X147077401Y-130022565D01*
X147077401Y-130022568D01*
X147077402Y-130022569D01*
X147123256Y-130180398D01*
X147206919Y-130321865D01*
X147220050Y-130334996D01*
X147220052Y-130334998D01*
X147247828Y-130389516D01*
X147238254Y-130449948D01*
X147220052Y-130475002D01*
X147206919Y-130488135D01*
X147123256Y-130629602D01*
X147077403Y-130787427D01*
X147077401Y-130787434D01*
X147074500Y-130824311D01*
X147074500Y-131255688D01*
X147077401Y-131292565D01*
X147077401Y-131292568D01*
X147077402Y-131292569D01*
X147123256Y-131450398D01*
X147158567Y-131510106D01*
X147171914Y-131569817D01*
X147147614Y-131625970D01*
X147094949Y-131657116D01*
X147073353Y-131659500D01*
X145875930Y-131659500D01*
X145849945Y-131664669D01*
X145750256Y-131684499D01*
X145750255Y-131684499D01*
X145750252Y-131684500D01*
X145631873Y-131733534D01*
X145525334Y-131804720D01*
X144009550Y-133320504D01*
X143955033Y-133348281D01*
X143939546Y-133349500D01*
X132810454Y-133349500D01*
X132752263Y-133330593D01*
X132740450Y-133320504D01*
X130179496Y-130759550D01*
X130151719Y-130705033D01*
X130150500Y-130689546D01*
X130150500Y-128280825D01*
X130169407Y-128222634D01*
X130191307Y-128200733D01*
X130265787Y-128146621D01*
X130396621Y-128015787D01*
X130419907Y-127983735D01*
X130469406Y-127947772D01*
X130530592Y-127947771D01*
X130580090Y-127983732D01*
X130603379Y-128015787D01*
X130734213Y-128146621D01*
X130808691Y-128200733D01*
X130844655Y-128250232D01*
X130849500Y-128280825D01*
X130849500Y-130564069D01*
X130850780Y-130570503D01*
X130862536Y-130629602D01*
X130874499Y-130689745D01*
X130923533Y-130808124D01*
X130923534Y-130808126D01*
X130923535Y-130808127D01*
X130994723Y-130914669D01*
X131744724Y-131664669D01*
X131835331Y-131755276D01*
X131898848Y-131797717D01*
X131941866Y-131826461D01*
X131941870Y-131826463D01*
X131941873Y-131826465D01*
X132060256Y-131875501D01*
X132185931Y-131900500D01*
X132185932Y-131900500D01*
X140564068Y-131900500D01*
X140564069Y-131900500D01*
X140689744Y-131875501D01*
X140808127Y-131826465D01*
X140840665Y-131804724D01*
X140914669Y-131755277D01*
X142755277Y-129914669D01*
X142826465Y-129808127D01*
X142875501Y-129689744D01*
X142900500Y-129564069D01*
X142900500Y-126310454D01*
X142919407Y-126252263D01*
X142929496Y-126240450D01*
X143800450Y-125369496D01*
X143854967Y-125341719D01*
X143870454Y-125340500D01*
X147073353Y-125340500D01*
X147131544Y-125359407D01*
G37*
%TD.AperFunction*%
%TA.AperFunction,Conductor*%
G36*
X214497737Y-96669407D02*
G01*
X214509550Y-96679496D01*
X218320504Y-100490450D01*
X218348281Y-100544967D01*
X218349500Y-100560454D01*
X218349500Y-117439546D01*
X218330593Y-117497737D01*
X218320504Y-117509550D01*
X202929550Y-132900504D01*
X202875033Y-132928281D01*
X202859546Y-132929500D01*
X199729453Y-132929500D01*
X199671262Y-132910593D01*
X199635298Y-132861093D01*
X199635298Y-132799907D01*
X199659447Y-132760498D01*
X202667777Y-129752169D01*
X202738965Y-129645627D01*
X202788001Y-129527244D01*
X202813000Y-129401569D01*
X202813000Y-118373308D01*
X202827738Y-118321337D01*
X202859814Y-118269334D01*
X202914999Y-118102797D01*
X202919563Y-118058126D01*
X202925500Y-118000015D01*
X202925500Y-118000009D01*
X202925499Y-116999983D01*
X202915000Y-116897211D01*
X202914999Y-116897209D01*
X202914999Y-116897203D01*
X202859814Y-116730666D01*
X202859810Y-116730660D01*
X202859809Y-116730657D01*
X202827739Y-116678662D01*
X202813000Y-116626691D01*
X202813000Y-114348432D01*
X202813000Y-114348431D01*
X202788001Y-114222756D01*
X202738965Y-114104373D01*
X202712035Y-114064069D01*
X202667776Y-113997830D01*
X200929496Y-112259550D01*
X200901719Y-112205033D01*
X200900500Y-112189546D01*
X200900500Y-111558556D01*
X200919407Y-111500365D01*
X200949997Y-111472821D01*
X200974612Y-111458611D01*
X201156661Y-111318919D01*
X201318919Y-111156661D01*
X201458611Y-110974612D01*
X201573344Y-110775888D01*
X201590311Y-110734927D01*
X201599968Y-110711614D01*
X201639705Y-110665088D01*
X201691432Y-110650500D01*
X210308568Y-110650500D01*
X210366759Y-110669407D01*
X210400032Y-110711614D01*
X210426653Y-110775883D01*
X210527466Y-110950498D01*
X210541389Y-110974612D01*
X210681081Y-111156661D01*
X210843339Y-111318919D01*
X211025388Y-111458611D01*
X211224112Y-111573344D01*
X211224113Y-111573344D01*
X211224116Y-111573346D01*
X211320167Y-111613131D01*
X211436113Y-111661158D01*
X211657762Y-111720548D01*
X211885266Y-111750500D01*
X211885267Y-111750500D01*
X212614733Y-111750500D01*
X212614734Y-111750500D01*
X212842238Y-111720548D01*
X213063887Y-111661158D01*
X213275888Y-111573344D01*
X213474612Y-111458611D01*
X213656661Y-111318919D01*
X213818919Y-111156661D01*
X213958611Y-110974612D01*
X214073344Y-110775888D01*
X214161158Y-110563887D01*
X214220548Y-110342238D01*
X214250500Y-110114734D01*
X214250500Y-109885266D01*
X214220548Y-109657762D01*
X214161158Y-109436113D01*
X214073344Y-109224112D01*
X213958611Y-109025388D01*
X213818919Y-108843339D01*
X213656661Y-108681081D01*
X213547685Y-108597460D01*
X213474611Y-108541388D01*
X213275883Y-108426653D01*
X213063885Y-108338841D01*
X212842238Y-108279452D01*
X212614734Y-108249500D01*
X211885266Y-108249500D01*
X211885265Y-108249500D01*
X211657761Y-108279452D01*
X211436114Y-108338841D01*
X211224116Y-108426653D01*
X211025388Y-108541388D01*
X210843342Y-108681078D01*
X210681078Y-108843342D01*
X210541388Y-109025388D01*
X210426653Y-109224116D01*
X210400032Y-109288386D01*
X210360295Y-109334912D01*
X210308568Y-109349500D01*
X201691432Y-109349500D01*
X201633241Y-109330593D01*
X201599968Y-109288386D01*
X201573346Y-109224116D01*
X201550228Y-109184075D01*
X201458611Y-109025388D01*
X201318919Y-108843339D01*
X201156661Y-108681081D01*
X201047685Y-108597460D01*
X200974611Y-108541388D01*
X200775883Y-108426653D01*
X200563885Y-108338841D01*
X200342238Y-108279452D01*
X200114734Y-108249500D01*
X199385266Y-108249500D01*
X199385265Y-108249500D01*
X199157761Y-108279452D01*
X198936114Y-108338841D01*
X198724116Y-108426653D01*
X198525388Y-108541388D01*
X198343342Y-108681078D01*
X198181078Y-108843342D01*
X198041388Y-109025388D01*
X197926653Y-109224116D01*
X197838841Y-109436114D01*
X197779452Y-109657761D01*
X197749500Y-109885265D01*
X197749500Y-110114734D01*
X197779452Y-110342238D01*
X197838841Y-110563885D01*
X197926653Y-110775883D01*
X198027466Y-110950498D01*
X198041389Y-110974612D01*
X198181081Y-111156661D01*
X198343339Y-111318919D01*
X198525388Y-111458611D01*
X198724112Y-111573344D01*
X198724113Y-111573344D01*
X198724116Y-111573346D01*
X198820167Y-111613131D01*
X198936113Y-111661158D01*
X199157762Y-111720548D01*
X199385266Y-111750500D01*
X199500500Y-111750500D01*
X199558691Y-111769407D01*
X199594655Y-111818907D01*
X199599500Y-111849500D01*
X199599500Y-112564067D01*
X199612177Y-112627798D01*
X199624499Y-112689743D01*
X199624499Y-112689745D01*
X199673533Y-112808124D01*
X199728043Y-112889706D01*
X199744723Y-112914669D01*
X201483005Y-114652951D01*
X201510781Y-114707466D01*
X201512000Y-114722953D01*
X201512000Y-116233609D01*
X201493093Y-116291800D01*
X201444141Y-116327584D01*
X201330662Y-116365187D01*
X201181347Y-116457285D01*
X201181344Y-116457287D01*
X201181344Y-116457288D01*
X201070001Y-116568630D01*
X201015487Y-116596406D01*
X200955055Y-116586835D01*
X200929999Y-116568631D01*
X200818656Y-116457288D01*
X200818653Y-116457286D01*
X200818652Y-116457285D01*
X200669336Y-116365187D01*
X200669335Y-116365186D01*
X200669334Y-116365186D01*
X200502797Y-116310001D01*
X200502794Y-116310000D01*
X200400016Y-116299500D01*
X199774983Y-116299500D01*
X199672211Y-116309999D01*
X199672199Y-116310002D01*
X199505663Y-116365187D01*
X199356347Y-116457285D01*
X199232284Y-116581348D01*
X199229402Y-116584994D01*
X199178479Y-116618914D01*
X199117344Y-116616423D01*
X199081740Y-116593596D01*
X197154496Y-114666352D01*
X197126719Y-114611835D01*
X197125500Y-114596348D01*
X197125500Y-104850000D01*
X197954437Y-104850000D01*
X199169027Y-104850000D01*
X199150000Y-104921009D01*
X199150000Y-105078991D01*
X199169027Y-105150000D01*
X197954437Y-105150000D01*
X197988164Y-105362954D01*
X198063559Y-105594994D01*
X198174319Y-105812374D01*
X198317725Y-106009755D01*
X198490244Y-106182274D01*
X198687625Y-106325680D01*
X198905005Y-106436440D01*
X199137045Y-106511835D01*
X199378009Y-106550000D01*
X199599999Y-106550000D01*
X199600000Y-106549999D01*
X199600000Y-105580973D01*
X199671009Y-105600000D01*
X199828991Y-105600000D01*
X199900000Y-105580973D01*
X199900000Y-106549999D01*
X199900001Y-106550000D01*
X200121991Y-106550000D01*
X200362954Y-106511835D01*
X200594994Y-106436440D01*
X200812374Y-106325680D01*
X201009755Y-106182274D01*
X201182274Y-106009755D01*
X201325680Y-105812374D01*
X201436440Y-105594994D01*
X201511835Y-105362954D01*
X201545563Y-105150000D01*
X200330973Y-105150000D01*
X200350000Y-105078991D01*
X200350000Y-104921009D01*
X200330973Y-104850000D01*
X201545563Y-104850000D01*
X210454437Y-104850000D01*
X211669027Y-104850000D01*
X211650000Y-104921009D01*
X211650000Y-105078991D01*
X211669027Y-105150000D01*
X210454437Y-105150000D01*
X210488164Y-105362954D01*
X210563559Y-105594994D01*
X210674319Y-105812374D01*
X210817725Y-106009755D01*
X210990244Y-106182274D01*
X211187625Y-106325680D01*
X211405005Y-106436440D01*
X211637045Y-106511835D01*
X211878009Y-106550000D01*
X212099999Y-106550000D01*
X212100000Y-106549999D01*
X212100000Y-105580973D01*
X212171009Y-105600000D01*
X212328991Y-105600000D01*
X212400000Y-105580973D01*
X212400000Y-106549999D01*
X212400001Y-106550000D01*
X212621991Y-106550000D01*
X212862954Y-106511835D01*
X213094994Y-106436440D01*
X213312374Y-106325680D01*
X213509755Y-106182274D01*
X213682274Y-106009755D01*
X213825680Y-105812374D01*
X213936440Y-105594994D01*
X214011835Y-105362954D01*
X214045563Y-105150000D01*
X212830973Y-105150000D01*
X212850000Y-105078991D01*
X212850000Y-104921009D01*
X212830973Y-104850000D01*
X214045563Y-104850000D01*
X214011835Y-104637045D01*
X213936440Y-104405005D01*
X213825680Y-104187625D01*
X213682274Y-103990244D01*
X213509755Y-103817725D01*
X213312374Y-103674319D01*
X213094994Y-103563559D01*
X212862954Y-103488164D01*
X212621991Y-103450000D01*
X212400001Y-103450000D01*
X212400000Y-103450001D01*
X212400000Y-104419026D01*
X212328991Y-104400000D01*
X212171009Y-104400000D01*
X212100000Y-104419026D01*
X212100000Y-103450001D01*
X212099999Y-103450000D01*
X211878009Y-103450000D01*
X211637045Y-103488164D01*
X211405005Y-103563559D01*
X211187625Y-103674319D01*
X210990244Y-103817725D01*
X210817725Y-103990244D01*
X210674319Y-104187625D01*
X210563559Y-104405005D01*
X210488164Y-104637045D01*
X210454437Y-104850000D01*
X201545563Y-104850000D01*
X201511835Y-104637045D01*
X201436440Y-104405005D01*
X201325680Y-104187625D01*
X201182274Y-103990244D01*
X201009755Y-103817725D01*
X200812374Y-103674319D01*
X200594994Y-103563559D01*
X200362954Y-103488164D01*
X200121991Y-103450000D01*
X199900001Y-103450000D01*
X199900000Y-103450001D01*
X199900000Y-104419026D01*
X199828991Y-104400000D01*
X199671009Y-104400000D01*
X199600000Y-104419026D01*
X199600000Y-103450001D01*
X199599999Y-103450000D01*
X199378009Y-103450000D01*
X199137045Y-103488164D01*
X198905005Y-103563559D01*
X198687625Y-103674319D01*
X198490244Y-103817725D01*
X198317725Y-103990244D01*
X198174319Y-104187625D01*
X198063559Y-104405005D01*
X197988164Y-104637045D01*
X197954437Y-104850000D01*
X197125500Y-104850000D01*
X197125500Y-102724500D01*
X197144407Y-102666309D01*
X197193907Y-102630345D01*
X197224500Y-102625500D01*
X198586228Y-102625500D01*
X198586229Y-102625500D01*
X198755374Y-102591855D01*
X198914705Y-102525858D01*
X198914707Y-102525856D01*
X198914712Y-102525854D01*
X198956115Y-102498188D01*
X199058099Y-102430045D01*
X202430045Y-99058099D01*
X202512423Y-98934812D01*
X202525854Y-98914712D01*
X202525860Y-98914700D01*
X202542097Y-98875500D01*
X202591855Y-98755374D01*
X202625500Y-98586229D01*
X202626449Y-98581459D01*
X202628838Y-98581934D01*
X202649500Y-98534491D01*
X202664561Y-98521827D01*
X202664134Y-98521287D01*
X202668649Y-98517716D01*
X202668656Y-98517712D01*
X202792712Y-98393656D01*
X202884814Y-98244334D01*
X202939999Y-98077797D01*
X202950500Y-97975009D01*
X202950499Y-97349992D01*
X202950499Y-97349991D01*
X202950499Y-97349983D01*
X202940000Y-97247211D01*
X202939999Y-97247209D01*
X202939999Y-97247203D01*
X202884814Y-97080666D01*
X202829658Y-96991243D01*
X202792714Y-96931347D01*
X202792713Y-96931346D01*
X202792712Y-96931344D01*
X202681369Y-96820001D01*
X202674252Y-96806032D01*
X202663165Y-96794945D01*
X202660712Y-96779457D01*
X202653594Y-96765487D01*
X202656046Y-96750000D01*
X202653594Y-96734513D01*
X202660712Y-96720542D01*
X202663165Y-96705055D01*
X202681368Y-96679999D01*
X202681873Y-96679494D01*
X202736388Y-96651719D01*
X202751875Y-96650500D01*
X214439546Y-96650500D01*
X214497737Y-96669407D01*
G37*
%TD.AperFunction*%
%TA.AperFunction,Conductor*%
G36*
X193302334Y-102640239D02*
G01*
X193344601Y-102666309D01*
X193455666Y-102734814D01*
X193540797Y-102763023D01*
X193590085Y-102799273D01*
X193608653Y-102857573D01*
X193589408Y-102915653D01*
X193545975Y-102949094D01*
X193502906Y-102966078D01*
X193382435Y-103057435D01*
X193291080Y-103177904D01*
X193235613Y-103318556D01*
X193225000Y-103406935D01*
X193225000Y-103549999D01*
X193225001Y-103550000D01*
X194151000Y-103550000D01*
X194209191Y-103568907D01*
X194245155Y-103618407D01*
X194250000Y-103649000D01*
X194250000Y-103699999D01*
X194250001Y-103700000D01*
X194301000Y-103700000D01*
X194359191Y-103718907D01*
X194395155Y-103768407D01*
X194400000Y-103799000D01*
X194400000Y-104499999D01*
X194400001Y-104500000D01*
X194768058Y-104500000D01*
X194768064Y-104499999D01*
X194856443Y-104489386D01*
X194997095Y-104433919D01*
X195117564Y-104342564D01*
X195196616Y-104238320D01*
X195246843Y-104203378D01*
X195308015Y-104204632D01*
X195356768Y-104241603D01*
X195374500Y-104298140D01*
X195374500Y-115086231D01*
X195389126Y-115159760D01*
X195406609Y-115247654D01*
X195408145Y-115255373D01*
X195408145Y-115255375D01*
X195474139Y-115414700D01*
X195474145Y-115414712D01*
X195534918Y-115505663D01*
X195569955Y-115558099D01*
X198069955Y-118058099D01*
X198191901Y-118180045D01*
X198232673Y-118207288D01*
X198335287Y-118275854D01*
X198335299Y-118275860D01*
X198394153Y-118300238D01*
X198494626Y-118341855D01*
X198663771Y-118375500D01*
X199150416Y-118375500D01*
X199208607Y-118394407D01*
X199227665Y-118414965D01*
X199228715Y-118414136D01*
X199232285Y-118418652D01*
X199232288Y-118418656D01*
X199356344Y-118542712D01*
X199505666Y-118634814D01*
X199672203Y-118689999D01*
X199774991Y-118700500D01*
X200400008Y-118700499D01*
X200400016Y-118700499D01*
X200502788Y-118690000D01*
X200502788Y-118689999D01*
X200502797Y-118689999D01*
X200669334Y-118634814D01*
X200818656Y-118542712D01*
X200929998Y-118431369D01*
X200984513Y-118403594D01*
X201044945Y-118413165D01*
X201070000Y-118431368D01*
X201181344Y-118542712D01*
X201330666Y-118634814D01*
X201444141Y-118672416D01*
X201493430Y-118708666D01*
X201512000Y-118766390D01*
X201512000Y-129027046D01*
X201493093Y-129085237D01*
X201483004Y-129097050D01*
X198949550Y-131630504D01*
X198895033Y-131658281D01*
X198879546Y-131659500D01*
X174499453Y-131659500D01*
X174441262Y-131640593D01*
X174405298Y-131591093D01*
X174405298Y-131529907D01*
X174429447Y-131490498D01*
X180417776Y-125502169D01*
X180488965Y-125395627D01*
X180538001Y-125277244D01*
X180538396Y-125275261D01*
X180544470Y-125244725D01*
X180552978Y-125201953D01*
X180563000Y-125151569D01*
X180563000Y-124897714D01*
X180581907Y-124839523D01*
X180610026Y-124813454D01*
X180643656Y-124792712D01*
X180767712Y-124668656D01*
X180859814Y-124519334D01*
X180876705Y-124468359D01*
X180912956Y-124419070D01*
X180970680Y-124400500D01*
X181439546Y-124400500D01*
X181497737Y-124419407D01*
X181509550Y-124429496D01*
X182011118Y-124931064D01*
X182038895Y-124985581D01*
X182029324Y-125046013D01*
X182026851Y-125050568D01*
X181926653Y-125224116D01*
X181838841Y-125436114D01*
X181779452Y-125657761D01*
X181749500Y-125885265D01*
X181749500Y-126114734D01*
X181779452Y-126342238D01*
X181838841Y-126563885D01*
X181926653Y-126775883D01*
X182041388Y-126974611D01*
X182071847Y-127014306D01*
X182181081Y-127156661D01*
X182343339Y-127318919D01*
X182525388Y-127458611D01*
X182724112Y-127573344D01*
X182724113Y-127573344D01*
X182724116Y-127573346D01*
X182820167Y-127613131D01*
X182936113Y-127661158D01*
X183157762Y-127720548D01*
X183385266Y-127750500D01*
X183385267Y-127750500D01*
X184114733Y-127750500D01*
X184114734Y-127750500D01*
X184342238Y-127720548D01*
X184563887Y-127661158D01*
X184775888Y-127573344D01*
X184974612Y-127458611D01*
X185156661Y-127318919D01*
X185318919Y-127156661D01*
X185458611Y-126974612D01*
X185573344Y-126775888D01*
X185576467Y-126768346D01*
X185599968Y-126711614D01*
X185639705Y-126665088D01*
X185691432Y-126650500D01*
X194308568Y-126650500D01*
X194366759Y-126669407D01*
X194400032Y-126711614D01*
X194426653Y-126775883D01*
X194541388Y-126974611D01*
X194571847Y-127014306D01*
X194681081Y-127156661D01*
X194843339Y-127318919D01*
X195025388Y-127458611D01*
X195224112Y-127573344D01*
X195224113Y-127573344D01*
X195224116Y-127573346D01*
X195320167Y-127613131D01*
X195436113Y-127661158D01*
X195657762Y-127720548D01*
X195885266Y-127750500D01*
X195885267Y-127750500D01*
X196614733Y-127750500D01*
X196614734Y-127750500D01*
X196842238Y-127720548D01*
X197063887Y-127661158D01*
X197275888Y-127573344D01*
X197474612Y-127458611D01*
X197656661Y-127318919D01*
X197818919Y-127156661D01*
X197958611Y-126974612D01*
X198073344Y-126775888D01*
X198161158Y-126563887D01*
X198220548Y-126342238D01*
X198250500Y-126114734D01*
X198250500Y-125885266D01*
X198220548Y-125657762D01*
X198161158Y-125436113D01*
X198092122Y-125269446D01*
X198073346Y-125224116D01*
X198060550Y-125201953D01*
X197958611Y-125025388D01*
X197818919Y-124843339D01*
X197656661Y-124681081D01*
X197474612Y-124541389D01*
X197474613Y-124541389D01*
X197474611Y-124541388D01*
X197275883Y-124426653D01*
X197063885Y-124338841D01*
X196842238Y-124279452D01*
X196614734Y-124249500D01*
X195885266Y-124249500D01*
X195885265Y-124249500D01*
X195657761Y-124279452D01*
X195436114Y-124338841D01*
X195224116Y-124426653D01*
X195025388Y-124541388D01*
X194843342Y-124681078D01*
X194681078Y-124843342D01*
X194541388Y-125025388D01*
X194426653Y-125224116D01*
X194400032Y-125288386D01*
X194360295Y-125334912D01*
X194308568Y-125349500D01*
X185691432Y-125349500D01*
X185633241Y-125330593D01*
X185599968Y-125288386D01*
X185573346Y-125224116D01*
X185560550Y-125201953D01*
X185458611Y-125025388D01*
X185318919Y-124843339D01*
X185156661Y-124681081D01*
X184974612Y-124541389D01*
X184974613Y-124541389D01*
X184974611Y-124541388D01*
X184775883Y-124426653D01*
X184563885Y-124338841D01*
X184342238Y-124279452D01*
X184114734Y-124249500D01*
X183385266Y-124249500D01*
X183385264Y-124249500D01*
X183242957Y-124268235D01*
X183182796Y-124257085D01*
X183160031Y-124240086D01*
X182685730Y-123765785D01*
X182164669Y-123244723D01*
X182164665Y-123244720D01*
X182058126Y-123173534D01*
X181939747Y-123124500D01*
X181939745Y-123124499D01*
X181939744Y-123124499D01*
X181814069Y-123099500D01*
X180970680Y-123099500D01*
X180912489Y-123080593D01*
X180876705Y-123031640D01*
X180859814Y-122980666D01*
X180819139Y-122914721D01*
X180767714Y-122831347D01*
X180767713Y-122831346D01*
X180767712Y-122831344D01*
X180643656Y-122707288D01*
X180643653Y-122707286D01*
X180643652Y-122707285D01*
X180494336Y-122615187D01*
X180494335Y-122615186D01*
X180494334Y-122615186D01*
X180327797Y-122560001D01*
X180327794Y-122560000D01*
X180225016Y-122549500D01*
X179599983Y-122549500D01*
X179497211Y-122559999D01*
X179497199Y-122560002D01*
X179330663Y-122615187D01*
X179181347Y-122707285D01*
X179181344Y-122707287D01*
X179181344Y-122707288D01*
X179070001Y-122818630D01*
X179015487Y-122846406D01*
X178955055Y-122836835D01*
X178929999Y-122818631D01*
X178818656Y-122707288D01*
X178818653Y-122707286D01*
X178818652Y-122707285D01*
X178669336Y-122615187D01*
X178669335Y-122615186D01*
X178669334Y-122615186D01*
X178502797Y-122560001D01*
X178502794Y-122560000D01*
X178400017Y-122549500D01*
X178400009Y-122549500D01*
X178078652Y-122549500D01*
X178071054Y-122547031D01*
X178063165Y-122548281D01*
X178042509Y-122537756D01*
X178020461Y-122530593D01*
X178008648Y-122520504D01*
X177904496Y-122416352D01*
X177876719Y-122361835D01*
X177875500Y-122346348D01*
X177875500Y-120850000D01*
X181954437Y-120850000D01*
X183169027Y-120850000D01*
X183150000Y-120921009D01*
X183150000Y-121078991D01*
X183169027Y-121150000D01*
X181954437Y-121150000D01*
X181988164Y-121362954D01*
X182063559Y-121594994D01*
X182174319Y-121812374D01*
X182317725Y-122009755D01*
X182490244Y-122182274D01*
X182687625Y-122325680D01*
X182905005Y-122436440D01*
X183137045Y-122511835D01*
X183378009Y-122550000D01*
X183599999Y-122550000D01*
X183600000Y-122549999D01*
X183600000Y-121580973D01*
X183671009Y-121600000D01*
X183828991Y-121600000D01*
X183900000Y-121580973D01*
X183900000Y-122549999D01*
X183900001Y-122550000D01*
X184121991Y-122550000D01*
X184362954Y-122511835D01*
X184594994Y-122436440D01*
X184812374Y-122325680D01*
X185009755Y-122182274D01*
X185182274Y-122009755D01*
X185325680Y-121812374D01*
X185436440Y-121594994D01*
X185511835Y-121362954D01*
X185545563Y-121150000D01*
X184330973Y-121150000D01*
X184350000Y-121078991D01*
X184350000Y-120921009D01*
X184330973Y-120850000D01*
X185545563Y-120850000D01*
X194454437Y-120850000D01*
X195669027Y-120850000D01*
X195650000Y-120921009D01*
X195650000Y-121078991D01*
X195669027Y-121150000D01*
X194454437Y-121150000D01*
X194488164Y-121362954D01*
X194563559Y-121594994D01*
X194674319Y-121812374D01*
X194817725Y-122009755D01*
X194990244Y-122182274D01*
X195187625Y-122325680D01*
X195405005Y-122436440D01*
X195637045Y-122511835D01*
X195878009Y-122550000D01*
X196099999Y-122550000D01*
X196100000Y-122549999D01*
X196100000Y-121580973D01*
X196171009Y-121600000D01*
X196328991Y-121600000D01*
X196400000Y-121580973D01*
X196400000Y-122549999D01*
X196400001Y-122550000D01*
X196621991Y-122550000D01*
X196862954Y-122511835D01*
X197094994Y-122436440D01*
X197312374Y-122325680D01*
X197509755Y-122182274D01*
X197682274Y-122009755D01*
X197825680Y-121812374D01*
X197936440Y-121594994D01*
X198011835Y-121362954D01*
X198045563Y-121150000D01*
X196830973Y-121150000D01*
X196850000Y-121078991D01*
X196850000Y-120921009D01*
X196830973Y-120850000D01*
X198045563Y-120850000D01*
X198011835Y-120637045D01*
X197936440Y-120405005D01*
X197825680Y-120187625D01*
X197682274Y-119990244D01*
X197509755Y-119817725D01*
X197312374Y-119674319D01*
X197094994Y-119563559D01*
X196862954Y-119488164D01*
X196621991Y-119450000D01*
X196400001Y-119450000D01*
X196400000Y-119450001D01*
X196400000Y-120419026D01*
X196328991Y-120400000D01*
X196171009Y-120400000D01*
X196100000Y-120419026D01*
X196100000Y-119450001D01*
X196099999Y-119450000D01*
X195878009Y-119450000D01*
X195637045Y-119488164D01*
X195405005Y-119563559D01*
X195187625Y-119674319D01*
X194990244Y-119817725D01*
X194817725Y-119990244D01*
X194674319Y-120187625D01*
X194563559Y-120405005D01*
X194488164Y-120637045D01*
X194454437Y-120850000D01*
X185545563Y-120850000D01*
X185511835Y-120637045D01*
X185436440Y-120405005D01*
X185325680Y-120187625D01*
X185182274Y-119990244D01*
X185009755Y-119817725D01*
X184812374Y-119674319D01*
X184594994Y-119563559D01*
X184362954Y-119488164D01*
X184121991Y-119450000D01*
X183900001Y-119450000D01*
X183900000Y-119450001D01*
X183900000Y-120419026D01*
X183828991Y-120400000D01*
X183671009Y-120400000D01*
X183600000Y-120419026D01*
X183600000Y-119450001D01*
X183599999Y-119450000D01*
X183378009Y-119450000D01*
X183137045Y-119488164D01*
X182905005Y-119563559D01*
X182687625Y-119674319D01*
X182490244Y-119817725D01*
X182317725Y-119990244D01*
X182174319Y-120187625D01*
X182063559Y-120405005D01*
X181988164Y-120637045D01*
X181954437Y-120850000D01*
X177875500Y-120850000D01*
X177875500Y-118100001D01*
X178225000Y-118100001D01*
X178225000Y-118243064D01*
X178235613Y-118331443D01*
X178291080Y-118472095D01*
X178382435Y-118592564D01*
X178502904Y-118683919D01*
X178643556Y-118739386D01*
X178731935Y-118749999D01*
X178731942Y-118750000D01*
X179099999Y-118750000D01*
X179100000Y-118749999D01*
X179100000Y-118100001D01*
X179400000Y-118100001D01*
X179400000Y-118749999D01*
X179400001Y-118750000D01*
X179768058Y-118750000D01*
X179768064Y-118749999D01*
X179856443Y-118739386D01*
X179997095Y-118683919D01*
X180117564Y-118592564D01*
X180208919Y-118472095D01*
X180264386Y-118331443D01*
X180274999Y-118243064D01*
X180275000Y-118243058D01*
X180275000Y-118100001D01*
X180274999Y-118100000D01*
X179400001Y-118100000D01*
X179400000Y-118100001D01*
X179100000Y-118100001D01*
X179099999Y-118100000D01*
X178225001Y-118100000D01*
X178225000Y-118100001D01*
X177875500Y-118100001D01*
X177875500Y-117024500D01*
X177894407Y-116966309D01*
X177943907Y-116930345D01*
X177974500Y-116925500D01*
X178331426Y-116925500D01*
X178383397Y-116940238D01*
X178455666Y-116984814D01*
X178540797Y-117013023D01*
X178590085Y-117049273D01*
X178608653Y-117107573D01*
X178589408Y-117165653D01*
X178545975Y-117199094D01*
X178502906Y-117216078D01*
X178382435Y-117307435D01*
X178291080Y-117427904D01*
X178235613Y-117568556D01*
X178225000Y-117656935D01*
X178225000Y-117799999D01*
X178225001Y-117800000D01*
X180274999Y-117800000D01*
X180275000Y-117799999D01*
X180275000Y-117656941D01*
X180274999Y-117656935D01*
X180264386Y-117568556D01*
X180208919Y-117427904D01*
X180117564Y-117307435D01*
X179997092Y-117216077D01*
X179954025Y-117199094D01*
X179937013Y-117185059D01*
X179917749Y-117174310D01*
X179913897Y-117165989D01*
X179906828Y-117160157D01*
X179901314Y-117138803D01*
X179892048Y-117118784D01*
X179893822Y-117109790D01*
X179891531Y-117100915D01*
X179899623Y-117080394D01*
X179903893Y-117058756D01*
X179910219Y-117053525D01*
X179913977Y-117043996D01*
X179948759Y-117017155D01*
X179953858Y-117014794D01*
X180044334Y-116984814D01*
X180121625Y-116937140D01*
X180126989Y-116934658D01*
X180143089Y-116932727D01*
X180168574Y-116925500D01*
X181286228Y-116925500D01*
X181286229Y-116925500D01*
X181455374Y-116891855D01*
X181614705Y-116825858D01*
X181614707Y-116825856D01*
X181614712Y-116825854D01*
X181666646Y-116791152D01*
X181758099Y-116730045D01*
X185180045Y-113308099D01*
X185260609Y-113187527D01*
X185275854Y-113164712D01*
X185275860Y-113164700D01*
X185275873Y-113164669D01*
X185341855Y-113005374D01*
X185375500Y-112836229D01*
X185375500Y-112663771D01*
X185375500Y-103850001D01*
X193225000Y-103850001D01*
X193225000Y-103993064D01*
X193235613Y-104081443D01*
X193291080Y-104222095D01*
X193382435Y-104342564D01*
X193502904Y-104433919D01*
X193643556Y-104489386D01*
X193731935Y-104499999D01*
X193731942Y-104500000D01*
X194099999Y-104500000D01*
X194100000Y-104499999D01*
X194100000Y-103850001D01*
X194099999Y-103850000D01*
X193225001Y-103850000D01*
X193225000Y-103850001D01*
X185375500Y-103850001D01*
X185375500Y-102724500D01*
X185394407Y-102666309D01*
X185443907Y-102630345D01*
X185474500Y-102625500D01*
X193250362Y-102625500D01*
X193302334Y-102640239D01*
G37*
%TD.AperFunction*%
%TA.AperFunction,Conductor*%
G36*
X143078738Y-124089407D02*
G01*
X143114702Y-124138907D01*
X143114702Y-124200093D01*
X143090552Y-124239501D01*
X142414340Y-124915714D01*
X141744720Y-125585334D01*
X141682705Y-125678149D01*
X141673534Y-125691873D01*
X141624500Y-125810252D01*
X141624499Y-125810257D01*
X141599500Y-125935930D01*
X141599500Y-129189546D01*
X141580593Y-129247737D01*
X141570504Y-129259550D01*
X140259550Y-130570504D01*
X140205033Y-130598281D01*
X140189546Y-130599500D01*
X132560452Y-130599500D01*
X132502261Y-130580593D01*
X132490448Y-130570503D01*
X132179496Y-130259550D01*
X132151719Y-130205034D01*
X132150500Y-130189547D01*
X132150500Y-128280825D01*
X132169407Y-128222634D01*
X132191307Y-128200733D01*
X132265787Y-128146621D01*
X132396621Y-128015787D01*
X132419907Y-127983735D01*
X132469406Y-127947772D01*
X132530592Y-127947771D01*
X132580090Y-127983732D01*
X132603379Y-128015787D01*
X132734213Y-128146621D01*
X132808691Y-128200733D01*
X132844655Y-128250232D01*
X132849500Y-128280825D01*
X132849500Y-128814067D01*
X132861521Y-128874500D01*
X132874499Y-128939743D01*
X132874499Y-128939745D01*
X132923533Y-129058124D01*
X132923534Y-129058126D01*
X132923535Y-129058127D01*
X132994723Y-129164669D01*
X133744724Y-129914669D01*
X133835331Y-130005276D01*
X133889321Y-130041351D01*
X133941866Y-130076461D01*
X133941870Y-130076463D01*
X133941873Y-130076465D01*
X134060256Y-130125501D01*
X134185931Y-130150500D01*
X134185932Y-130150500D01*
X137814068Y-130150500D01*
X137814069Y-130150500D01*
X137939744Y-130125501D01*
X138058127Y-130076465D01*
X138085572Y-130058127D01*
X138164669Y-130005277D01*
X139755276Y-128414670D01*
X139826465Y-128308127D01*
X139875501Y-128189744D01*
X139878334Y-128175500D01*
X139900500Y-128064069D01*
X139900500Y-125310454D01*
X139919407Y-125252263D01*
X139929496Y-125240450D01*
X141070450Y-124099496D01*
X141124967Y-124071719D01*
X141140454Y-124070500D01*
X143020547Y-124070500D01*
X143078738Y-124089407D01*
G37*
%TD.AperFunction*%
%TA.AperFunction,Conductor*%
G36*
X176083691Y-116944407D02*
G01*
X176119655Y-116993907D01*
X176124500Y-117024500D01*
X176124500Y-122836231D01*
X176142003Y-122924223D01*
X176153230Y-122980667D01*
X176158145Y-123005373D01*
X176158145Y-123005375D01*
X176224139Y-123164700D01*
X176224145Y-123164712D01*
X176277606Y-123244720D01*
X176319955Y-123308099D01*
X176319958Y-123308102D01*
X177045504Y-124033648D01*
X177073281Y-124088165D01*
X177074500Y-124103651D01*
X177074500Y-124250016D01*
X177084999Y-124352788D01*
X177085000Y-124352795D01*
X177085001Y-124352797D01*
X177140185Y-124519332D01*
X177140187Y-124519336D01*
X177232285Y-124668652D01*
X177232286Y-124668653D01*
X177232288Y-124668656D01*
X177356344Y-124792712D01*
X177356346Y-124792713D01*
X177356347Y-124792714D01*
X177384789Y-124810257D01*
X177505666Y-124884814D01*
X177672203Y-124939999D01*
X177774991Y-124950500D01*
X178400008Y-124950499D01*
X178400016Y-124950499D01*
X178502788Y-124940000D01*
X178502788Y-124939999D01*
X178502797Y-124939999D01*
X178669334Y-124884814D01*
X178818656Y-124792712D01*
X178929998Y-124681369D01*
X178943967Y-124674252D01*
X178955055Y-124663165D01*
X178970542Y-124660712D01*
X178984513Y-124653594D01*
X179000000Y-124656046D01*
X179015487Y-124653594D01*
X179029457Y-124660712D01*
X179044945Y-124663165D01*
X179070000Y-124681368D01*
X179164340Y-124775708D01*
X179192116Y-124830223D01*
X179182545Y-124890655D01*
X179164339Y-124915714D01*
X173719550Y-130360504D01*
X173665033Y-130388281D01*
X173649546Y-130389500D01*
X171019453Y-130389500D01*
X170961262Y-130370593D01*
X170925298Y-130321093D01*
X170925298Y-130259907D01*
X170949447Y-130220498D01*
X173755276Y-127414670D01*
X173826465Y-127308127D01*
X173875501Y-127189744D01*
X173881157Y-127161309D01*
X173900500Y-127064069D01*
X173900500Y-118970679D01*
X173919407Y-118912488D01*
X173968359Y-118876704D01*
X174019334Y-118859814D01*
X174168656Y-118767712D01*
X174292712Y-118643656D01*
X174384814Y-118494334D01*
X174439999Y-118327797D01*
X174450500Y-118225009D01*
X174450499Y-117599992D01*
X174450499Y-117599983D01*
X174440000Y-117497211D01*
X174439999Y-117497209D01*
X174439999Y-117497203D01*
X174384814Y-117330666D01*
X174303660Y-117199094D01*
X174292714Y-117181347D01*
X174292713Y-117181346D01*
X174292712Y-117181344D01*
X174205869Y-117094501D01*
X174178094Y-117039987D01*
X174187665Y-116979555D01*
X174230930Y-116936290D01*
X174275875Y-116925500D01*
X176025500Y-116925500D01*
X176083691Y-116944407D01*
G37*
%TD.AperFunction*%
%TA.AperFunction,Conductor*%
G36*
X178404539Y-96894407D02*
G01*
X178416352Y-96904496D01*
X183595504Y-102083648D01*
X183623281Y-102138165D01*
X183624500Y-102153652D01*
X183624500Y-112346348D01*
X183605593Y-112404539D01*
X183595504Y-112416352D01*
X180866352Y-115145504D01*
X180811835Y-115173281D01*
X180796348Y-115174500D01*
X180168574Y-115174500D01*
X180116602Y-115159761D01*
X180044336Y-115115187D01*
X180044335Y-115115186D01*
X180044334Y-115115186D01*
X179877797Y-115060001D01*
X179877794Y-115060000D01*
X179775016Y-115049500D01*
X178724983Y-115049500D01*
X178622211Y-115059999D01*
X178622199Y-115060002D01*
X178455663Y-115115187D01*
X178383398Y-115159761D01*
X178331426Y-115174500D01*
X174103042Y-115174500D01*
X174051069Y-115159760D01*
X174019337Y-115140187D01*
X173852794Y-115085000D01*
X173750016Y-115074500D01*
X172749983Y-115074500D01*
X172647211Y-115084999D01*
X172647199Y-115085002D01*
X172480663Y-115140187D01*
X172331347Y-115232285D01*
X172207285Y-115356347D01*
X172115187Y-115505663D01*
X172060000Y-115672205D01*
X172049500Y-115774983D01*
X172049500Y-116400016D01*
X172059999Y-116502788D01*
X172060000Y-116502795D01*
X172060001Y-116502797D01*
X172101055Y-116626691D01*
X172115187Y-116669336D01*
X172207285Y-116818652D01*
X172207286Y-116818653D01*
X172207288Y-116818656D01*
X172318629Y-116929997D01*
X172325703Y-116943881D01*
X172336744Y-116954878D01*
X172339243Y-116970455D01*
X172346405Y-116984512D01*
X172343967Y-116999902D01*
X172346436Y-117015290D01*
X172339302Y-117029360D01*
X172336834Y-117044944D01*
X172318767Y-117069862D01*
X172318268Y-117070363D01*
X172263808Y-117098250D01*
X172248125Y-117099500D01*
X172060454Y-117099500D01*
X172002263Y-117080593D01*
X171990450Y-117070504D01*
X168679496Y-113759550D01*
X168651719Y-113705033D01*
X168650500Y-113689546D01*
X168650500Y-111691430D01*
X168669407Y-111633239D01*
X168711612Y-111599967D01*
X168775888Y-111573344D01*
X168974612Y-111458611D01*
X169156661Y-111318919D01*
X169318919Y-111156661D01*
X169458611Y-110974612D01*
X169573344Y-110775888D01*
X169590311Y-110734927D01*
X169599968Y-110711614D01*
X169639705Y-110665088D01*
X169691432Y-110650500D01*
X178308568Y-110650500D01*
X178366759Y-110669407D01*
X178400032Y-110711614D01*
X178426653Y-110775883D01*
X178527466Y-110950498D01*
X178541389Y-110974612D01*
X178681081Y-111156661D01*
X178843339Y-111318919D01*
X179025388Y-111458611D01*
X179224112Y-111573344D01*
X179224113Y-111573344D01*
X179224116Y-111573346D01*
X179320167Y-111613131D01*
X179436113Y-111661158D01*
X179657762Y-111720548D01*
X179885266Y-111750500D01*
X179885267Y-111750500D01*
X180614733Y-111750500D01*
X180614734Y-111750500D01*
X180842238Y-111720548D01*
X181063887Y-111661158D01*
X181275888Y-111573344D01*
X181474612Y-111458611D01*
X181656661Y-111318919D01*
X181818919Y-111156661D01*
X181958611Y-110974612D01*
X182073344Y-110775888D01*
X182161158Y-110563887D01*
X182220548Y-110342238D01*
X182250500Y-110114734D01*
X182250500Y-109885266D01*
X182220548Y-109657762D01*
X182161158Y-109436113D01*
X182073344Y-109224112D01*
X181958611Y-109025388D01*
X181818919Y-108843339D01*
X181656661Y-108681081D01*
X181547685Y-108597460D01*
X181474611Y-108541388D01*
X181275883Y-108426653D01*
X181063885Y-108338841D01*
X180842238Y-108279452D01*
X180614734Y-108249500D01*
X179885266Y-108249500D01*
X179885265Y-108249500D01*
X179657761Y-108279452D01*
X179436114Y-108338841D01*
X179224116Y-108426653D01*
X179025388Y-108541388D01*
X178843342Y-108681078D01*
X178681078Y-108843342D01*
X178541388Y-109025388D01*
X178426653Y-109224116D01*
X178400032Y-109288386D01*
X178360295Y-109334912D01*
X178308568Y-109349500D01*
X169691432Y-109349500D01*
X169633241Y-109330593D01*
X169599968Y-109288386D01*
X169573346Y-109224116D01*
X169550228Y-109184075D01*
X169458611Y-109025388D01*
X169318919Y-108843339D01*
X169156661Y-108681081D01*
X169047685Y-108597460D01*
X168974611Y-108541388D01*
X168775883Y-108426653D01*
X168563885Y-108338841D01*
X168342238Y-108279452D01*
X168114734Y-108249500D01*
X167385266Y-108249500D01*
X167385265Y-108249500D01*
X167157761Y-108279452D01*
X166936114Y-108338841D01*
X166724116Y-108426653D01*
X166525388Y-108541388D01*
X166343342Y-108681078D01*
X166181078Y-108843342D01*
X166041388Y-109025388D01*
X165926653Y-109224116D01*
X165838841Y-109436114D01*
X165779452Y-109657761D01*
X165749500Y-109885265D01*
X165749500Y-110114734D01*
X165779452Y-110342238D01*
X165838841Y-110563885D01*
X165926653Y-110775883D01*
X166027466Y-110950498D01*
X166041389Y-110974612D01*
X166181081Y-111156661D01*
X166343339Y-111318919D01*
X166525388Y-111458611D01*
X166724112Y-111573344D01*
X166724113Y-111573344D01*
X166724116Y-111573346D01*
X166820167Y-111613131D01*
X166936113Y-111661158D01*
X167157762Y-111720548D01*
X167263423Y-111734458D01*
X167318647Y-111760799D01*
X167347842Y-111814569D01*
X167349500Y-111832611D01*
X167349500Y-114064069D01*
X167374499Y-114189742D01*
X167374500Y-114189747D01*
X167423534Y-114308126D01*
X167494720Y-114414665D01*
X167494723Y-114414669D01*
X171335331Y-118255277D01*
X171420223Y-118311999D01*
X171441873Y-118326465D01*
X171560256Y-118375501D01*
X171685931Y-118400500D01*
X172012604Y-118400500D01*
X172070795Y-118419407D01*
X172106579Y-118468359D01*
X172115186Y-118494334D01*
X172115188Y-118494338D01*
X172207285Y-118643652D01*
X172207286Y-118643653D01*
X172207288Y-118643656D01*
X172331344Y-118767712D01*
X172331346Y-118767713D01*
X172331347Y-118767714D01*
X172341773Y-118774145D01*
X172480666Y-118859814D01*
X172531640Y-118876704D01*
X172580929Y-118912955D01*
X172599500Y-118970679D01*
X172599500Y-126689546D01*
X172580593Y-126747737D01*
X172570504Y-126759550D01*
X170259550Y-129070504D01*
X170205033Y-129098281D01*
X170189546Y-129099500D01*
X159438475Y-129099500D01*
X159380284Y-129080593D01*
X159344320Y-129031093D01*
X159344320Y-128969907D01*
X159353261Y-128950105D01*
X159376744Y-128910398D01*
X159422598Y-128752569D01*
X159425500Y-128715694D01*
X159425500Y-128284306D01*
X159422598Y-128247431D01*
X159376744Y-128089602D01*
X159341432Y-128029893D01*
X159328086Y-127970183D01*
X159352386Y-127914030D01*
X159405051Y-127882884D01*
X159426647Y-127880500D01*
X167554077Y-127880500D01*
X167612268Y-127899407D01*
X167633330Y-127920171D01*
X167704906Y-128015785D01*
X167717454Y-128032546D01*
X167717457Y-128032548D01*
X167717458Y-128032549D01*
X167832670Y-128118797D01*
X167967511Y-128169089D01*
X167967512Y-128169089D01*
X167967517Y-128169091D01*
X168027127Y-128175500D01*
X169472872Y-128175499D01*
X169532483Y-128169091D01*
X169603836Y-128142478D01*
X169667329Y-128118797D01*
X169667329Y-128118796D01*
X169667331Y-128118796D01*
X169782546Y-128032546D01*
X169868796Y-127917331D01*
X169875976Y-127898082D01*
X169919089Y-127782488D01*
X169919088Y-127782488D01*
X169919091Y-127782483D01*
X169925500Y-127722873D01*
X169925499Y-126277128D01*
X169919091Y-126217517D01*
X169903490Y-126175688D01*
X169868797Y-126082670D01*
X169782549Y-125967458D01*
X169782548Y-125967457D01*
X169782546Y-125967454D01*
X169740437Y-125935931D01*
X169677731Y-125888989D01*
X169642478Y-125838980D01*
X169643352Y-125777801D01*
X169656968Y-125751545D01*
X169662228Y-125744306D01*
X169755378Y-125616096D01*
X169839379Y-125451235D01*
X169896555Y-125275264D01*
X169916147Y-125151567D01*
X169925500Y-125092517D01*
X169925500Y-124907482D01*
X169896555Y-124724738D01*
X169896555Y-124724736D01*
X169839379Y-124548765D01*
X169755378Y-124383904D01*
X169646621Y-124234213D01*
X169515787Y-124103379D01*
X169515783Y-124103376D01*
X169515782Y-124103375D01*
X169494847Y-124088165D01*
X169483735Y-124080092D01*
X169447772Y-124030594D01*
X169447771Y-123969408D01*
X169483732Y-123919909D01*
X169515787Y-123896621D01*
X169646621Y-123765787D01*
X169755378Y-123616096D01*
X169839379Y-123451235D01*
X169896555Y-123275264D01*
X169924394Y-123099500D01*
X169925500Y-123092517D01*
X169925500Y-122907482D01*
X169903637Y-122769450D01*
X169896555Y-122724736D01*
X169839379Y-122548765D01*
X169755378Y-122383904D01*
X169646621Y-122234213D01*
X169515787Y-122103379D01*
X169515783Y-122103376D01*
X169515782Y-122103375D01*
X169500685Y-122092407D01*
X169483735Y-122080092D01*
X169447772Y-122030594D01*
X169447771Y-121969408D01*
X169483732Y-121919909D01*
X169515787Y-121896621D01*
X169646621Y-121765787D01*
X169755378Y-121616096D01*
X169839379Y-121451235D01*
X169896555Y-121275264D01*
X169916395Y-121150000D01*
X169925500Y-121092517D01*
X169925500Y-120907482D01*
X169896555Y-120724738D01*
X169896555Y-120724736D01*
X169839379Y-120548765D01*
X169755378Y-120383904D01*
X169646621Y-120234213D01*
X169515787Y-120103379D01*
X169366096Y-119994622D01*
X169366092Y-119994619D01*
X169366090Y-119994618D01*
X169318191Y-119970212D01*
X169274927Y-119926947D01*
X169265356Y-119866515D01*
X169293134Y-119811999D01*
X169308137Y-119799687D01*
X169325771Y-119787904D01*
X168908333Y-119370466D01*
X168995606Y-119320080D01*
X169070080Y-119245606D01*
X169120466Y-119158333D01*
X169537904Y-119575771D01*
X169614034Y-119461834D01*
X169687532Y-119284395D01*
X169724999Y-119096031D01*
X169725000Y-119096028D01*
X169725000Y-118903971D01*
X169724999Y-118903968D01*
X169687532Y-118715604D01*
X169614034Y-118538164D01*
X169537904Y-118424227D01*
X169120465Y-118841665D01*
X169070080Y-118754394D01*
X168995606Y-118679920D01*
X168908332Y-118629532D01*
X169325771Y-118212094D01*
X169211835Y-118135965D01*
X169034395Y-118062467D01*
X168846031Y-118025000D01*
X168653968Y-118025000D01*
X168465604Y-118062467D01*
X168288164Y-118135965D01*
X168174227Y-118212094D01*
X168591666Y-118629533D01*
X168504394Y-118679920D01*
X168429920Y-118754394D01*
X168379533Y-118841666D01*
X167962094Y-118424227D01*
X167885965Y-118538164D01*
X167812467Y-118715604D01*
X167775000Y-118903968D01*
X167775000Y-119096031D01*
X167812467Y-119284395D01*
X167885965Y-119461835D01*
X167962094Y-119575771D01*
X168379532Y-119158332D01*
X168429920Y-119245606D01*
X168504394Y-119320080D01*
X168591665Y-119370465D01*
X168174227Y-119787904D01*
X168191863Y-119799689D01*
X168229742Y-119847739D01*
X168232144Y-119908877D01*
X168198151Y-119959751D01*
X168181807Y-119970213D01*
X168133909Y-119994618D01*
X168133907Y-119994619D01*
X168022205Y-120075776D01*
X167984213Y-120103379D01*
X167867086Y-120220505D01*
X167812572Y-120248281D01*
X167797085Y-120249500D01*
X166176081Y-120249500D01*
X166031085Y-120278342D01*
X165894506Y-120334915D01*
X165771585Y-120417048D01*
X163518128Y-122670504D01*
X163463611Y-122698281D01*
X163448124Y-122699500D01*
X161626875Y-122699500D01*
X161568684Y-122680593D01*
X161556877Y-122670509D01*
X161443656Y-122557288D01*
X161443653Y-122557286D01*
X161443652Y-122557285D01*
X161294336Y-122465187D01*
X161294335Y-122465186D01*
X161294334Y-122465186D01*
X161209203Y-122436976D01*
X161159914Y-122400725D01*
X161141346Y-122342426D01*
X161160591Y-122284346D01*
X161204026Y-122250904D01*
X161247094Y-122233920D01*
X161367564Y-122142564D01*
X161458919Y-122022095D01*
X161514386Y-121881443D01*
X161524999Y-121793064D01*
X161525000Y-121793058D01*
X161525000Y-121650001D01*
X161524999Y-121650000D01*
X159475001Y-121650000D01*
X159475000Y-121650001D01*
X159475000Y-121793064D01*
X159485613Y-121881443D01*
X159541080Y-122022095D01*
X159632435Y-122142564D01*
X159752905Y-122233920D01*
X159795973Y-122250904D01*
X159843171Y-122289841D01*
X159858468Y-122349083D01*
X159836022Y-122406002D01*
X159790796Y-122436976D01*
X159747226Y-122451414D01*
X159705662Y-122465187D01*
X159552334Y-122559761D01*
X159500362Y-122574500D01*
X158224500Y-122574500D01*
X158166309Y-122555593D01*
X158130345Y-122506093D01*
X158125500Y-122475500D01*
X158125500Y-121206935D01*
X159475000Y-121206935D01*
X159475000Y-121349999D01*
X159475001Y-121350000D01*
X160349999Y-121350000D01*
X160350000Y-121349999D01*
X160350000Y-120700001D01*
X160650000Y-120700001D01*
X160650000Y-121349999D01*
X160650001Y-121350000D01*
X161524999Y-121350000D01*
X161525000Y-121349999D01*
X161525000Y-121206941D01*
X161524999Y-121206935D01*
X161514386Y-121118556D01*
X161458919Y-120977904D01*
X161367564Y-120857435D01*
X161247095Y-120766080D01*
X161106443Y-120710613D01*
X161018064Y-120700000D01*
X160650001Y-120700000D01*
X160650000Y-120700001D01*
X160350000Y-120700001D01*
X160349999Y-120700000D01*
X159981935Y-120700000D01*
X159893556Y-120710613D01*
X159752904Y-120766080D01*
X159632435Y-120857435D01*
X159541080Y-120977904D01*
X159485613Y-121118556D01*
X159475000Y-121206935D01*
X158125500Y-121206935D01*
X158125500Y-106153652D01*
X158144407Y-106095461D01*
X158154496Y-106083648D01*
X159388144Y-104850000D01*
X165954437Y-104850000D01*
X167169027Y-104850000D01*
X167150000Y-104921009D01*
X167150000Y-105078991D01*
X167169027Y-105150000D01*
X165954437Y-105150000D01*
X165988164Y-105362954D01*
X166063559Y-105594994D01*
X166174319Y-105812374D01*
X166317725Y-106009755D01*
X166490244Y-106182274D01*
X166687625Y-106325680D01*
X166905005Y-106436440D01*
X167137045Y-106511835D01*
X167378009Y-106550000D01*
X167599999Y-106550000D01*
X167600000Y-106549999D01*
X167600000Y-105580973D01*
X167671009Y-105600000D01*
X167828991Y-105600000D01*
X167900000Y-105580973D01*
X167900000Y-106549999D01*
X167900001Y-106550000D01*
X168121991Y-106550000D01*
X168362954Y-106511835D01*
X168594994Y-106436440D01*
X168812374Y-106325680D01*
X169009755Y-106182274D01*
X169182274Y-106009755D01*
X169325680Y-105812374D01*
X169436440Y-105594994D01*
X169511835Y-105362954D01*
X169545563Y-105150000D01*
X168330973Y-105150000D01*
X168350000Y-105078991D01*
X168350000Y-104921009D01*
X168330973Y-104850000D01*
X169545563Y-104850000D01*
X178454437Y-104850000D01*
X179669027Y-104850000D01*
X179650000Y-104921009D01*
X179650000Y-105078991D01*
X179669027Y-105150000D01*
X178454437Y-105150000D01*
X178488164Y-105362954D01*
X178563559Y-105594994D01*
X178674319Y-105812374D01*
X178817725Y-106009755D01*
X178990244Y-106182274D01*
X179187625Y-106325680D01*
X179405005Y-106436440D01*
X179637045Y-106511835D01*
X179878009Y-106550000D01*
X180099999Y-106550000D01*
X180100000Y-106549999D01*
X180100000Y-105580973D01*
X180171009Y-105600000D01*
X180328991Y-105600000D01*
X180400000Y-105580973D01*
X180400000Y-106549999D01*
X180400001Y-106550000D01*
X180621991Y-106550000D01*
X180862954Y-106511835D01*
X181094994Y-106436440D01*
X181312374Y-106325680D01*
X181509755Y-106182274D01*
X181682274Y-106009755D01*
X181825680Y-105812374D01*
X181936440Y-105594994D01*
X182011835Y-105362954D01*
X182045563Y-105150000D01*
X180830973Y-105150000D01*
X180850000Y-105078991D01*
X180850000Y-104921009D01*
X180830973Y-104850000D01*
X182045563Y-104850000D01*
X182011835Y-104637045D01*
X181936440Y-104405005D01*
X181825680Y-104187625D01*
X181682274Y-103990244D01*
X181509755Y-103817725D01*
X181312374Y-103674319D01*
X181094994Y-103563559D01*
X180862954Y-103488164D01*
X180621991Y-103450000D01*
X180400001Y-103450000D01*
X180400000Y-103450001D01*
X180400000Y-104419026D01*
X180328991Y-104400000D01*
X180171009Y-104400000D01*
X180100000Y-104419026D01*
X180100000Y-103450001D01*
X180099999Y-103450000D01*
X179878009Y-103450000D01*
X179637045Y-103488164D01*
X179405005Y-103563559D01*
X179187625Y-103674319D01*
X178990244Y-103817725D01*
X178817725Y-103990244D01*
X178674319Y-104187625D01*
X178563559Y-104405005D01*
X178488164Y-104637045D01*
X178454437Y-104850000D01*
X169545563Y-104850000D01*
X169511835Y-104637045D01*
X169436440Y-104405005D01*
X169325680Y-104187625D01*
X169182274Y-103990244D01*
X169009755Y-103817725D01*
X168812374Y-103674319D01*
X168594994Y-103563559D01*
X168362954Y-103488164D01*
X168121991Y-103450000D01*
X167900001Y-103450000D01*
X167900000Y-103450001D01*
X167900000Y-104419026D01*
X167828991Y-104400000D01*
X167671009Y-104400000D01*
X167600000Y-104419026D01*
X167600000Y-103450001D01*
X167599999Y-103450000D01*
X167378009Y-103450000D01*
X167137045Y-103488164D01*
X166905005Y-103563559D01*
X166687625Y-103674319D01*
X166490244Y-103817725D01*
X166317725Y-103990244D01*
X166174319Y-104187625D01*
X166063559Y-104405005D01*
X165988164Y-104637045D01*
X165954437Y-104850000D01*
X159388144Y-104850000D01*
X167333648Y-96904496D01*
X167388165Y-96876719D01*
X167403652Y-96875500D01*
X178346348Y-96875500D01*
X178404539Y-96894407D01*
G37*
%TD.AperFunction*%
%TA.AperFunction,Conductor*%
G36*
X116099901Y-109957007D02*
G01*
X116192993Y-110050099D01*
X116268460Y-110093670D01*
X115835352Y-110526778D01*
X115923477Y-110590805D01*
X116077751Y-110669411D01*
X116242420Y-110722915D01*
X116413425Y-110750000D01*
X116586575Y-110750000D01*
X116757579Y-110722915D01*
X116922248Y-110669411D01*
X117076524Y-110590804D01*
X117076530Y-110590800D01*
X117164646Y-110526779D01*
X117164646Y-110526778D01*
X116731538Y-110093670D01*
X116807007Y-110050099D01*
X116900099Y-109957007D01*
X116943671Y-109881538D01*
X117370363Y-110308230D01*
X117385165Y-110328604D01*
X117385679Y-110328290D01*
X117387714Y-110331612D01*
X117508029Y-110497213D01*
X117508031Y-110497215D01*
X117508034Y-110497219D01*
X117652781Y-110641966D01*
X117652784Y-110641968D01*
X117652786Y-110641970D01*
X117690556Y-110669411D01*
X117808690Y-110755240D01*
X117844654Y-110804739D01*
X117849500Y-110835332D01*
X117849500Y-112814071D01*
X117869511Y-112914670D01*
X117869510Y-112914670D01*
X117874496Y-112939736D01*
X117874498Y-112939742D01*
X117923534Y-113058126D01*
X117991479Y-113159814D01*
X117994723Y-113164669D01*
X130820505Y-125990451D01*
X130824130Y-125997566D01*
X130830593Y-126002262D01*
X130837756Y-126024310D01*
X130848281Y-126044966D01*
X130849500Y-126060453D01*
X130849500Y-126219174D01*
X130830593Y-126277365D01*
X130808692Y-126299266D01*
X130734215Y-126353377D01*
X130734214Y-126353378D01*
X130734213Y-126353379D01*
X130603379Y-126484213D01*
X130580091Y-126516264D01*
X130530592Y-126552228D01*
X130469407Y-126552228D01*
X130419908Y-126516264D01*
X130396621Y-126484213D01*
X130265787Y-126353379D01*
X130116096Y-126244622D01*
X130116095Y-126244621D01*
X130116093Y-126244620D01*
X129951233Y-126160620D01*
X129775261Y-126103444D01*
X129592517Y-126074500D01*
X129592514Y-126074500D01*
X129407486Y-126074500D01*
X129407483Y-126074500D01*
X129224738Y-126103444D01*
X129048766Y-126160620D01*
X128883905Y-126244620D01*
X128748454Y-126343032D01*
X128690263Y-126361939D01*
X128632072Y-126343032D01*
X128611010Y-126322268D01*
X128532549Y-126217458D01*
X128532548Y-126217457D01*
X128532546Y-126217454D01*
X128532541Y-126217450D01*
X128417329Y-126131202D01*
X128282488Y-126080910D01*
X128282483Y-126080909D01*
X128282481Y-126080908D01*
X128282477Y-126080908D01*
X128251249Y-126077550D01*
X128222873Y-126074500D01*
X128222870Y-126074500D01*
X126777133Y-126074500D01*
X126777129Y-126074500D01*
X126777128Y-126074501D01*
X126769949Y-126075272D01*
X126717519Y-126080908D01*
X126717514Y-126080909D01*
X126582670Y-126131202D01*
X126467458Y-126217450D01*
X126467450Y-126217458D01*
X126379587Y-126334829D01*
X126329579Y-126370082D01*
X126300334Y-126374500D01*
X124653652Y-126374500D01*
X124595461Y-126355593D01*
X124583648Y-126345504D01*
X117108102Y-118869958D01*
X117108099Y-118869955D01*
X117067249Y-118842660D01*
X116964712Y-118774145D01*
X116964700Y-118774139D01*
X116805374Y-118708145D01*
X116636231Y-118674500D01*
X116636229Y-118674500D01*
X115474500Y-118674500D01*
X115416309Y-118655593D01*
X115380345Y-118606093D01*
X115375500Y-118575500D01*
X115375500Y-113551875D01*
X115394407Y-113493684D01*
X115404490Y-113481877D01*
X115442712Y-113443656D01*
X115534814Y-113294334D01*
X115563023Y-113209202D01*
X115599273Y-113159914D01*
X115657572Y-113141346D01*
X115715652Y-113160591D01*
X115749094Y-113204025D01*
X115766077Y-113247092D01*
X115857435Y-113367564D01*
X115977904Y-113458919D01*
X116118556Y-113514386D01*
X116206935Y-113524999D01*
X116206942Y-113525000D01*
X116349999Y-113525000D01*
X116350000Y-113524999D01*
X116350000Y-112650001D01*
X116650000Y-112650001D01*
X116650000Y-113524999D01*
X116650001Y-113525000D01*
X116793058Y-113525000D01*
X116793064Y-113524999D01*
X116881443Y-113514386D01*
X117022095Y-113458919D01*
X117142564Y-113367564D01*
X117233919Y-113247095D01*
X117289386Y-113106443D01*
X117299999Y-113018064D01*
X117300000Y-113018058D01*
X117300000Y-112650001D01*
X117299999Y-112650000D01*
X116650001Y-112650000D01*
X116650000Y-112650001D01*
X116350000Y-112650001D01*
X116350000Y-111475001D01*
X116650000Y-111475001D01*
X116650000Y-112349999D01*
X116650001Y-112350000D01*
X117299999Y-112350000D01*
X117300000Y-112349999D01*
X117300000Y-111981941D01*
X117299999Y-111981935D01*
X117289386Y-111893556D01*
X117233919Y-111752904D01*
X117142564Y-111632435D01*
X117022095Y-111541080D01*
X116881443Y-111485613D01*
X116793064Y-111475000D01*
X116650001Y-111475000D01*
X116650000Y-111475001D01*
X116350000Y-111475001D01*
X116349999Y-111475000D01*
X116206935Y-111475000D01*
X116118556Y-111485613D01*
X115977904Y-111541080D01*
X115857435Y-111632435D01*
X115766078Y-111752906D01*
X115749094Y-111795975D01*
X115710157Y-111843172D01*
X115650914Y-111858468D01*
X115593995Y-111836021D01*
X115563023Y-111790797D01*
X115534814Y-111705666D01*
X115489645Y-111632435D01*
X115442713Y-111556345D01*
X115442711Y-111556343D01*
X115404496Y-111518127D01*
X115376719Y-111463610D01*
X115375500Y-111448124D01*
X115375500Y-110654692D01*
X115394407Y-110596501D01*
X115404490Y-110584694D01*
X115491966Y-110497219D01*
X115612287Y-110331610D01*
X115612289Y-110331607D01*
X115614319Y-110328295D01*
X115614835Y-110328611D01*
X115629639Y-110308227D01*
X116056328Y-109881537D01*
X116099901Y-109957007D01*
G37*
%TD.AperFunction*%
%TA.AperFunction,Conductor*%
G36*
X119544945Y-110540982D02*
G01*
X119570000Y-110559185D01*
X119652781Y-110641966D01*
X119652784Y-110641968D01*
X119652786Y-110641970D01*
X119690556Y-110669411D01*
X119808690Y-110755240D01*
X119844654Y-110804739D01*
X119849500Y-110835332D01*
X119849500Y-111314069D01*
X119861064Y-111372203D01*
X119874499Y-111439745D01*
X119923533Y-111558124D01*
X119933702Y-111573344D01*
X119994723Y-111664669D01*
X132820505Y-124490451D01*
X132848281Y-124544966D01*
X132849500Y-124560453D01*
X132849500Y-126219174D01*
X132830593Y-126277365D01*
X132808692Y-126299266D01*
X132734215Y-126353377D01*
X132734214Y-126353378D01*
X132734213Y-126353379D01*
X132603379Y-126484213D01*
X132580091Y-126516264D01*
X132530592Y-126552228D01*
X132469407Y-126552228D01*
X132419908Y-126516264D01*
X132396621Y-126484213D01*
X132265787Y-126353379D01*
X132206707Y-126310454D01*
X132191308Y-126299266D01*
X132155345Y-126249766D01*
X132150500Y-126219174D01*
X132150500Y-125685932D01*
X132150500Y-125685931D01*
X132125501Y-125560256D01*
X132076465Y-125441873D01*
X132049757Y-125401901D01*
X132005276Y-125335330D01*
X119179496Y-112509550D01*
X119151719Y-112455033D01*
X119150500Y-112439546D01*
X119150500Y-110835332D01*
X119169407Y-110777141D01*
X119191307Y-110755241D01*
X119347219Y-110641966D01*
X119429998Y-110559186D01*
X119484513Y-110531411D01*
X119544945Y-110540982D01*
G37*
%TD.AperFunction*%
%TA.AperFunction,Conductor*%
G36*
X223702422Y-73000619D02*
G01*
X224067560Y-73018557D01*
X224077220Y-73019508D01*
X224436442Y-73072793D01*
X224445968Y-73074688D01*
X224798230Y-73162926D01*
X224807501Y-73165738D01*
X225149430Y-73288082D01*
X225158399Y-73291797D01*
X225486682Y-73447063D01*
X225495241Y-73451639D01*
X225806720Y-73638332D01*
X225814798Y-73643730D01*
X226106468Y-73860048D01*
X226113978Y-73866211D01*
X226199443Y-73943672D01*
X226383053Y-74110086D01*
X226389918Y-74116951D01*
X226633788Y-74386021D01*
X226639951Y-74393531D01*
X226856269Y-74685201D01*
X226861667Y-74693279D01*
X227048358Y-75004754D01*
X227052938Y-75013322D01*
X227208200Y-75341597D01*
X227211918Y-75350573D01*
X227334257Y-75692485D01*
X227337077Y-75701782D01*
X227425310Y-76054030D01*
X227427206Y-76063559D01*
X227480490Y-76422775D01*
X227481442Y-76432443D01*
X227499381Y-76797577D01*
X227499500Y-76802435D01*
X227499500Y-138197564D01*
X227499381Y-138202422D01*
X227481442Y-138567556D01*
X227480490Y-138577224D01*
X227427206Y-138936440D01*
X227425310Y-138945969D01*
X227337077Y-139298217D01*
X227334257Y-139307514D01*
X227211918Y-139649426D01*
X227208200Y-139658402D01*
X227052938Y-139986677D01*
X227048358Y-139995245D01*
X226861667Y-140306720D01*
X226856269Y-140314798D01*
X226639951Y-140606468D01*
X226633788Y-140613978D01*
X226389918Y-140883048D01*
X226383048Y-140889918D01*
X226113978Y-141133788D01*
X226106468Y-141139951D01*
X225814798Y-141356269D01*
X225806720Y-141361667D01*
X225495245Y-141548358D01*
X225486677Y-141552938D01*
X225158402Y-141708200D01*
X225149426Y-141711918D01*
X224807514Y-141834257D01*
X224798217Y-141837077D01*
X224445969Y-141925310D01*
X224436440Y-141927206D01*
X224077224Y-141980490D01*
X224067556Y-141981442D01*
X223702422Y-141999381D01*
X223697564Y-141999500D01*
X72302436Y-141999500D01*
X72297578Y-141999381D01*
X71932443Y-141981442D01*
X71922775Y-141980490D01*
X71563559Y-141927206D01*
X71554030Y-141925310D01*
X71201782Y-141837077D01*
X71192485Y-141834257D01*
X70850573Y-141711918D01*
X70841597Y-141708200D01*
X70513322Y-141552938D01*
X70504754Y-141548358D01*
X70193279Y-141361667D01*
X70185201Y-141356269D01*
X69893531Y-141139951D01*
X69886021Y-141133788D01*
X69616951Y-140889918D01*
X69610086Y-140883053D01*
X69366211Y-140613978D01*
X69360048Y-140606468D01*
X69143730Y-140314798D01*
X69138332Y-140306720D01*
X68951639Y-139995241D01*
X68947061Y-139986677D01*
X68791799Y-139658402D01*
X68788081Y-139649426D01*
X68786466Y-139644913D01*
X68665738Y-139307501D01*
X68662926Y-139298230D01*
X68574688Y-138945968D01*
X68572793Y-138936440D01*
X68519509Y-138577224D01*
X68518557Y-138567556D01*
X68500619Y-138202422D01*
X68500500Y-138197564D01*
X68500500Y-94413768D01*
X69374500Y-94413768D01*
X69374500Y-106586231D01*
X69408145Y-106755373D01*
X69408145Y-106755375D01*
X69474139Y-106914700D01*
X69474145Y-106914712D01*
X69531129Y-106999992D01*
X69569955Y-107058099D01*
X70569955Y-108058099D01*
X70691901Y-108180045D01*
X70753034Y-108220893D01*
X70835287Y-108275854D01*
X70835299Y-108275860D01*
X70894153Y-108300238D01*
X70994626Y-108341855D01*
X71163771Y-108375500D01*
X72113000Y-108375500D01*
X72171191Y-108394407D01*
X72207155Y-108443907D01*
X72212000Y-108474500D01*
X72212000Y-115861231D01*
X72245645Y-116030373D01*
X72245645Y-116030375D01*
X72311639Y-116189700D01*
X72311645Y-116189712D01*
X72366491Y-116271792D01*
X72407455Y-116333099D01*
X72407458Y-116333102D01*
X72795504Y-116721148D01*
X72823281Y-116775665D01*
X72824500Y-116791152D01*
X72824500Y-116965694D01*
X72824875Y-116970455D01*
X72827401Y-117002565D01*
X72827401Y-117002568D01*
X72827402Y-117002569D01*
X72873256Y-117160398D01*
X72956919Y-117301865D01*
X73073135Y-117418081D01*
X73214602Y-117501744D01*
X73372431Y-117547598D01*
X73409306Y-117550500D01*
X73687594Y-117550500D01*
X73725479Y-117558036D01*
X73748326Y-117567499D01*
X73807126Y-117591855D01*
X73976271Y-117625500D01*
X73976272Y-117625500D01*
X74148728Y-117625500D01*
X74148729Y-117625500D01*
X74317874Y-117591855D01*
X74376673Y-117567499D01*
X74399521Y-117558036D01*
X74437406Y-117550500D01*
X74600500Y-117550500D01*
X74658691Y-117569407D01*
X74694655Y-117618907D01*
X74699500Y-117649500D01*
X74699500Y-117915688D01*
X74702401Y-117952565D01*
X74702401Y-117952568D01*
X74702402Y-117952569D01*
X74748256Y-118110398D01*
X74831919Y-118251865D01*
X74948135Y-118368081D01*
X75089602Y-118451744D01*
X75215622Y-118488356D01*
X75266225Y-118522746D01*
X75286951Y-118580314D01*
X75287000Y-118583424D01*
X75287000Y-119001569D01*
X75311999Y-119127242D01*
X75312000Y-119127247D01*
X75361034Y-119245626D01*
X75410782Y-119320080D01*
X75432223Y-119352169D01*
X75835331Y-119755277D01*
X75910308Y-119805374D01*
X75941873Y-119826465D01*
X76060256Y-119875501D01*
X76185931Y-119900500D01*
X76314069Y-119900500D01*
X77779320Y-119900500D01*
X77837511Y-119919407D01*
X77873294Y-119968359D01*
X77873909Y-119970213D01*
X77890185Y-120019332D01*
X77890188Y-120019338D01*
X77982285Y-120168652D01*
X77982286Y-120168653D01*
X77982288Y-120168656D01*
X78106344Y-120292712D01*
X78106346Y-120292713D01*
X78106347Y-120292714D01*
X78160086Y-120325860D01*
X78255666Y-120384814D01*
X78422203Y-120439999D01*
X78524991Y-120450500D01*
X79150008Y-120450499D01*
X79150016Y-120450499D01*
X79252788Y-120440000D01*
X79252788Y-120439999D01*
X79252797Y-120439999D01*
X79419334Y-120384814D01*
X79568656Y-120292712D01*
X79679998Y-120181369D01*
X79734513Y-120153594D01*
X79794945Y-120163165D01*
X79820000Y-120181368D01*
X79931344Y-120292712D01*
X79931346Y-120292713D01*
X79931347Y-120292714D01*
X79985086Y-120325860D01*
X80080666Y-120384814D01*
X80247203Y-120439999D01*
X80349991Y-120450500D01*
X80975008Y-120450499D01*
X80975016Y-120450499D01*
X81077788Y-120440000D01*
X81077788Y-120439999D01*
X81077797Y-120439999D01*
X81244334Y-120384814D01*
X81393656Y-120292712D01*
X81517712Y-120168656D01*
X81609814Y-120019334D01*
X81626705Y-119968359D01*
X81662956Y-119919070D01*
X81720680Y-119900500D01*
X84689546Y-119900500D01*
X84747737Y-119919407D01*
X84759550Y-119929496D01*
X105085331Y-140255277D01*
X105168562Y-140310889D01*
X105191873Y-140326465D01*
X105310256Y-140375501D01*
X105435931Y-140400500D01*
X105435932Y-140400500D01*
X152814068Y-140400500D01*
X152814069Y-140400500D01*
X152939744Y-140375501D01*
X153058127Y-140326465D01*
X153081438Y-140310889D01*
X153164669Y-140255277D01*
X155005277Y-138414669D01*
X155076465Y-138308127D01*
X155093959Y-138265892D01*
X155125501Y-138189744D01*
X155150500Y-138064069D01*
X155150500Y-131185455D01*
X155169407Y-131127264D01*
X155179496Y-131115451D01*
X155696666Y-130598281D01*
X156235391Y-130059555D01*
X156289906Y-130031780D01*
X156350338Y-130041351D01*
X156393603Y-130084616D01*
X156400460Y-130101936D01*
X156423256Y-130180398D01*
X156506919Y-130321865D01*
X156520050Y-130334996D01*
X156520052Y-130334998D01*
X156547828Y-130389516D01*
X156538254Y-130449948D01*
X156520052Y-130475002D01*
X156506919Y-130488135D01*
X156423256Y-130629602D01*
X156377403Y-130787427D01*
X156377401Y-130787434D01*
X156374500Y-130824311D01*
X156374500Y-131255688D01*
X156377401Y-131292565D01*
X156377401Y-131292568D01*
X156377402Y-131292569D01*
X156423256Y-131450398D01*
X156506919Y-131591865D01*
X156520050Y-131604996D01*
X156520052Y-131604998D01*
X156547828Y-131659516D01*
X156538254Y-131719948D01*
X156520052Y-131745002D01*
X156506919Y-131758135D01*
X156423256Y-131899602D01*
X156377403Y-132057427D01*
X156377401Y-132057434D01*
X156374500Y-132094311D01*
X156374500Y-132525688D01*
X156377401Y-132562565D01*
X156377401Y-132562568D01*
X156377402Y-132562569D01*
X156423256Y-132720398D01*
X156506919Y-132861865D01*
X156520052Y-132874998D01*
X156547828Y-132929516D01*
X156538254Y-132989948D01*
X156520052Y-133015002D01*
X156506919Y-133028135D01*
X156423256Y-133169602D01*
X156377403Y-133327427D01*
X156377401Y-133327434D01*
X156374500Y-133364311D01*
X156374500Y-133795688D01*
X156377401Y-133832565D01*
X156377401Y-133832568D01*
X156377402Y-133832569D01*
X156423256Y-133990398D01*
X156506919Y-134131865D01*
X156623135Y-134248081D01*
X156764602Y-134331744D01*
X156922431Y-134377598D01*
X156959306Y-134380500D01*
X156959311Y-134380500D01*
X158840689Y-134380500D01*
X158840694Y-134380500D01*
X158877569Y-134377598D01*
X159035398Y-134331744D01*
X159176865Y-134248081D01*
X159176866Y-134248079D01*
X159182226Y-134244910D01*
X159183668Y-134247348D01*
X159230288Y-134230550D01*
X159233425Y-134230500D01*
X203234068Y-134230500D01*
X203234069Y-134230500D01*
X203359744Y-134205501D01*
X203478127Y-134156465D01*
X203514944Y-134131865D01*
X203584669Y-134085277D01*
X219505277Y-118164669D01*
X219576465Y-118058127D01*
X219600539Y-118000008D01*
X219625501Y-117939744D01*
X219650500Y-117814069D01*
X219650500Y-100185931D01*
X219625501Y-100060256D01*
X219599637Y-99997815D01*
X219576466Y-99941874D01*
X219505277Y-99835331D01*
X215164669Y-95494723D01*
X215058127Y-95423535D01*
X215058128Y-95423535D01*
X215058126Y-95423534D01*
X214939747Y-95374500D01*
X214939745Y-95374499D01*
X214939744Y-95374499D01*
X214814069Y-95349500D01*
X202987396Y-95349500D01*
X202929205Y-95330593D01*
X202893421Y-95281641D01*
X202884814Y-95255666D01*
X202792712Y-95106344D01*
X202668656Y-94982288D01*
X202668653Y-94982286D01*
X202668652Y-94982285D01*
X202519336Y-94890187D01*
X202519335Y-94890186D01*
X202519334Y-94890186D01*
X202352797Y-94835001D01*
X202352794Y-94835000D01*
X202250017Y-94824500D01*
X202250009Y-94824500D01*
X201535454Y-94824500D01*
X201477263Y-94805593D01*
X201465450Y-94795504D01*
X200914570Y-94244624D01*
X200164669Y-93494723D01*
X200164665Y-93494720D01*
X200058126Y-93423534D01*
X199939747Y-93374500D01*
X199939745Y-93374499D01*
X199939744Y-93374499D01*
X199814069Y-93349500D01*
X198191432Y-93349500D01*
X198133241Y-93330593D01*
X198099968Y-93288386D01*
X198073346Y-93224116D01*
X197958611Y-93025388D01*
X197818921Y-92843342D01*
X197818919Y-92843339D01*
X197656661Y-92681081D01*
X197474612Y-92541389D01*
X197474613Y-92541389D01*
X197474611Y-92541388D01*
X197275883Y-92426653D01*
X197063885Y-92338841D01*
X196842238Y-92279452D01*
X196614734Y-92249500D01*
X195885266Y-92249500D01*
X195885265Y-92249500D01*
X195657761Y-92279452D01*
X195436114Y-92338841D01*
X195224116Y-92426653D01*
X195025388Y-92541388D01*
X194843342Y-92681078D01*
X194681078Y-92843342D01*
X194541388Y-93025388D01*
X194426653Y-93224116D01*
X194400032Y-93288386D01*
X194360295Y-93334912D01*
X194308568Y-93349500D01*
X185691432Y-93349500D01*
X185633241Y-93330593D01*
X185599968Y-93288386D01*
X185573346Y-93224116D01*
X185458611Y-93025388D01*
X185318921Y-92843342D01*
X185318919Y-92843339D01*
X185156661Y-92681081D01*
X184974612Y-92541389D01*
X184974613Y-92541389D01*
X184974611Y-92541388D01*
X184775883Y-92426653D01*
X184563885Y-92338841D01*
X184342238Y-92279452D01*
X184114734Y-92249500D01*
X183385266Y-92249500D01*
X183385265Y-92249500D01*
X183157761Y-92279452D01*
X182936114Y-92338841D01*
X182724116Y-92426653D01*
X182525388Y-92541388D01*
X182343342Y-92681078D01*
X182181078Y-92843342D01*
X182041388Y-93025388D01*
X181926653Y-93224116D01*
X181838841Y-93436114D01*
X181779452Y-93657761D01*
X181749500Y-93885265D01*
X181749500Y-94114734D01*
X181779452Y-94342238D01*
X181838841Y-94563885D01*
X181926653Y-94775883D01*
X182000419Y-94903651D01*
X182041389Y-94974612D01*
X182181081Y-95156661D01*
X182343339Y-95318919D01*
X182525388Y-95458611D01*
X182724112Y-95573344D01*
X182724113Y-95573344D01*
X182724116Y-95573346D01*
X182820167Y-95613131D01*
X182936113Y-95661158D01*
X183157762Y-95720548D01*
X183385266Y-95750500D01*
X183385267Y-95750500D01*
X184114733Y-95750500D01*
X184114734Y-95750500D01*
X184342238Y-95720548D01*
X184563887Y-95661158D01*
X184775888Y-95573344D01*
X184974612Y-95458611D01*
X185156661Y-95318919D01*
X185318919Y-95156661D01*
X185458611Y-94974612D01*
X185573344Y-94775888D01*
X185576467Y-94768346D01*
X185599968Y-94711614D01*
X185639705Y-94665088D01*
X185691432Y-94650500D01*
X194308568Y-94650500D01*
X194366759Y-94669407D01*
X194400032Y-94711614D01*
X194426653Y-94775883D01*
X194500419Y-94903651D01*
X194541389Y-94974612D01*
X194681081Y-95156661D01*
X194843339Y-95318919D01*
X195025388Y-95458611D01*
X195224112Y-95573344D01*
X195224113Y-95573344D01*
X195224116Y-95573346D01*
X195320167Y-95613131D01*
X195436113Y-95661158D01*
X195657762Y-95720548D01*
X195885266Y-95750500D01*
X195885267Y-95750500D01*
X196614733Y-95750500D01*
X196614734Y-95750500D01*
X196842238Y-95720548D01*
X197063887Y-95661158D01*
X197275888Y-95573344D01*
X197474612Y-95458611D01*
X197656661Y-95318919D01*
X197818919Y-95156661D01*
X197958611Y-94974612D01*
X198073344Y-94775888D01*
X198076467Y-94768346D01*
X198099968Y-94711614D01*
X198139705Y-94665088D01*
X198191432Y-94650500D01*
X199439546Y-94650500D01*
X199497737Y-94669407D01*
X199509550Y-94679496D01*
X200520504Y-95690450D01*
X200548281Y-95744967D01*
X200549500Y-95760454D01*
X200549500Y-96150016D01*
X200559999Y-96252788D01*
X200560002Y-96252800D01*
X200615187Y-96419336D01*
X200707285Y-96568652D01*
X200707286Y-96568653D01*
X200707288Y-96568656D01*
X200818630Y-96679998D01*
X200846406Y-96734513D01*
X200836835Y-96794945D01*
X200818631Y-96820000D01*
X200762943Y-96875689D01*
X200707285Y-96931347D01*
X200615187Y-97080663D01*
X200560000Y-97247205D01*
X200549500Y-97349983D01*
X200549500Y-97975016D01*
X200559999Y-98077788D01*
X200560002Y-98077800D01*
X200615187Y-98244336D01*
X200632206Y-98271929D01*
X200646662Y-98331382D01*
X200623411Y-98387978D01*
X200617949Y-98393905D01*
X198166352Y-100845504D01*
X198111835Y-100873281D01*
X198096348Y-100874500D01*
X195086255Y-100874500D01*
X195049987Y-100866458D01*
X195049808Y-100867000D01*
X195044503Y-100865242D01*
X195044412Y-100865222D01*
X195044337Y-100865187D01*
X194877794Y-100810000D01*
X194775016Y-100799500D01*
X193724983Y-100799500D01*
X193622211Y-100809999D01*
X193622199Y-100810002D01*
X193455662Y-100865187D01*
X193455588Y-100865222D01*
X193455496Y-100865242D01*
X193450192Y-100867000D01*
X193450012Y-100866458D01*
X193413745Y-100874500D01*
X184903652Y-100874500D01*
X184845461Y-100855593D01*
X184833648Y-100845504D01*
X179308102Y-95319958D01*
X179308099Y-95319955D01*
X179267249Y-95292660D01*
X179164712Y-95224145D01*
X179164700Y-95224139D01*
X179005374Y-95158145D01*
X178836231Y-95124500D01*
X178836229Y-95124500D01*
X167086229Y-95124500D01*
X166913771Y-95124500D01*
X166913768Y-95124500D01*
X166744626Y-95158145D01*
X166744624Y-95158145D01*
X166585299Y-95224139D01*
X166585287Y-95224145D01*
X166441901Y-95319955D01*
X166441897Y-95319958D01*
X156569958Y-105191897D01*
X156569955Y-105191901D01*
X156474145Y-105335287D01*
X156474139Y-105335299D01*
X156408145Y-105494624D01*
X156408145Y-105494626D01*
X156374500Y-105663768D01*
X156374500Y-122445500D01*
X156355593Y-122503691D01*
X156306093Y-122539655D01*
X156275500Y-122544500D01*
X153993768Y-122544500D01*
X153824626Y-122578145D01*
X153824624Y-122578145D01*
X153665299Y-122644139D01*
X153665287Y-122644145D01*
X153521901Y-122739955D01*
X153521897Y-122739958D01*
X151206352Y-125055504D01*
X151151835Y-125083281D01*
X151136348Y-125084500D01*
X150213219Y-125084500D01*
X150155028Y-125065593D01*
X150119064Y-125016093D01*
X150118149Y-124957881D01*
X150122598Y-124942569D01*
X150125500Y-124905694D01*
X150125500Y-124474306D01*
X150122598Y-124437431D01*
X150076744Y-124279602D01*
X149993081Y-124138135D01*
X149979947Y-124125001D01*
X149952172Y-124070487D01*
X149961743Y-124010055D01*
X149979946Y-123984999D01*
X149993081Y-123971865D01*
X150076744Y-123830398D01*
X150122598Y-123672569D01*
X150125500Y-123635694D01*
X150125500Y-123204306D01*
X150122598Y-123167431D01*
X150076744Y-123009602D01*
X149993081Y-122868135D01*
X149876865Y-122751919D01*
X149735398Y-122668256D01*
X149577569Y-122622402D01*
X149577568Y-122622401D01*
X149577565Y-122622401D01*
X149554140Y-122620558D01*
X149540694Y-122619500D01*
X147659306Y-122619500D01*
X147646773Y-122620486D01*
X147622434Y-122622401D01*
X147622427Y-122622403D01*
X147547612Y-122644139D01*
X147464602Y-122668256D01*
X147323135Y-122751919D01*
X147323133Y-122751920D01*
X147317774Y-122755090D01*
X147316331Y-122752651D01*
X147269712Y-122769450D01*
X147266575Y-122769500D01*
X140765930Y-122769500D01*
X140703093Y-122781999D01*
X140640256Y-122794499D01*
X140640255Y-122794499D01*
X140640252Y-122794500D01*
X140521873Y-122843534D01*
X140415333Y-122914721D01*
X138744720Y-124585334D01*
X138691712Y-124664669D01*
X138673534Y-124691873D01*
X138624500Y-124810252D01*
X138624499Y-124810257D01*
X138599500Y-124935930D01*
X138599500Y-127689546D01*
X138580593Y-127747737D01*
X138570504Y-127759550D01*
X137509550Y-128820504D01*
X137455033Y-128848281D01*
X137439546Y-128849500D01*
X134560452Y-128849500D01*
X134502261Y-128830593D01*
X134490448Y-128820503D01*
X134179496Y-128509550D01*
X134175870Y-128502433D01*
X134169407Y-128497738D01*
X134162242Y-128475688D01*
X134151719Y-128455034D01*
X134150500Y-128439547D01*
X134150500Y-128280825D01*
X134169407Y-128222634D01*
X134191307Y-128200733D01*
X134265787Y-128146621D01*
X134396621Y-128015787D01*
X134505378Y-127866096D01*
X134531998Y-127813851D01*
X134534618Y-127809759D01*
X134554691Y-127793286D01*
X134573049Y-127774929D01*
X134578023Y-127774141D01*
X134581917Y-127770946D01*
X134607838Y-127769418D01*
X134633481Y-127765357D01*
X134637968Y-127767643D01*
X134642996Y-127767347D01*
X134664863Y-127781346D01*
X134687998Y-127793134D01*
X134693226Y-127799505D01*
X134694526Y-127800337D01*
X134695087Y-127801773D01*
X134700310Y-127808136D01*
X134712094Y-127825771D01*
X135129532Y-127408332D01*
X135179920Y-127495606D01*
X135254394Y-127570080D01*
X135341665Y-127620465D01*
X134924227Y-128037904D01*
X135038164Y-128114034D01*
X135215604Y-128187532D01*
X135403968Y-128224999D01*
X135403972Y-128225000D01*
X135596028Y-128225000D01*
X135596031Y-128224999D01*
X135784395Y-128187532D01*
X135961834Y-128114034D01*
X136075771Y-128037904D01*
X135658333Y-127620466D01*
X135745606Y-127570080D01*
X135820080Y-127495606D01*
X135870466Y-127408333D01*
X136287904Y-127825771D01*
X136364034Y-127711834D01*
X136437532Y-127534395D01*
X136474999Y-127346031D01*
X136475000Y-127346028D01*
X136475000Y-127153971D01*
X136474999Y-127153968D01*
X136437532Y-126965604D01*
X136364034Y-126788164D01*
X136287904Y-126674227D01*
X135870465Y-127091665D01*
X135820080Y-127004394D01*
X135745606Y-126929920D01*
X135658332Y-126879532D01*
X136075771Y-126462094D01*
X135961835Y-126385965D01*
X135784395Y-126312467D01*
X135596031Y-126275000D01*
X135403968Y-126275000D01*
X135215604Y-126312467D01*
X135038164Y-126385965D01*
X134924227Y-126462094D01*
X135341666Y-126879533D01*
X135254394Y-126929920D01*
X135179920Y-127004394D01*
X135129533Y-127091666D01*
X134712094Y-126674227D01*
X134700310Y-126691863D01*
X134696359Y-126694977D01*
X134694526Y-126699662D01*
X134672653Y-126713665D01*
X134652260Y-126729742D01*
X134647233Y-126729939D01*
X134642997Y-126732652D01*
X134617072Y-126731124D01*
X134591122Y-126732144D01*
X134586938Y-126729348D01*
X134581917Y-126729053D01*
X134569067Y-126717407D01*
X134540248Y-126698151D01*
X134534618Y-126690240D01*
X134531995Y-126686143D01*
X134505378Y-126633904D01*
X134396621Y-126484213D01*
X134265787Y-126353379D01*
X134206707Y-126310454D01*
X134191308Y-126299266D01*
X134155345Y-126249766D01*
X134150500Y-126219174D01*
X134150500Y-124185932D01*
X134150500Y-124185931D01*
X134125501Y-124060256D01*
X134076465Y-123941873D01*
X134049060Y-123900858D01*
X134005276Y-123835330D01*
X123601535Y-113431589D01*
X146495500Y-113431589D01*
X146495500Y-113668410D01*
X146532544Y-113902300D01*
X146605725Y-114127527D01*
X146637427Y-114189747D01*
X146713236Y-114338530D01*
X146852432Y-114530116D01*
X147019884Y-114697568D01*
X147211470Y-114836764D01*
X147422473Y-114944275D01*
X147647695Y-115017454D01*
X147647696Y-115017454D01*
X147647699Y-115017455D01*
X147881590Y-115054500D01*
X147881593Y-115054500D01*
X148118410Y-115054500D01*
X148352300Y-115017455D01*
X148352301Y-115017454D01*
X148352305Y-115017454D01*
X148577527Y-114944275D01*
X148788530Y-114836764D01*
X148980116Y-114697568D01*
X149147568Y-114530116D01*
X149286764Y-114338530D01*
X149394275Y-114127527D01*
X149467454Y-113902305D01*
X149467455Y-113902300D01*
X149504500Y-113668410D01*
X149504500Y-113431589D01*
X149467455Y-113197699D01*
X149464150Y-113187527D01*
X149394275Y-112972473D01*
X149286764Y-112761470D01*
X149147568Y-112569884D01*
X148980116Y-112402432D01*
X148788530Y-112263236D01*
X148788529Y-112263235D01*
X148788527Y-112263234D01*
X148577527Y-112155725D01*
X148352300Y-112082544D01*
X148118410Y-112045500D01*
X148118407Y-112045500D01*
X147881593Y-112045500D01*
X147881590Y-112045500D01*
X147647699Y-112082544D01*
X147422472Y-112155725D01*
X147211472Y-112263234D01*
X147019885Y-112402431D01*
X146852431Y-112569885D01*
X146713234Y-112761472D01*
X146605725Y-112972472D01*
X146532544Y-113197699D01*
X146495500Y-113431589D01*
X123601535Y-113431589D01*
X121179496Y-111009550D01*
X121151719Y-110955033D01*
X121150500Y-110939546D01*
X121150500Y-110848572D01*
X121169407Y-110790381D01*
X121218907Y-110754417D01*
X121280093Y-110754417D01*
X121328752Y-110789242D01*
X121342454Y-110807546D01*
X121342457Y-110807548D01*
X121342458Y-110807549D01*
X121457670Y-110893797D01*
X121592511Y-110944089D01*
X121592512Y-110944089D01*
X121592517Y-110944091D01*
X121652127Y-110950500D01*
X123347872Y-110950499D01*
X123407483Y-110944091D01*
X123474907Y-110918943D01*
X123542329Y-110893797D01*
X123542329Y-110893796D01*
X123542331Y-110893796D01*
X123657546Y-110807546D01*
X123743796Y-110692331D01*
X123746037Y-110686324D01*
X123794089Y-110557488D01*
X123794088Y-110557488D01*
X123794091Y-110557483D01*
X123800500Y-110497873D01*
X123800499Y-108802128D01*
X123794091Y-108742517D01*
X123793455Y-108740812D01*
X123743797Y-108607670D01*
X123657549Y-108492458D01*
X123657547Y-108492456D01*
X123657546Y-108492454D01*
X123592696Y-108443907D01*
X123542329Y-108406202D01*
X123407488Y-108355910D01*
X123407483Y-108355909D01*
X123407481Y-108355908D01*
X123407477Y-108355908D01*
X123376249Y-108352550D01*
X123347873Y-108349500D01*
X123347870Y-108349500D01*
X121652133Y-108349500D01*
X121652129Y-108349500D01*
X121652128Y-108349501D01*
X121644949Y-108350272D01*
X121592519Y-108355908D01*
X121592514Y-108355909D01*
X121457670Y-108406202D01*
X121342458Y-108492450D01*
X121342452Y-108492456D01*
X121322331Y-108519334D01*
X121272322Y-108554586D01*
X121211142Y-108553710D01*
X121184890Y-108540096D01*
X121181610Y-108537713D01*
X120999219Y-108444780D01*
X120943430Y-108426653D01*
X120804529Y-108381521D01*
X120602355Y-108349500D01*
X120602352Y-108349500D01*
X120397648Y-108349500D01*
X120397645Y-108349500D01*
X120195470Y-108381521D01*
X120000780Y-108444780D01*
X119818390Y-108537712D01*
X119818386Y-108537714D01*
X119652786Y-108658029D01*
X119652781Y-108658033D01*
X119652781Y-108658034D01*
X119570001Y-108740813D01*
X119515487Y-108768589D01*
X119455055Y-108759018D01*
X119429999Y-108740814D01*
X119347219Y-108658034D01*
X119347215Y-108658031D01*
X119347213Y-108658029D01*
X119181613Y-108537714D01*
X119181609Y-108537712D01*
X118999219Y-108444780D01*
X118804529Y-108381521D01*
X118602355Y-108349500D01*
X118602352Y-108349500D01*
X118397648Y-108349500D01*
X118397645Y-108349500D01*
X118195470Y-108381521D01*
X118000780Y-108444780D01*
X117818390Y-108537712D01*
X117818386Y-108537714D01*
X117652786Y-108658029D01*
X117508029Y-108802786D01*
X117387714Y-108968387D01*
X117385685Y-108971700D01*
X117385176Y-108971388D01*
X117370364Y-108991766D01*
X116943670Y-109418460D01*
X116900099Y-109342993D01*
X116807007Y-109249901D01*
X116731536Y-109206328D01*
X117164646Y-108773219D01*
X117076528Y-108709197D01*
X117076524Y-108709195D01*
X116922248Y-108630588D01*
X116757579Y-108577084D01*
X116586575Y-108550000D01*
X116413425Y-108550000D01*
X116242420Y-108577084D01*
X116077751Y-108630588D01*
X115923476Y-108709195D01*
X115835352Y-108773219D01*
X116268461Y-109206328D01*
X116192993Y-109249901D01*
X116099901Y-109342993D01*
X116056328Y-109418461D01*
X115629637Y-108991770D01*
X115624495Y-108981679D01*
X115615280Y-108971115D01*
X115614319Y-108971705D01*
X115612292Y-108968397D01*
X115612284Y-108968386D01*
X115521015Y-108842765D01*
X115491970Y-108802786D01*
X115491968Y-108802784D01*
X115491966Y-108802781D01*
X115347219Y-108658034D01*
X115347215Y-108658031D01*
X115347213Y-108658029D01*
X115181613Y-108537714D01*
X115181609Y-108537712D01*
X114999219Y-108444780D01*
X114804529Y-108381521D01*
X114602355Y-108349500D01*
X114602352Y-108349500D01*
X114397648Y-108349500D01*
X114397645Y-108349500D01*
X114195470Y-108381521D01*
X114000780Y-108444780D01*
X113818390Y-108537712D01*
X113818386Y-108537714D01*
X113652786Y-108658029D01*
X113652781Y-108658033D01*
X113652781Y-108658034D01*
X113570001Y-108740813D01*
X113515487Y-108768589D01*
X113455055Y-108759018D01*
X113429999Y-108740814D01*
X113347219Y-108658034D01*
X113347215Y-108658031D01*
X113347213Y-108658029D01*
X113181613Y-108537714D01*
X113181609Y-108537712D01*
X112999219Y-108444780D01*
X112804529Y-108381521D01*
X112602355Y-108349500D01*
X112602352Y-108349500D01*
X112397648Y-108349500D01*
X112397645Y-108349500D01*
X112195470Y-108381521D01*
X112000780Y-108444780D01*
X111818390Y-108537712D01*
X111818386Y-108537714D01*
X111652786Y-108658029D01*
X111652781Y-108658033D01*
X111652781Y-108658034D01*
X111570001Y-108740813D01*
X111515487Y-108768589D01*
X111455055Y-108759018D01*
X111429999Y-108740814D01*
X111347219Y-108658034D01*
X111347215Y-108658031D01*
X111347213Y-108658029D01*
X111181613Y-108537714D01*
X111181609Y-108537712D01*
X110999219Y-108444780D01*
X110804529Y-108381521D01*
X110602355Y-108349500D01*
X110602352Y-108349500D01*
X110397648Y-108349500D01*
X110397645Y-108349500D01*
X110195470Y-108381521D01*
X110000780Y-108444780D01*
X109818390Y-108537712D01*
X109818386Y-108537714D01*
X109652786Y-108658029D01*
X109652781Y-108658033D01*
X109652781Y-108658034D01*
X109570001Y-108740813D01*
X109515487Y-108768589D01*
X109455055Y-108759018D01*
X109429999Y-108740814D01*
X109347219Y-108658034D01*
X109347215Y-108658031D01*
X109347213Y-108658029D01*
X109181613Y-108537714D01*
X109181609Y-108537712D01*
X108999219Y-108444780D01*
X108804529Y-108381521D01*
X108602355Y-108349500D01*
X108602352Y-108349500D01*
X108397648Y-108349500D01*
X108397645Y-108349500D01*
X108195470Y-108381521D01*
X108000780Y-108444780D01*
X107818390Y-108537712D01*
X107818386Y-108537714D01*
X107652786Y-108658029D01*
X107508029Y-108802786D01*
X107387714Y-108968386D01*
X107387712Y-108968390D01*
X107294780Y-109150780D01*
X107231521Y-109345470D01*
X107199500Y-109547644D01*
X107199500Y-109752355D01*
X107231521Y-109954529D01*
X107294780Y-110149219D01*
X107387712Y-110331609D01*
X107387714Y-110331613D01*
X107508029Y-110497213D01*
X107508031Y-110497215D01*
X107508034Y-110497219D01*
X107595505Y-110584690D01*
X107623281Y-110639205D01*
X107624500Y-110654692D01*
X107624500Y-111081425D01*
X107609761Y-111133397D01*
X107565187Y-111205663D01*
X107510001Y-111372203D01*
X107499500Y-111474983D01*
X107499500Y-112525016D01*
X107509999Y-112627788D01*
X107510000Y-112627793D01*
X107510001Y-112627797D01*
X107565186Y-112794334D01*
X107565187Y-112794336D01*
X107657285Y-112943652D01*
X107657286Y-112943653D01*
X107657288Y-112943656D01*
X107781344Y-113067712D01*
X107930666Y-113159814D01*
X108097203Y-113214999D01*
X108199991Y-113225500D01*
X108800008Y-113225499D01*
X108800016Y-113225499D01*
X108902788Y-113215000D01*
X108902788Y-113214999D01*
X108902797Y-113214999D01*
X109069334Y-113159814D01*
X109218656Y-113067712D01*
X109342712Y-112943656D01*
X109365739Y-112906322D01*
X109412380Y-112866722D01*
X109473390Y-112862098D01*
X109525466Y-112894218D01*
X109534261Y-112906323D01*
X109557285Y-112943652D01*
X109557286Y-112943653D01*
X109557288Y-112943656D01*
X109681344Y-113067712D01*
X109830666Y-113159814D01*
X109997203Y-113214999D01*
X110099991Y-113225500D01*
X110700008Y-113225499D01*
X110700016Y-113225499D01*
X110802788Y-113215000D01*
X110802788Y-113214999D01*
X110802797Y-113214999D01*
X110969334Y-113159814D01*
X111118656Y-113067712D01*
X111242712Y-112943656D01*
X111308973Y-112836229D01*
X111316066Y-112824730D01*
X111362707Y-112785128D01*
X111423717Y-112780505D01*
X111470328Y-112806696D01*
X111556344Y-112892712D01*
X111556346Y-112892713D01*
X111556347Y-112892714D01*
X111565728Y-112898500D01*
X111705666Y-112984814D01*
X111790797Y-113013023D01*
X111840085Y-113049273D01*
X111858653Y-113107573D01*
X111839408Y-113165653D01*
X111795975Y-113199094D01*
X111752906Y-113216078D01*
X111632435Y-113307435D01*
X111541080Y-113427904D01*
X111485613Y-113568556D01*
X111475000Y-113656935D01*
X111475000Y-113799999D01*
X111475001Y-113800000D01*
X112401000Y-113800000D01*
X112459191Y-113818907D01*
X112495155Y-113868407D01*
X112500000Y-113899000D01*
X112500000Y-113949999D01*
X112500001Y-113950000D01*
X112551000Y-113950000D01*
X112609191Y-113968907D01*
X112645155Y-114018407D01*
X112650000Y-114049000D01*
X112650000Y-114749999D01*
X112650001Y-114750000D01*
X113018058Y-114750000D01*
X113018064Y-114749999D01*
X113106443Y-114739386D01*
X113247095Y-114683919D01*
X113367564Y-114592564D01*
X113446616Y-114488320D01*
X113496843Y-114453378D01*
X113558015Y-114454632D01*
X113606768Y-114491603D01*
X113624500Y-114548140D01*
X113624500Y-118575500D01*
X113605593Y-118633691D01*
X113556093Y-118669655D01*
X113525500Y-118674500D01*
X106453652Y-118674500D01*
X106395461Y-118655593D01*
X106383648Y-118645504D01*
X101838145Y-114100001D01*
X111475000Y-114100001D01*
X111475000Y-114243064D01*
X111485613Y-114331443D01*
X111541080Y-114472095D01*
X111632435Y-114592564D01*
X111752904Y-114683919D01*
X111893556Y-114739386D01*
X111981935Y-114749999D01*
X111981942Y-114750000D01*
X112349999Y-114750000D01*
X112350000Y-114749999D01*
X112350000Y-114100001D01*
X112349999Y-114100000D01*
X111475001Y-114100000D01*
X111475000Y-114100001D01*
X101838145Y-114100001D01*
X85058102Y-97319958D01*
X85058099Y-97319955D01*
X85017249Y-97292660D01*
X84914712Y-97224145D01*
X84914700Y-97224139D01*
X84755374Y-97158145D01*
X84586231Y-97124500D01*
X84586229Y-97124500D01*
X78440554Y-97124500D01*
X78382363Y-97105593D01*
X78346399Y-97056093D01*
X78342773Y-97040987D01*
X78323880Y-96921711D01*
X78316015Y-96872049D01*
X78247895Y-96662394D01*
X78147815Y-96465978D01*
X78018242Y-96287635D01*
X77862365Y-96131758D01*
X77684022Y-96002185D01*
X77684021Y-96002184D01*
X77684019Y-96002183D01*
X77581602Y-95949999D01*
X77487606Y-95902105D01*
X77487602Y-95902104D01*
X77487599Y-95902102D01*
X77277948Y-95833984D01*
X77060225Y-95799500D01*
X77060222Y-95799500D01*
X76839778Y-95799500D01*
X76839775Y-95799500D01*
X76622051Y-95833984D01*
X76412400Y-95902102D01*
X76215980Y-96002183D01*
X76126806Y-96066971D01*
X76037635Y-96131758D01*
X75881758Y-96287635D01*
X75816971Y-96376806D01*
X75752183Y-96465980D01*
X75652102Y-96662400D01*
X75583984Y-96872051D01*
X75557227Y-97040987D01*
X75529449Y-97095504D01*
X75474933Y-97123281D01*
X75459446Y-97124500D01*
X74668574Y-97124500D01*
X74626988Y-97115342D01*
X74621628Y-97112861D01*
X74544334Y-97065186D01*
X74453861Y-97035206D01*
X74448758Y-97032844D01*
X74430246Y-97015679D01*
X74409914Y-97000725D01*
X74408151Y-96995191D01*
X74403893Y-96991243D01*
X74399006Y-96966476D01*
X74391346Y-96942426D01*
X74393172Y-96936913D01*
X74392048Y-96931214D01*
X74402651Y-96908306D01*
X74410591Y-96884346D01*
X74415488Y-96880575D01*
X74417750Y-96875689D01*
X74432590Y-96867408D01*
X74454026Y-96850904D01*
X74497094Y-96833920D01*
X74617564Y-96742564D01*
X74708919Y-96622095D01*
X74764386Y-96481443D01*
X74774999Y-96393064D01*
X74775000Y-96393058D01*
X74775000Y-96250001D01*
X74774999Y-96250000D01*
X72725001Y-96250000D01*
X72725000Y-96250001D01*
X72725000Y-96393064D01*
X72735613Y-96481443D01*
X72791080Y-96622095D01*
X72882435Y-96742564D01*
X73002905Y-96833920D01*
X73045973Y-96850904D01*
X73093171Y-96889841D01*
X73108468Y-96949083D01*
X73086022Y-97006002D01*
X73040796Y-97036976D01*
X73028694Y-97040987D01*
X72955662Y-97065187D01*
X72806347Y-97157285D01*
X72682285Y-97281347D01*
X72590187Y-97430663D01*
X72535000Y-97597205D01*
X72524500Y-97699983D01*
X72524500Y-98300016D01*
X72534999Y-98402788D01*
X72535000Y-98402795D01*
X72535001Y-98402797D01*
X72581900Y-98544330D01*
X72590187Y-98569336D01*
X72682285Y-98718652D01*
X72682286Y-98718653D01*
X72682288Y-98718656D01*
X72806344Y-98842712D01*
X72955666Y-98934814D01*
X73122203Y-98989999D01*
X73224991Y-99000500D01*
X74275008Y-99000499D01*
X74275016Y-99000499D01*
X74377788Y-98990000D01*
X74377788Y-98989999D01*
X74377797Y-98989999D01*
X74544334Y-98934814D01*
X74616602Y-98890238D01*
X74668574Y-98875500D01*
X75459446Y-98875500D01*
X75517637Y-98894407D01*
X75553601Y-98943907D01*
X75557227Y-98959013D01*
X75583984Y-99127948D01*
X75652102Y-99337599D01*
X75652104Y-99337602D01*
X75652105Y-99337606D01*
X75752185Y-99534022D01*
X75881758Y-99712365D01*
X76037635Y-99868242D01*
X76215978Y-99997815D01*
X76412394Y-100097895D01*
X76622049Y-100166015D01*
X76709140Y-100179809D01*
X76839775Y-100200500D01*
X76839778Y-100200500D01*
X77060225Y-100200500D01*
X77169086Y-100183257D01*
X77277951Y-100166015D01*
X77487606Y-100097895D01*
X77684022Y-99997815D01*
X77862365Y-99868242D01*
X78018242Y-99712365D01*
X78147815Y-99534022D01*
X78247895Y-99337606D01*
X78316015Y-99127951D01*
X78327079Y-99058098D01*
X78342773Y-98959013D01*
X78370551Y-98904496D01*
X78425067Y-98876719D01*
X78440554Y-98875500D01*
X84096348Y-98875500D01*
X84154539Y-98894407D01*
X84166352Y-98904496D01*
X105491901Y-120230045D01*
X105553034Y-120270893D01*
X105635287Y-120325854D01*
X105635299Y-120325860D01*
X105694153Y-120350238D01*
X105794626Y-120391855D01*
X105963771Y-120425500D01*
X106136229Y-120425500D01*
X114413771Y-120425500D01*
X116146348Y-120425500D01*
X116204539Y-120444407D01*
X116216352Y-120454496D01*
X118816852Y-123054996D01*
X118823970Y-123068967D01*
X118835058Y-123080055D01*
X118837510Y-123095542D01*
X118844629Y-123109513D01*
X118842176Y-123125000D01*
X118844629Y-123140487D01*
X118837510Y-123154457D01*
X118835058Y-123169945D01*
X118816852Y-123195004D01*
X118691901Y-123319955D01*
X116947322Y-125064532D01*
X116892805Y-125092309D01*
X116851698Y-125090155D01*
X116641116Y-125033730D01*
X116641109Y-125033729D01*
X116381120Y-124999500D01*
X116118880Y-124999500D01*
X116118879Y-124999500D01*
X115858889Y-125033729D01*
X115858886Y-125033729D01*
X115858884Y-125033730D01*
X115673956Y-125083281D01*
X115605588Y-125101600D01*
X115605575Y-125101604D01*
X115363310Y-125201953D01*
X115136197Y-125333075D01*
X114982210Y-125451235D01*
X114928149Y-125492718D01*
X114804772Y-125616095D01*
X114742715Y-125678152D01*
X114583075Y-125886197D01*
X114451953Y-126113310D01*
X114352514Y-126353379D01*
X114351602Y-126355581D01*
X114287451Y-126595000D01*
X114283729Y-126608889D01*
X114249500Y-126868879D01*
X114249500Y-127131120D01*
X114272803Y-127308124D01*
X114283730Y-127391116D01*
X114350524Y-127640397D01*
X114351600Y-127644411D01*
X114351604Y-127644424D01*
X114451953Y-127886689D01*
X114451955Y-127886693D01*
X114451957Y-127886697D01*
X114501052Y-127971732D01*
X114583075Y-128113802D01*
X114668400Y-128224999D01*
X114742718Y-128321851D01*
X114928149Y-128507282D01*
X115136197Y-128666924D01*
X115363303Y-128798043D01*
X115605581Y-128898398D01*
X115858884Y-128966270D01*
X116118880Y-129000500D01*
X116118881Y-129000500D01*
X116381119Y-129000500D01*
X116381120Y-129000500D01*
X116641116Y-128966270D01*
X116894419Y-128898398D01*
X117136697Y-128798043D01*
X117363803Y-128666924D01*
X117571851Y-128507282D01*
X117757282Y-128321851D01*
X117916924Y-128113803D01*
X118048043Y-127886697D01*
X118148398Y-127644419D01*
X118216270Y-127391116D01*
X118250500Y-127131120D01*
X118250500Y-126868880D01*
X118216270Y-126608884D01*
X118159844Y-126398298D01*
X118163047Y-126337201D01*
X118185465Y-126302677D01*
X119930045Y-124558099D01*
X120054996Y-124433148D01*
X120109513Y-124405371D01*
X120169945Y-124414942D01*
X120195004Y-124433148D01*
X123569955Y-127808099D01*
X123691901Y-127930045D01*
X123746873Y-127966776D01*
X123835287Y-128025854D01*
X123835299Y-128025860D01*
X123894153Y-128050238D01*
X123994626Y-128091855D01*
X124163771Y-128125500D01*
X126300334Y-128125500D01*
X126358525Y-128144407D01*
X126379587Y-128165171D01*
X126466165Y-128280825D01*
X126467454Y-128282546D01*
X126467457Y-128282548D01*
X126467458Y-128282549D01*
X126584829Y-128370413D01*
X126620082Y-128420421D01*
X126624500Y-128449666D01*
X126624500Y-136836231D01*
X126658145Y-137005373D01*
X126658145Y-137005375D01*
X126724139Y-137164700D01*
X126724145Y-137164712D01*
X126792660Y-137267249D01*
X126819955Y-137308099D01*
X127569955Y-138058099D01*
X127691901Y-138180045D01*
X127753034Y-138220893D01*
X127835287Y-138275854D01*
X127835299Y-138275860D01*
X127894153Y-138300238D01*
X127994626Y-138341855D01*
X128163771Y-138375500D01*
X128163772Y-138375500D01*
X150586228Y-138375500D01*
X150586229Y-138375500D01*
X150755374Y-138341855D01*
X150914705Y-138275858D01*
X150914707Y-138275856D01*
X150914712Y-138275854D01*
X150956115Y-138248188D01*
X151058099Y-138180045D01*
X152220045Y-137018099D01*
X152288188Y-136916115D01*
X152315854Y-136874712D01*
X152315860Y-136874700D01*
X152331795Y-136836229D01*
X152381855Y-136715374D01*
X152415500Y-136546229D01*
X152415500Y-136373771D01*
X152415500Y-126363652D01*
X152434407Y-126305461D01*
X152444496Y-126293648D01*
X154413648Y-124324496D01*
X154468165Y-124296719D01*
X154483652Y-124295500D01*
X156286781Y-124295500D01*
X156344972Y-124314407D01*
X156380936Y-124363907D01*
X156381850Y-124422117D01*
X156377402Y-124437431D01*
X156377402Y-124437433D01*
X156377401Y-124437434D01*
X156374500Y-124474311D01*
X156374500Y-124905688D01*
X156377401Y-124942565D01*
X156377401Y-124942568D01*
X156377402Y-124942569D01*
X156423256Y-125100398D01*
X156506919Y-125241865D01*
X156517317Y-125252263D01*
X156520052Y-125254998D01*
X156547828Y-125309516D01*
X156538254Y-125369948D01*
X156520052Y-125395002D01*
X156506919Y-125408135D01*
X156423256Y-125549602D01*
X156377403Y-125707427D01*
X156377401Y-125707434D01*
X156374500Y-125744311D01*
X156374500Y-126175688D01*
X156377401Y-126212565D01*
X156377401Y-126212568D01*
X156377402Y-126212569D01*
X156423256Y-126370398D01*
X156506919Y-126511865D01*
X156520052Y-126524998D01*
X156547828Y-126579516D01*
X156538254Y-126639948D01*
X156520052Y-126665002D01*
X156506919Y-126678135D01*
X156423256Y-126819602D01*
X156377403Y-126977427D01*
X156377401Y-126977434D01*
X156374500Y-127014311D01*
X156374500Y-127445688D01*
X156377401Y-127482565D01*
X156377401Y-127482568D01*
X156377402Y-127482569D01*
X156423256Y-127640398D01*
X156506919Y-127781865D01*
X156518188Y-127793134D01*
X156520052Y-127794998D01*
X156525021Y-127804752D01*
X156533475Y-127811703D01*
X156538592Y-127831388D01*
X156547828Y-127849516D01*
X156546115Y-127860327D01*
X156548869Y-127870920D01*
X156542026Y-127886136D01*
X156538254Y-127909948D01*
X156526516Y-127927876D01*
X156523453Y-127931600D01*
X156506919Y-127948135D01*
X156499387Y-127960870D01*
X156494531Y-127966776D01*
X156486772Y-127971732D01*
X156473067Y-127986213D01*
X156460334Y-127994721D01*
X153994718Y-130460337D01*
X153945018Y-130534722D01*
X153945018Y-130534723D01*
X153923534Y-130566875D01*
X153874499Y-130685255D01*
X153849500Y-130810931D01*
X153849500Y-137689546D01*
X153830593Y-137747737D01*
X153820504Y-137759550D01*
X152509550Y-139070504D01*
X152455033Y-139098281D01*
X152439546Y-139099500D01*
X105810454Y-139099500D01*
X105752263Y-139080593D01*
X105740450Y-139070504D01*
X95580343Y-128910397D01*
X85414669Y-118744723D01*
X85414665Y-118744720D01*
X85308126Y-118673534D01*
X85189747Y-118624500D01*
X85189745Y-118624499D01*
X85189744Y-118624499D01*
X85064069Y-118599500D01*
X81720680Y-118599500D01*
X81662489Y-118580593D01*
X81626705Y-118531640D01*
X81616386Y-118500500D01*
X81609814Y-118480666D01*
X81544948Y-118375501D01*
X81517714Y-118331347D01*
X81517713Y-118331346D01*
X81517712Y-118331344D01*
X81393656Y-118207288D01*
X81393653Y-118207286D01*
X81393652Y-118207285D01*
X81244336Y-118115187D01*
X81244335Y-118115186D01*
X81244334Y-118115186D01*
X81077797Y-118060001D01*
X81077794Y-118060000D01*
X80975016Y-118049500D01*
X80349983Y-118049500D01*
X80247211Y-118059999D01*
X80247199Y-118060002D01*
X80080663Y-118115187D01*
X79931347Y-118207285D01*
X79931344Y-118207287D01*
X79931344Y-118207288D01*
X79820001Y-118318630D01*
X79765487Y-118346406D01*
X79705055Y-118336835D01*
X79679999Y-118318631D01*
X79568656Y-118207288D01*
X79568653Y-118207286D01*
X79568652Y-118207285D01*
X79419336Y-118115187D01*
X79419335Y-118115186D01*
X79419334Y-118115186D01*
X79252797Y-118060001D01*
X79252794Y-118060000D01*
X79150016Y-118049500D01*
X78524983Y-118049500D01*
X78422211Y-118059999D01*
X78422199Y-118060002D01*
X78255663Y-118115187D01*
X78106347Y-118207285D01*
X77982285Y-118331347D01*
X77890188Y-118480661D01*
X77890185Y-118480667D01*
X77873295Y-118531640D01*
X77837044Y-118580930D01*
X77779320Y-118599500D01*
X76897440Y-118599500D01*
X76839249Y-118580593D01*
X76803285Y-118531093D01*
X76803285Y-118469907D01*
X76839249Y-118420407D01*
X76847045Y-118415287D01*
X76914320Y-118375500D01*
X76926865Y-118368081D01*
X77043081Y-118251865D01*
X77126744Y-118110398D01*
X77172598Y-117952569D01*
X77175500Y-117915694D01*
X77175500Y-117484306D01*
X77172598Y-117447431D01*
X77126744Y-117289602D01*
X77043081Y-117148135D01*
X76926865Y-117031919D01*
X76785398Y-116948256D01*
X76627569Y-116902402D01*
X76627568Y-116902401D01*
X76627565Y-116902401D01*
X76604140Y-116900558D01*
X76590694Y-116899500D01*
X76590689Y-116899500D01*
X75399500Y-116899500D01*
X75341309Y-116880593D01*
X75305345Y-116831093D01*
X75300500Y-116800500D01*
X75300500Y-116534313D01*
X75300500Y-116534306D01*
X75298332Y-116506764D01*
X75312616Y-116447272D01*
X75359141Y-116407535D01*
X75397027Y-116399999D01*
X75787499Y-116399999D01*
X75787500Y-116399998D01*
X75787500Y-115950001D01*
X76087500Y-115950001D01*
X76087500Y-116399998D01*
X76087501Y-116399999D01*
X76579203Y-116399999D01*
X76609600Y-116397149D01*
X76609602Y-116397149D01*
X76737647Y-116352345D01*
X76846790Y-116271792D01*
X76846792Y-116271790D01*
X76927345Y-116162647D01*
X76972149Y-116034601D01*
X76974999Y-116004211D01*
X76975000Y-116004210D01*
X76975000Y-115950001D01*
X76974999Y-115950000D01*
X76087501Y-115950000D01*
X76087500Y-115950001D01*
X75787500Y-115950001D01*
X75787499Y-115950000D01*
X74893890Y-115950000D01*
X74851830Y-115971429D01*
X74808725Y-115968717D01*
X74752572Y-115952403D01*
X74752569Y-115952402D01*
X74752568Y-115952401D01*
X74752565Y-115952401D01*
X74729140Y-115950558D01*
X74715694Y-115949500D01*
X74715689Y-115949500D01*
X74541152Y-115949500D01*
X74482961Y-115930593D01*
X74471148Y-115920504D01*
X74146432Y-115595788D01*
X74900000Y-115595788D01*
X74900000Y-115649999D01*
X74900001Y-115650000D01*
X75787499Y-115650000D01*
X75787500Y-115649999D01*
X75787500Y-115200001D01*
X76087500Y-115200001D01*
X76087500Y-115649999D01*
X76087501Y-115650000D01*
X76974998Y-115650000D01*
X76974999Y-115649999D01*
X76974999Y-115595796D01*
X76972149Y-115565399D01*
X76972149Y-115565397D01*
X76927345Y-115437352D01*
X76846792Y-115328209D01*
X76846790Y-115328207D01*
X76737647Y-115247654D01*
X76609601Y-115202850D01*
X76579211Y-115200000D01*
X76087501Y-115200000D01*
X76087500Y-115200001D01*
X75787500Y-115200001D01*
X75787499Y-115200000D01*
X75295796Y-115200000D01*
X75265399Y-115202850D01*
X75265397Y-115202850D01*
X75137352Y-115247654D01*
X75028209Y-115328207D01*
X75028207Y-115328209D01*
X74947654Y-115437352D01*
X74902850Y-115565398D01*
X74900000Y-115595788D01*
X74146432Y-115595788D01*
X73991996Y-115441352D01*
X73964219Y-115386835D01*
X73963000Y-115371348D01*
X73963000Y-113431589D01*
X81495500Y-113431589D01*
X81495500Y-113668410D01*
X81532544Y-113902300D01*
X81605725Y-114127527D01*
X81637427Y-114189747D01*
X81713236Y-114338530D01*
X81852432Y-114530116D01*
X82019884Y-114697568D01*
X82211470Y-114836764D01*
X82422473Y-114944275D01*
X82647695Y-115017454D01*
X82647696Y-115017454D01*
X82647699Y-115017455D01*
X82881590Y-115054500D01*
X82881593Y-115054500D01*
X83118410Y-115054500D01*
X83352300Y-115017455D01*
X83352301Y-115017454D01*
X83352305Y-115017454D01*
X83577527Y-114944275D01*
X83788530Y-114836764D01*
X83980116Y-114697568D01*
X84147568Y-114530116D01*
X84286764Y-114338530D01*
X84394275Y-114127527D01*
X84467454Y-113902305D01*
X84467455Y-113902300D01*
X84504500Y-113668410D01*
X84504500Y-113431589D01*
X84467455Y-113197699D01*
X84464150Y-113187527D01*
X84394275Y-112972473D01*
X84286764Y-112761470D01*
X84147568Y-112569884D01*
X83980116Y-112402432D01*
X83788530Y-112263236D01*
X83788529Y-112263235D01*
X83788527Y-112263234D01*
X83577527Y-112155725D01*
X83352300Y-112082544D01*
X83118410Y-112045500D01*
X83118407Y-112045500D01*
X82881593Y-112045500D01*
X82881590Y-112045500D01*
X82647699Y-112082544D01*
X82422472Y-112155725D01*
X82211472Y-112263234D01*
X82019885Y-112402431D01*
X81852431Y-112569885D01*
X81713234Y-112761472D01*
X81605725Y-112972472D01*
X81532544Y-113197699D01*
X81495500Y-113431589D01*
X73963000Y-113431589D01*
X73963000Y-108413839D01*
X73977739Y-108361867D01*
X73981415Y-108355908D01*
X74033913Y-108270793D01*
X74080554Y-108231192D01*
X74141565Y-108226569D01*
X74193641Y-108258689D01*
X74197057Y-108262946D01*
X74257430Y-108342559D01*
X74257435Y-108342564D01*
X74377904Y-108433919D01*
X74518556Y-108489386D01*
X74606935Y-108499999D01*
X74606942Y-108500000D01*
X74762499Y-108500000D01*
X74762500Y-108499999D01*
X74762500Y-107650001D01*
X75062500Y-107650001D01*
X75062500Y-108499999D01*
X75062501Y-108500000D01*
X75218058Y-108500000D01*
X75218064Y-108499999D01*
X75306443Y-108489386D01*
X75447095Y-108433919D01*
X75567564Y-108342564D01*
X75658919Y-108222095D01*
X75714386Y-108081443D01*
X75724999Y-107993064D01*
X75725000Y-107993058D01*
X75725000Y-107650001D01*
X75724999Y-107650000D01*
X75062501Y-107650000D01*
X75062500Y-107650001D01*
X74762500Y-107650001D01*
X74762500Y-106500001D01*
X75062500Y-106500001D01*
X75062500Y-107349999D01*
X75062501Y-107350000D01*
X75724999Y-107350000D01*
X75725000Y-107349999D01*
X75725000Y-107006941D01*
X75724999Y-107006935D01*
X75714386Y-106918556D01*
X75658919Y-106777904D01*
X75567564Y-106657435D01*
X75447095Y-106566080D01*
X75306443Y-106510613D01*
X75218064Y-106500000D01*
X75062501Y-106500000D01*
X75062500Y-106500001D01*
X74762500Y-106500001D01*
X74762499Y-106500000D01*
X74606935Y-106500000D01*
X74518556Y-106510613D01*
X74377904Y-106566080D01*
X74257435Y-106657435D01*
X74257430Y-106657440D01*
X74197057Y-106737053D01*
X74146830Y-106771995D01*
X74085658Y-106770741D01*
X74036905Y-106733770D01*
X74033913Y-106729205D01*
X73942714Y-106581347D01*
X73942713Y-106581346D01*
X73942712Y-106581344D01*
X73818656Y-106457288D01*
X73818653Y-106457286D01*
X73818652Y-106457285D01*
X73669336Y-106365187D01*
X73669335Y-106365186D01*
X73669334Y-106365186D01*
X73502797Y-106310001D01*
X73502794Y-106310000D01*
X73400016Y-106299500D01*
X72774983Y-106299500D01*
X72672211Y-106309999D01*
X72672199Y-106310002D01*
X72505663Y-106365187D01*
X72356347Y-106457285D01*
X72232287Y-106581345D01*
X72228715Y-106585864D01*
X72226684Y-106584258D01*
X72188036Y-106617074D01*
X72150416Y-106624500D01*
X71653652Y-106624500D01*
X71595461Y-106605593D01*
X71583648Y-106595504D01*
X71154496Y-106166352D01*
X71126719Y-106111835D01*
X71125500Y-106096348D01*
X71125500Y-95806935D01*
X72725000Y-95806935D01*
X72725000Y-95949999D01*
X72725001Y-95950000D01*
X73599999Y-95950000D01*
X73600000Y-95949999D01*
X73600000Y-95300001D01*
X73900000Y-95300001D01*
X73900000Y-95949999D01*
X73900001Y-95950000D01*
X74774999Y-95950000D01*
X74775000Y-95949999D01*
X74775000Y-95806941D01*
X74774999Y-95806935D01*
X74764386Y-95718556D01*
X74708919Y-95577904D01*
X74617564Y-95457435D01*
X74497095Y-95366080D01*
X74356443Y-95310613D01*
X74268064Y-95300000D01*
X73900001Y-95300000D01*
X73900000Y-95300001D01*
X73600000Y-95300001D01*
X73599999Y-95300000D01*
X73231935Y-95300000D01*
X73143556Y-95310613D01*
X73002904Y-95366080D01*
X72882435Y-95457435D01*
X72791080Y-95577904D01*
X72735613Y-95718556D01*
X72725000Y-95806935D01*
X71125500Y-95806935D01*
X71125500Y-94903651D01*
X71144407Y-94845460D01*
X71154490Y-94833653D01*
X75415997Y-90572145D01*
X75470512Y-90544370D01*
X75530944Y-90553941D01*
X75574209Y-90597206D01*
X75582978Y-90624191D01*
X75583076Y-90624168D01*
X75583373Y-90625407D01*
X75583778Y-90626652D01*
X75583982Y-90627945D01*
X75652102Y-90837599D01*
X75652104Y-90837602D01*
X75652105Y-90837606D01*
X75752185Y-91034022D01*
X75881758Y-91212365D01*
X76037635Y-91368242D01*
X76215978Y-91497815D01*
X76412394Y-91597895D01*
X76622049Y-91666015D01*
X76709140Y-91679809D01*
X76839775Y-91700500D01*
X76839778Y-91700500D01*
X77060225Y-91700500D01*
X77169086Y-91683257D01*
X77277951Y-91666015D01*
X77487606Y-91597895D01*
X77684022Y-91497815D01*
X77862365Y-91368242D01*
X78018242Y-91212365D01*
X78147815Y-91034022D01*
X78247895Y-90837606D01*
X78316015Y-90627951D01*
X78334406Y-90511835D01*
X78350500Y-90410225D01*
X78350500Y-88850000D01*
X181954437Y-88850000D01*
X183169027Y-88850000D01*
X183150000Y-88921009D01*
X183150000Y-89078991D01*
X183169027Y-89150000D01*
X181954437Y-89150000D01*
X181988164Y-89362954D01*
X182063559Y-89594994D01*
X182174319Y-89812374D01*
X182317725Y-90009755D01*
X182490244Y-90182274D01*
X182687625Y-90325680D01*
X182905005Y-90436440D01*
X183137045Y-90511835D01*
X183378009Y-90550000D01*
X183599999Y-90550000D01*
X183600000Y-90549999D01*
X183600000Y-89580973D01*
X183671009Y-89600000D01*
X183828991Y-89600000D01*
X183900000Y-89580973D01*
X183900000Y-90549999D01*
X183900001Y-90550000D01*
X184121991Y-90550000D01*
X184362954Y-90511835D01*
X184594994Y-90436440D01*
X184812374Y-90325680D01*
X185009755Y-90182274D01*
X185182274Y-90009755D01*
X185325680Y-89812374D01*
X185436440Y-89594994D01*
X185511835Y-89362954D01*
X185545563Y-89150000D01*
X184330973Y-89150000D01*
X184350000Y-89078991D01*
X184350000Y-88921009D01*
X184330973Y-88850000D01*
X185545563Y-88850000D01*
X194454437Y-88850000D01*
X195669027Y-88850000D01*
X195650000Y-88921009D01*
X195650000Y-89078991D01*
X195669027Y-89150000D01*
X194454437Y-89150000D01*
X194488164Y-89362954D01*
X194563559Y-89594994D01*
X194674319Y-89812374D01*
X194817725Y-90009755D01*
X194990244Y-90182274D01*
X195187625Y-90325680D01*
X195405005Y-90436440D01*
X195637045Y-90511835D01*
X195878009Y-90550000D01*
X196099999Y-90550000D01*
X196100000Y-90549999D01*
X196100000Y-89580973D01*
X196171009Y-89600000D01*
X196328991Y-89600000D01*
X196400000Y-89580973D01*
X196400000Y-90549999D01*
X196400001Y-90550000D01*
X196621991Y-90550000D01*
X196862954Y-90511835D01*
X197094994Y-90436440D01*
X197312374Y-90325680D01*
X197509755Y-90182274D01*
X197682274Y-90009755D01*
X197825680Y-89812374D01*
X197936440Y-89594994D01*
X198011835Y-89362954D01*
X198045563Y-89150000D01*
X196830973Y-89150000D01*
X196850000Y-89078991D01*
X196850000Y-88921009D01*
X196830973Y-88850000D01*
X198045563Y-88850000D01*
X198011835Y-88637045D01*
X197936440Y-88405005D01*
X197825680Y-88187625D01*
X197682274Y-87990244D01*
X197509755Y-87817725D01*
X197312374Y-87674319D01*
X197094994Y-87563559D01*
X196862954Y-87488164D01*
X196621991Y-87450000D01*
X196400001Y-87450000D01*
X196400000Y-87450001D01*
X196400000Y-88419026D01*
X196328991Y-88400000D01*
X196171009Y-88400000D01*
X196100000Y-88419026D01*
X196100000Y-87450001D01*
X196099999Y-87450000D01*
X195878009Y-87450000D01*
X195637045Y-87488164D01*
X195405005Y-87563559D01*
X195187625Y-87674319D01*
X194990244Y-87817725D01*
X194817725Y-87990244D01*
X194674319Y-88187625D01*
X194563559Y-88405005D01*
X194488164Y-88637045D01*
X194454437Y-88850000D01*
X185545563Y-88850000D01*
X185511835Y-88637045D01*
X185436440Y-88405005D01*
X185325680Y-88187625D01*
X185182274Y-87990244D01*
X185009755Y-87817725D01*
X184812374Y-87674319D01*
X184594994Y-87563559D01*
X184362954Y-87488164D01*
X184121991Y-87450000D01*
X183900001Y-87450000D01*
X183900000Y-87450001D01*
X183900000Y-88419026D01*
X183828991Y-88400000D01*
X183671009Y-88400000D01*
X183600000Y-88419026D01*
X183600000Y-87450001D01*
X183599999Y-87450000D01*
X183378009Y-87450000D01*
X183137045Y-87488164D01*
X182905005Y-87563559D01*
X182687625Y-87674319D01*
X182490244Y-87817725D01*
X182317725Y-87990244D01*
X182174319Y-88187625D01*
X182063559Y-88405005D01*
X181988164Y-88637045D01*
X181954437Y-88850000D01*
X78350500Y-88850000D01*
X78350500Y-88589774D01*
X78316015Y-88372051D01*
X78316015Y-88372049D01*
X78247895Y-88162394D01*
X78147815Y-87965978D01*
X78018242Y-87787635D01*
X77862365Y-87631758D01*
X77684022Y-87502185D01*
X77684021Y-87502184D01*
X77684019Y-87502183D01*
X77581604Y-87450000D01*
X77487606Y-87402105D01*
X77487602Y-87402104D01*
X77487599Y-87402102D01*
X77277948Y-87333984D01*
X77060225Y-87299500D01*
X77060222Y-87299500D01*
X76839778Y-87299500D01*
X76839775Y-87299500D01*
X76622051Y-87333984D01*
X76412400Y-87402102D01*
X76215980Y-87502183D01*
X76131503Y-87563559D01*
X76037635Y-87631758D01*
X75881758Y-87787635D01*
X75816971Y-87876806D01*
X75752183Y-87965980D01*
X75652102Y-88162400D01*
X75583984Y-88372051D01*
X75557227Y-88540987D01*
X75529449Y-88595504D01*
X75474933Y-88623281D01*
X75459446Y-88624500D01*
X75163768Y-88624500D01*
X74994626Y-88658145D01*
X74994624Y-88658145D01*
X74835299Y-88724139D01*
X74835287Y-88724145D01*
X74691901Y-88819955D01*
X74691897Y-88819958D01*
X69569958Y-93941897D01*
X69569955Y-93941901D01*
X69474145Y-94085287D01*
X69474139Y-94085299D01*
X69408145Y-94244624D01*
X69408145Y-94244626D01*
X69374500Y-94413768D01*
X68500500Y-94413768D01*
X68500500Y-80331589D01*
X81495500Y-80331589D01*
X81495500Y-80568410D01*
X81532544Y-80802300D01*
X81532546Y-80802305D01*
X81605725Y-81027527D01*
X81713236Y-81238530D01*
X81852432Y-81430116D01*
X82019884Y-81597568D01*
X82211470Y-81736764D01*
X82422473Y-81844275D01*
X82647695Y-81917454D01*
X82647696Y-81917454D01*
X82647699Y-81917455D01*
X82881590Y-81954500D01*
X82881593Y-81954500D01*
X83118410Y-81954500D01*
X83352300Y-81917455D01*
X83352301Y-81917454D01*
X83352305Y-81917454D01*
X83577527Y-81844275D01*
X83788530Y-81736764D01*
X83980116Y-81597568D01*
X84147568Y-81430116D01*
X84286764Y-81238530D01*
X84394275Y-81027527D01*
X84467454Y-80802305D01*
X84504500Y-80568407D01*
X84504500Y-80331593D01*
X84504500Y-80331589D01*
X146495500Y-80331589D01*
X146495500Y-80568410D01*
X146532544Y-80802300D01*
X146532546Y-80802305D01*
X146605725Y-81027527D01*
X146713236Y-81238530D01*
X146852432Y-81430116D01*
X147019884Y-81597568D01*
X147211470Y-81736764D01*
X147422473Y-81844275D01*
X147647695Y-81917454D01*
X147647696Y-81917454D01*
X147647699Y-81917455D01*
X147881590Y-81954500D01*
X147881593Y-81954500D01*
X148118410Y-81954500D01*
X148352300Y-81917455D01*
X148352301Y-81917454D01*
X148352305Y-81917454D01*
X148577527Y-81844275D01*
X148788530Y-81736764D01*
X148980116Y-81597568D01*
X149147568Y-81430116D01*
X149286764Y-81238530D01*
X149394275Y-81027527D01*
X149467454Y-80802305D01*
X149504500Y-80568407D01*
X149504500Y-80331593D01*
X149504500Y-80331589D01*
X149467455Y-80097699D01*
X149467454Y-80097695D01*
X149394275Y-79872473D01*
X149286764Y-79661470D01*
X149147568Y-79469884D01*
X148980116Y-79302432D01*
X148788530Y-79163236D01*
X148788529Y-79163235D01*
X148788527Y-79163234D01*
X148577527Y-79055725D01*
X148352300Y-78982544D01*
X148118410Y-78945500D01*
X148118407Y-78945500D01*
X147881593Y-78945500D01*
X147881590Y-78945500D01*
X147647699Y-78982544D01*
X147422472Y-79055725D01*
X147211472Y-79163234D01*
X147019885Y-79302431D01*
X146852431Y-79469885D01*
X146713234Y-79661472D01*
X146605725Y-79872472D01*
X146532544Y-80097699D01*
X146495500Y-80331589D01*
X84504500Y-80331589D01*
X84467455Y-80097699D01*
X84467454Y-80097695D01*
X84394275Y-79872473D01*
X84286764Y-79661470D01*
X84147568Y-79469884D01*
X83980116Y-79302432D01*
X83788530Y-79163236D01*
X83788529Y-79163235D01*
X83788527Y-79163234D01*
X83577527Y-79055725D01*
X83352300Y-78982544D01*
X83118410Y-78945500D01*
X83118407Y-78945500D01*
X82881593Y-78945500D01*
X82881590Y-78945500D01*
X82647699Y-78982544D01*
X82422472Y-79055725D01*
X82211472Y-79163234D01*
X82019885Y-79302431D01*
X81852431Y-79469885D01*
X81713234Y-79661472D01*
X81605725Y-79872472D01*
X81532544Y-80097699D01*
X81495500Y-80331589D01*
X68500500Y-80331589D01*
X68500500Y-76802435D01*
X68500619Y-76797577D01*
X68518557Y-76432443D01*
X68519509Y-76422775D01*
X68572793Y-76063559D01*
X68574689Y-76054030D01*
X68662927Y-75701764D01*
X68665736Y-75692504D01*
X68788085Y-75350562D01*
X68791794Y-75341607D01*
X68947067Y-75013309D01*
X68951634Y-75004766D01*
X69138339Y-74693267D01*
X69143722Y-74685212D01*
X69360054Y-74393523D01*
X69366204Y-74386028D01*
X69610096Y-74116935D01*
X69616935Y-74110096D01*
X69886028Y-73866204D01*
X69893523Y-73860054D01*
X70185212Y-73643722D01*
X70193267Y-73638339D01*
X70504766Y-73451634D01*
X70513309Y-73447067D01*
X70841607Y-73291794D01*
X70850562Y-73288085D01*
X71192504Y-73165736D01*
X71201764Y-73162927D01*
X71554035Y-73074687D01*
X71563553Y-73072794D01*
X71922781Y-73019508D01*
X71932437Y-73018557D01*
X72297578Y-73000619D01*
X72302436Y-73000500D01*
X72365892Y-73000500D01*
X223634108Y-73000500D01*
X223697564Y-73000500D01*
X223702422Y-73000619D01*
G37*
%TD.AperFunction*%
%TD*%
M02*
