%TF.GenerationSoftware,KiCad,Pcbnew,9.0.7*%
%TF.CreationDate,2026-03-03T17:08:01+01:00*%
%TF.ProjectId,Front_Panel,46726f6e-745f-4506-916e-656c2e6b6963,1.2*%
%TF.SameCoordinates,Original*%
%TF.FileFunction,Soldermask,Bot*%
%TF.FilePolarity,Negative*%
%FSLAX46Y46*%
G04 Gerber Fmt 4.6, Leading zero omitted, Abs format (unit mm)*
G04 Created by KiCad (PCBNEW 9.0.7) date 2026-03-03 17:08:01*
%MOMM*%
%LPD*%
G01*
G04 APERTURE LIST*
G04 Aperture macros list*
%AMRoundRect*
0 Rectangle with rounded corners*
0 $1 Rounding radius*
0 $2 $3 $4 $5 $6 $7 $8 $9 X,Y pos of 4 corners*
0 Add a 4 corners polygon primitive as box body*
4,1,4,$2,$3,$4,$5,$6,$7,$8,$9,$2,$3,0*
0 Add four circle primitives for the rounded corners*
1,1,$1+$1,$2,$3*
1,1,$1+$1,$4,$5*
1,1,$1+$1,$6,$7*
1,1,$1+$1,$8,$9*
0 Add four rect primitives between the rounded corners*
20,1,$1+$1,$2,$3,$4,$5,0*
20,1,$1+$1,$4,$5,$6,$7,0*
20,1,$1+$1,$6,$7,$8,$9,0*
20,1,$1+$1,$8,$9,$2,$3,0*%
G04 Aperture macros list end*
%ADD10O,3.200000X2.700000*%
%ADD11C,4.900000*%
%ADD12C,7.700000*%
%ADD13RoundRect,0.100000X0.675000X0.675000X-0.675000X0.675000X-0.675000X-0.675000X0.675000X-0.675000X0*%
%ADD14C,1.550000*%
%ADD15C,2.700000*%
%ADD16RoundRect,0.100000X-0.800000X-0.800000X0.800000X-0.800000X0.800000X0.800000X-0.800000X0.800000X0*%
%ADD17C,1.800000*%
%ADD18O,2.000000X3.600000*%
%ADD19RoundRect,0.100000X-0.675000X0.675000X-0.675000X-0.675000X0.675000X-0.675000X0.675000X0.675000X0*%
G04 APERTURE END LIST*
D10*
%TO.C,SW1*%
X183750000Y-89000000D03*
X196250000Y-89000000D03*
X183750000Y-94000000D03*
X196250000Y-94000000D03*
%TD*%
D11*
%TO.C,H2*%
X75000000Y-135500000D03*
D12*
X75000000Y-135500000D03*
%TD*%
D13*
%TO.C,J2*%
X168750000Y-127000000D03*
D14*
X168750000Y-125000000D03*
X168750000Y-123000000D03*
X168750000Y-121000000D03*
X168750000Y-119000000D03*
%TD*%
D10*
%TO.C,SW3*%
X183750000Y-121000000D03*
X196250000Y-121000000D03*
X183750000Y-126000000D03*
X196250000Y-126000000D03*
%TD*%
%TO.C,SW4*%
X167750000Y-105000000D03*
X180250000Y-105000000D03*
X167750000Y-110000000D03*
X180250000Y-110000000D03*
%TD*%
D11*
%TO.C,H1*%
X75000000Y-79500000D03*
D12*
X75000000Y-79500000D03*
%TD*%
D15*
%TO.C,U1*%
X83000000Y-80450000D03*
X83000000Y-113550000D03*
X148000000Y-80450000D03*
X148000000Y-113550000D03*
D16*
X122500000Y-109650000D03*
D17*
X120500000Y-109650000D03*
X118500000Y-109650000D03*
X116500000Y-109650000D03*
X114500000Y-109650000D03*
X112500000Y-109650000D03*
X110500000Y-109650000D03*
X108500000Y-109650000D03*
D18*
X76950000Y-98000000D03*
X76950000Y-89500000D03*
%TD*%
D11*
%TO.C,H3*%
X221000000Y-79500000D03*
D12*
X221000000Y-79500000D03*
%TD*%
D11*
%TO.C,H4*%
X221000000Y-135500000D03*
D12*
X221000000Y-135500000D03*
%TD*%
D10*
%TO.C,SW2*%
X199750000Y-105000000D03*
X212250000Y-105000000D03*
X199750000Y-110000000D03*
X212250000Y-110000000D03*
%TD*%
D19*
%TO.C,J1*%
X127500000Y-127250000D03*
D14*
X129500000Y-127250000D03*
X131500000Y-127250000D03*
X133500000Y-127250000D03*
X135500000Y-127250000D03*
%TD*%
M02*
