%TF.GenerationSoftware,KiCad,Pcbnew,9.0.7*%
%TF.CreationDate,2026-03-03T17:08:01+01:00*%
%TF.ProjectId,Front_Panel,46726f6e-745f-4506-916e-656c2e6b6963,1.2*%
%TF.SameCoordinates,Original*%
%TF.FileFunction,Paste,Top*%
%TF.FilePolarity,Positive*%
%FSLAX46Y46*%
G04 Gerber Fmt 4.6, Leading zero omitted, Abs format (unit mm)*
G04 Created by KiCad (PCBNEW 9.0.7) date 2026-03-03 17:08:01*
%MOMM*%
%LPD*%
G01*
G04 APERTURE LIST*
G04 Aperture macros list*
%AMRoundRect*
0 Rectangle with rounded corners*
0 $1 Rounding radius*
0 $2 $3 $4 $5 $6 $7 $8 $9 X,Y pos of 4 corners*
0 Add a 4 corners polygon primitive as box body*
4,1,4,$2,$3,$4,$5,$6,$7,$8,$9,$2,$3,0*
0 Add four circle primitives for the rounded corners*
1,1,$1+$1,$2,$3*
1,1,$1+$1,$4,$5*
1,1,$1+$1,$6,$7*
1,1,$1+$1,$8,$9*
0 Add four rect primitives between the rounded corners*
20,1,$1+$1,$2,$3,$4,$5,0*
20,1,$1+$1,$4,$5,$6,$7,0*
20,1,$1+$1,$6,$7,$8,$9,0*
20,1,$1+$1,$8,$9,$2,$3,0*%
G04 Aperture macros list end*
%ADD10RoundRect,0.250000X-0.262500X-0.450000X0.262500X-0.450000X0.262500X0.450000X-0.262500X0.450000X0*%
%ADD11RoundRect,0.250000X0.450000X-0.262500X0.450000X0.262500X-0.450000X0.262500X-0.450000X-0.262500X0*%
%ADD12RoundRect,0.250000X0.475000X-0.250000X0.475000X0.250000X-0.475000X0.250000X-0.475000X-0.250000X0*%
%ADD13RoundRect,0.150000X-0.875000X-0.150000X0.875000X-0.150000X0.875000X0.150000X-0.875000X0.150000X0*%
%ADD14RoundRect,0.250000X0.250000X0.475000X-0.250000X0.475000X-0.250000X-0.475000X0.250000X-0.475000X0*%
%ADD15RoundRect,0.150000X0.587500X0.150000X-0.587500X0.150000X-0.587500X-0.150000X0.587500X-0.150000X0*%
%ADD16RoundRect,0.250000X-0.250000X-0.475000X0.250000X-0.475000X0.250000X0.475000X-0.250000X0.475000X0*%
%ADD17RoundRect,0.250000X-0.450000X0.262500X-0.450000X-0.262500X0.450000X-0.262500X0.450000X0.262500X0*%
%ADD18RoundRect,0.250000X-0.475000X0.250000X-0.475000X-0.250000X0.475000X-0.250000X0.475000X0.250000X0*%
G04 APERTURE END LIST*
D10*
%TO.C,R2*%
X78837500Y-119250000D03*
X80662500Y-119250000D03*
%TD*%
D11*
%TO.C,R3*%
X201750000Y-97662500D03*
X201750000Y-95837500D03*
%TD*%
D12*
%TO.C,C5*%
X160500000Y-123400000D03*
X160500000Y-121500000D03*
%TD*%
D13*
%TO.C,U2*%
X148600000Y-123420000D03*
X148600000Y-124690000D03*
X148600000Y-125960000D03*
X148600000Y-127230000D03*
X148600000Y-128500000D03*
X148600000Y-129770000D03*
X148600000Y-131040000D03*
X148600000Y-132310000D03*
X148600000Y-133580000D03*
X157900000Y-133580000D03*
X157900000Y-132310000D03*
X157900000Y-131040000D03*
X157900000Y-129770000D03*
X157900000Y-128500000D03*
X157900000Y-127230000D03*
X157900000Y-125960000D03*
X157900000Y-124690000D03*
X157900000Y-123420000D03*
%TD*%
D10*
%TO.C,R4*%
X200087500Y-117500000D03*
X201912500Y-117500000D03*
%TD*%
%TO.C,R1*%
X73087500Y-107500000D03*
X74912500Y-107500000D03*
%TD*%
D14*
%TO.C,C3*%
X110400000Y-112000000D03*
X108500000Y-112000000D03*
%TD*%
D10*
%TO.C,R5*%
X178087500Y-123750000D03*
X179912500Y-123750000D03*
%TD*%
D15*
%TO.C,Q1*%
X75937500Y-117700000D03*
X75937500Y-115800000D03*
X74062500Y-116750000D03*
%TD*%
D16*
%TO.C,C1*%
X114600000Y-112500000D03*
X116500000Y-112500000D03*
%TD*%
D12*
%TO.C,C2*%
X73750000Y-98000000D03*
X73750000Y-96100000D03*
%TD*%
D17*
%TO.C,R6*%
X173250000Y-116087500D03*
X173250000Y-117912500D03*
%TD*%
D18*
%TO.C,C7*%
X179250000Y-116050000D03*
X179250000Y-117950000D03*
%TD*%
D12*
%TO.C,C6*%
X194250000Y-103700000D03*
X194250000Y-101800000D03*
%TD*%
D18*
%TO.C,C4*%
X112500000Y-112050000D03*
X112500000Y-113950000D03*
%TD*%
M02*
