%TF.GenerationSoftware,KiCad,Pcbnew,9.0.7*%
%TF.CreationDate,2026-03-03T17:12:30+01:00*%
%TF.ProjectId,Tesla_sextant_BT,5465736c-615f-4736-9578-74616e745f42,2.3*%
%TF.SameCoordinates,Original*%
%TF.FileFunction,Copper,L4,Bot*%
%TF.FilePolarity,Positive*%
%FSLAX46Y46*%
G04 Gerber Fmt 4.6, Leading zero omitted, Abs format (unit mm)*
G04 Created by KiCad (PCBNEW 9.0.7) date 2026-03-03 17:12:30*
%MOMM*%
%LPD*%
G01*
G04 APERTURE LIST*
%TA.AperFunction,Conductor*%
%ADD10C,0.200000*%
%TD*%
%TA.AperFunction,HeatsinkPad*%
%ADD11C,0.600000*%
%TD*%
%TA.AperFunction,ComponentPad*%
%ADD12C,4.700000*%
%TD*%
%TA.AperFunction,ConnectorPad*%
%ADD13C,7.500000*%
%TD*%
%TA.AperFunction,HeatsinkPad*%
%ADD14O,1.000000X2.100000*%
%TD*%
%TA.AperFunction,HeatsinkPad*%
%ADD15O,1.000000X1.800000*%
%TD*%
%TA.AperFunction,HeatsinkPad*%
%ADD16R,1.570000X1.890000*%
%TD*%
%TA.AperFunction,ComponentPad*%
%ADD17R,1.350000X1.350000*%
%TD*%
%TA.AperFunction,ComponentPad*%
%ADD18C,1.350000*%
%TD*%
%TA.AperFunction,ComponentPad*%
%ADD19R,2.000000X2.000000*%
%TD*%
%TA.AperFunction,ComponentPad*%
%ADD20C,2.000000*%
%TD*%
%TA.AperFunction,ViaPad*%
%ADD21C,0.600000*%
%TD*%
%TA.AperFunction,ViaPad*%
%ADD22C,1.000000*%
%TD*%
%TA.AperFunction,ViaPad*%
%ADD23C,0.800000*%
%TD*%
%TA.AperFunction,Conductor*%
%ADD24C,1.000000*%
%TD*%
%TA.AperFunction,Conductor*%
%ADD25C,0.750000*%
%TD*%
%TA.AperFunction,Conductor*%
%ADD26C,0.500000*%
%TD*%
%TA.AperFunction,Conductor*%
%ADD27C,0.300000*%
%TD*%
G04 APERTURE END LIST*
%TO.N,+3.3V*%
D10*
X122000000Y-100250000D02*
X127000000Y-100250000D01*
X127000000Y-106250000D01*
X122000000Y-106250000D01*
X122000000Y-100250000D01*
%TA.AperFunction,Conductor*%
G36*
X122000000Y-100250000D02*
G01*
X127000000Y-100250000D01*
X127000000Y-106250000D01*
X122000000Y-106250000D01*
X122000000Y-100250000D01*
G37*
%TD.AperFunction*%
%TO.N,+5V*%
X122000000Y-84000000D02*
X125250000Y-84000000D01*
X125250000Y-91750000D01*
X122000000Y-91750000D01*
X122000000Y-84000000D01*
%TA.AperFunction,Conductor*%
G36*
X122000000Y-84000000D02*
G01*
X125250000Y-84000000D01*
X125250000Y-91750000D01*
X122000000Y-91750000D01*
X122000000Y-84000000D01*
G37*
%TD.AperFunction*%
%TO.N,+3.3V*%
X109573752Y-106250000D02*
X127000000Y-106250000D01*
X127000000Y-110500000D01*
X109573752Y-110500000D01*
X109573752Y-106250000D01*
%TA.AperFunction,Conductor*%
G36*
X109573752Y-106250000D02*
G01*
X127000000Y-106250000D01*
X127000000Y-110500000D01*
X109573752Y-110500000D01*
X109573752Y-106250000D01*
G37*
%TD.AperFunction*%
%TO.N,+10V*%
X125250000Y-125770626D02*
X115000000Y-125770626D01*
X115000000Y-119750000D01*
X122000000Y-119770626D01*
X122000000Y-117270626D01*
X125250000Y-117270626D01*
X125250000Y-125770626D01*
%TA.AperFunction,Conductor*%
G36*
X125250000Y-125770626D02*
G01*
X115000000Y-125770626D01*
X115000000Y-119750000D01*
X122000000Y-119770626D01*
X122000000Y-117270626D01*
X125250000Y-117270626D01*
X125250000Y-125770626D01*
G37*
%TD.AperFunction*%
%TD*%
D11*
%TO.P,U1,19,GND*%
%TO.N,GND*%
X191600000Y-81750000D03*
X190500000Y-81750000D03*
X192150000Y-82300000D03*
X191050000Y-82300000D03*
X189950000Y-82300000D03*
X191600000Y-82850000D03*
X190500000Y-82850000D03*
X192150000Y-83400000D03*
X191050000Y-83400000D03*
X189950000Y-83400000D03*
X191600000Y-83950000D03*
X190500000Y-83950000D03*
%TD*%
D12*
%TO.P,H3,1,1*%
%TO.N,GND*%
X105500000Y-62000000D03*
D13*
X105500000Y-62000000D03*
%TD*%
D14*
%TO.P,J6,S1,SHIELD*%
%TO.N,unconnected-(J6-SHIELD-PadS1)_1*%
X150770000Y-61855000D03*
D15*
%TO.N,unconnected-(J6-SHIELD-PadS1)_2*%
X150770000Y-57675000D03*
D14*
%TO.N,unconnected-(J6-SHIELD-PadS1)*%
X142130000Y-61855000D03*
D15*
%TO.N,unconnected-(J6-SHIELD-PadS1)_3*%
X142130000Y-57675000D03*
%TD*%
D11*
%TO.P,U4,9*%
%TO.N,N/C*%
X165405000Y-115210000D03*
X165405000Y-116500000D03*
D16*
X165890000Y-115855000D03*
D11*
X166375000Y-115210000D03*
X166375000Y-116500000D03*
%TD*%
D17*
%TO.P,J3,1,Pin_1*%
%TO.N,+3.3V*%
X177800000Y-58500000D03*
D18*
%TO.P,J3,2,Pin_2*%
%TO.N,/I2C.SDA*%
X177800000Y-60500000D03*
%TO.P,J3,3,Pin_3*%
%TO.N,/I2C.SCL*%
X177800000Y-62500000D03*
%TO.P,J3,4,Pin_4*%
%TO.N,/I2C.INT*%
X177800000Y-64500000D03*
%TO.P,J3,5,Pin_5*%
%TO.N,GND*%
X177800000Y-66500000D03*
%TD*%
D12*
%TO.P,H4,1,1*%
%TO.N,GND*%
X166500000Y-62000000D03*
D13*
X166500000Y-62000000D03*
%TD*%
D12*
%TO.P,H1,1,1*%
%TO.N,GND*%
X105500000Y-148000000D03*
D13*
X105500000Y-148000000D03*
%TD*%
D12*
%TO.P,H2,1,1*%
%TO.N,GND*%
X191500000Y-148000000D03*
D13*
X191500000Y-148000000D03*
%TD*%
D17*
%TO.P,J1,1,Pin_1*%
%TO.N,+3.3V*%
X174500000Y-90000000D03*
D18*
%TO.P,J1,2,Pin_2*%
%TO.N,/RADIO.LOW*%
X174500000Y-92000000D03*
%TO.P,J1,3,Pin_3*%
%TO.N,/RADIO.HI*%
X174500000Y-94000000D03*
%TO.P,J1,4,Pin_4*%
%TO.N,/RADIO.VOL*%
X174500000Y-96000000D03*
%TO.P,J1,5,Pin_5*%
%TO.N,GND*%
X174500000Y-98000000D03*
%TD*%
D19*
%TO.P,K1,1*%
%TO.N,/DAC_AMP/AUD_RADIO*%
X148880000Y-101500000D03*
D20*
%TO.P,K1,2*%
%TO.N,+5V*%
X148880000Y-104040000D03*
%TO.P,K1,5*%
%TO.N,/DAC_AMP/AUD_AMP*%
X148880000Y-111660000D03*
%TO.P,K1,6*%
X153960000Y-111660000D03*
%TO.P,K1,9*%
%TO.N,/DAC_AMP/REL_PULLD*%
X153960000Y-104040000D03*
%TO.P,K1,10*%
%TO.N,/DAC_AMP/AUD_DAC_MIX*%
X153960000Y-101500000D03*
%TD*%
D21*
%TO.N,GND*%
X146500000Y-64750000D03*
X133500000Y-120750000D03*
X191250000Y-63000000D03*
X191750000Y-92500000D03*
X168287500Y-142262500D03*
X153500000Y-108500000D03*
D22*
X126250000Y-116000000D03*
D21*
X129037500Y-142512500D03*
D23*
X188450000Y-104300000D03*
X112750000Y-127750000D03*
D21*
X174750000Y-62500000D03*
D22*
X106250000Y-97750000D03*
D21*
X141000000Y-87750000D03*
X147537500Y-139762500D03*
X135750000Y-142500000D03*
X171512500Y-141712500D03*
D23*
X161000000Y-127750000D03*
D21*
X163000000Y-85000000D03*
D23*
X163250000Y-127750000D03*
D21*
X193000000Y-66250000D03*
X138000000Y-147500000D03*
D23*
X110250000Y-127750000D03*
D21*
X169537500Y-142262500D03*
D22*
X107000000Y-114250000D03*
D23*
X165750000Y-127750000D03*
D21*
X140750000Y-62250000D03*
X121787500Y-143762500D03*
X152500000Y-92750000D03*
X161750000Y-78750000D03*
D22*
X166750000Y-67000000D03*
D21*
X157750000Y-144250000D03*
X122750000Y-142000000D03*
X136500000Y-147500000D03*
X166750000Y-83750000D03*
X145250000Y-142012500D03*
X141250000Y-74250000D03*
X157750000Y-141250000D03*
X157000000Y-69750000D03*
X176500000Y-74000000D03*
X173750000Y-66000000D03*
X156500000Y-59250000D03*
X193000000Y-67250000D03*
X150037500Y-146262500D03*
X166750000Y-82500000D03*
X158500000Y-137262500D03*
X136250000Y-137500000D03*
D22*
X119750000Y-67750000D03*
D21*
X133250000Y-137500000D03*
X159250000Y-146750000D03*
X157037500Y-131262500D03*
D23*
X190950000Y-104300000D03*
D21*
X146787500Y-146262500D03*
X119750000Y-137500000D03*
X121287500Y-137512500D03*
X187000000Y-75750000D03*
X149537500Y-143762500D03*
D23*
X105500000Y-127750000D03*
D21*
X144037500Y-150000000D03*
X130250000Y-137500000D03*
D23*
X139000000Y-127750000D03*
D21*
X176250000Y-116500000D03*
D23*
X146250000Y-127750000D03*
D21*
X167500000Y-79000000D03*
X159750000Y-74750000D03*
X143250000Y-138512500D03*
X142500000Y-63750000D03*
D22*
X121500000Y-115750000D03*
D21*
X120250000Y-143750000D03*
X166750000Y-80000000D03*
X157000000Y-137262500D03*
X136500000Y-70000000D03*
X134787500Y-137512500D03*
X165500000Y-142262500D03*
X193000000Y-65250000D03*
D22*
X113250000Y-113750000D03*
D21*
X193000000Y-70500000D03*
X160750000Y-146750000D03*
X156500000Y-57250000D03*
X139250000Y-137500000D03*
D23*
X182000000Y-136750000D03*
D21*
X165000000Y-81250000D03*
D22*
X125750000Y-72750000D03*
D23*
X141500000Y-127750000D03*
D21*
X131750000Y-137500000D03*
D23*
X176000000Y-130750000D03*
D21*
X169000000Y-87000000D03*
D22*
X120500000Y-104250000D03*
D21*
X124750000Y-143750000D03*
X151250000Y-63750000D03*
D22*
X128750000Y-67750000D03*
X107500000Y-107750000D03*
X100750000Y-115000000D03*
D23*
X131750000Y-127750000D03*
D21*
X171500000Y-116000000D03*
X185400000Y-125800000D03*
X133750000Y-142500000D03*
X171512500Y-138712500D03*
X146787500Y-147762500D03*
D22*
X175800000Y-79600000D03*
D21*
X196750000Y-65250000D03*
D23*
X174500000Y-129250000D03*
D21*
X165500000Y-144000000D03*
X159750000Y-86000000D03*
X143787500Y-139762500D03*
X155500000Y-137262500D03*
X145000000Y-77750000D03*
X183500000Y-60500000D03*
D23*
X193000000Y-120000000D03*
X111500000Y-125750000D03*
D21*
X124250000Y-137500000D03*
D23*
X183250000Y-145500000D03*
D22*
X106250000Y-100250000D03*
D21*
X169250000Y-137250000D03*
D23*
X183250000Y-143000000D03*
D21*
X180750000Y-60000000D03*
X171512500Y-140212500D03*
D23*
X143750000Y-127750000D03*
D21*
X150250000Y-63750000D03*
X137750000Y-151000000D03*
D23*
X129500000Y-127750000D03*
D21*
X118787500Y-143762500D03*
D22*
X119500000Y-112500000D03*
D23*
X188250000Y-120000000D03*
X179000000Y-133750000D03*
D21*
X194000000Y-71500000D03*
D23*
X127000000Y-127750000D03*
X113250000Y-125750000D03*
X122250000Y-127750000D03*
D22*
X114250000Y-61750000D03*
D21*
X151787500Y-141262500D03*
D22*
X106500000Y-109750000D03*
D21*
X145750000Y-115422500D03*
D23*
X183250000Y-148000000D03*
D22*
X110750000Y-100500000D03*
D21*
X139000000Y-151000000D03*
X126250000Y-143750000D03*
D23*
X103000000Y-127750000D03*
D21*
X127250000Y-141750000D03*
X169750000Y-115750000D03*
X165250000Y-146000000D03*
D23*
X177500000Y-132250000D03*
D21*
X128787500Y-137512500D03*
X163712500Y-146737500D03*
X133537500Y-147512500D03*
X130537500Y-147512500D03*
X130750000Y-142500000D03*
X143787500Y-137262500D03*
X182750000Y-66000000D03*
D23*
X183250000Y-138250000D03*
D21*
X168000000Y-90250000D03*
X181250000Y-70750000D03*
X143787500Y-133762500D03*
D22*
X128750000Y-72750000D03*
D21*
X122750000Y-137500000D03*
D23*
X136750000Y-127750000D03*
D21*
X142500000Y-148762500D03*
X118287500Y-137512500D03*
X154750000Y-78000000D03*
X171500000Y-144750000D03*
X146750000Y-138512500D03*
X123250000Y-143750000D03*
X157762500Y-145712500D03*
D23*
X107750000Y-127750000D03*
D22*
X119750000Y-73000000D03*
D21*
X167787500Y-137262500D03*
D23*
X156000000Y-127750000D03*
D22*
X116250000Y-102500000D03*
D21*
X148000000Y-138512500D03*
D22*
X100750000Y-98500000D03*
D21*
X139500000Y-107750000D03*
X141500000Y-63750000D03*
X171500000Y-143250000D03*
X142287500Y-146012500D03*
D22*
X120500000Y-100750000D03*
D21*
X164787500Y-137262500D03*
X173500000Y-72250000D03*
X144750000Y-93750000D03*
D22*
X120500000Y-102500000D03*
D21*
X151250000Y-102250000D03*
X122750000Y-141000000D03*
X132250000Y-142500000D03*
X162000000Y-83750000D03*
D23*
X151250000Y-127750000D03*
X117250000Y-127750000D03*
D21*
X159962500Y-137250000D03*
X148537500Y-146512500D03*
D23*
X115000000Y-127750000D03*
D21*
X140250000Y-147500000D03*
X122750000Y-139750000D03*
X166287500Y-137262500D03*
D23*
X100500000Y-127750000D03*
X124750000Y-127750000D03*
D21*
X152250000Y-59250000D03*
X146000000Y-142012500D03*
X137750000Y-137500000D03*
X147500000Y-83750000D03*
D23*
X134250000Y-127750000D03*
D22*
X116250000Y-100750000D03*
D21*
X125750000Y-137500000D03*
X157750000Y-142750000D03*
X156250000Y-141250000D03*
X165000000Y-94250000D03*
X147537500Y-137262500D03*
D23*
X153500000Y-127750000D03*
D21*
X147537500Y-133762500D03*
X153250000Y-141250000D03*
D23*
X180500000Y-135250000D03*
X183250000Y-152750000D03*
D21*
X152000000Y-63250000D03*
D23*
X193200000Y-104300000D03*
D21*
X171500000Y-137250000D03*
X127250000Y-137500000D03*
D23*
X168250000Y-127750000D03*
D21*
X156750000Y-86000000D03*
D22*
X109000000Y-116500000D03*
D21*
X180500000Y-120750000D03*
X140787500Y-146262500D03*
X183500000Y-87500000D03*
X154750000Y-141250000D03*
D23*
X173000000Y-127750000D03*
D21*
X151750000Y-87750000D03*
X135000000Y-147500000D03*
X162750000Y-87250000D03*
X152500000Y-83250000D03*
X167037500Y-142262500D03*
X162000000Y-84750000D03*
D22*
X125750000Y-67750000D03*
D21*
X162250000Y-146750000D03*
X140750000Y-63250000D03*
D23*
X111750000Y-124000000D03*
D21*
X166750000Y-81250000D03*
D22*
X116250000Y-104250000D03*
D23*
X170750000Y-127750000D03*
X119750000Y-127750000D03*
X158500000Y-127750000D03*
X183250000Y-150250000D03*
D21*
X158787500Y-131512500D03*
D23*
X148750000Y-127750000D03*
D21*
X195500000Y-65500000D03*
X144500000Y-138512500D03*
X132000000Y-147500000D03*
D23*
X141500000Y-135500000D03*
X183250000Y-140500000D03*
D22*
X100500000Y-78750000D03*
D21*
%TO.N,+3.3V*%
X163000000Y-76500000D03*
X171250000Y-80500000D03*
X187750000Y-95750000D03*
D22*
X126000000Y-104250000D03*
D21*
X181250000Y-86750000D03*
X105750000Y-102000000D03*
D22*
X170750000Y-76500000D03*
X166750000Y-85750000D03*
X126000000Y-100750000D03*
D21*
X111250000Y-108250000D03*
D22*
X126000000Y-102500000D03*
D21*
X111250000Y-107250000D03*
D22*
X119500000Y-109750000D03*
X125925000Y-149262500D03*
%TO.N,+5V*%
X124500000Y-90250000D03*
X122750000Y-90250000D03*
D21*
X155000000Y-118250000D03*
D22*
X124500000Y-86000000D03*
D21*
X143750000Y-68250000D03*
D22*
X122750000Y-86000000D03*
X158500000Y-69000000D03*
X135500000Y-95250000D03*
%TO.N,+10V*%
X121000000Y-125000000D03*
X118500000Y-125000000D03*
X123500000Y-125000000D03*
D21*
X145577500Y-132762500D03*
X141287500Y-143762500D03*
X147287500Y-141762500D03*
D23*
%TO.N,VUSB*%
X140500000Y-65100000D03*
X151750000Y-65500000D03*
D21*
%TO.N,/I2C.INT*%
X180640000Y-90640000D03*
X174000000Y-74250000D03*
%TO.N,/DAC_AMP/AUD_RADIO*%
X161500000Y-103500000D03*
%TO.N,/AUDIO_SEL*%
X186750000Y-93000000D03*
X150000000Y-116000000D03*
%TO.N,/USB_ESP_D-*%
X187681846Y-86550474D03*
X147100000Y-70750000D03*
%TO.N,/AMP_SD*%
X188250000Y-93000000D03*
X161405000Y-114750000D03*
%TO.N,/USB_ESP_D+*%
X145800000Y-70750000D03*
X186550474Y-87681846D03*
%TD*%
D24*
%TO.N,+3.3V*%
X170750000Y-76500000D02*
X171250000Y-77000000D01*
D25*
X125157595Y-104250000D02*
X126000000Y-104250000D01*
D26*
X178750000Y-92750000D02*
X176000000Y-90000000D01*
D24*
X172250000Y-90000000D02*
X174500000Y-90000000D01*
X171250000Y-77000000D02*
X171250000Y-79750000D01*
D25*
X106500000Y-128200984D02*
X106526000Y-128174984D01*
D24*
X133500000Y-100750000D02*
X126000000Y-100750000D01*
D26*
X188250000Y-90750000D02*
X184000000Y-90750000D01*
X190500000Y-94500000D02*
X190500000Y-93000000D01*
D24*
X146000000Y-88250000D02*
X148250000Y-90500000D01*
D26*
X187750000Y-95750000D02*
X189250000Y-95750000D01*
D24*
X150500000Y-76500000D02*
X146000000Y-81000000D01*
D25*
X106526000Y-128174984D02*
X106526000Y-127325016D01*
D26*
X184000000Y-90750000D02*
X181250000Y-88000000D01*
X190500000Y-93000000D02*
X188250000Y-90750000D01*
D24*
X164750000Y-90500000D02*
X166750000Y-88500000D01*
D25*
X106500000Y-138000000D02*
X106500000Y-128200984D01*
D24*
X170750000Y-76500000D02*
X169750000Y-76500000D01*
D27*
X105750000Y-102000000D02*
X106000000Y-102000000D01*
D25*
X125925000Y-149262500D02*
X117762500Y-149262500D01*
D24*
X148250000Y-90500000D02*
X164750000Y-90500000D01*
D25*
X106500000Y-138000000D02*
X117762500Y-149262500D01*
D26*
X189250000Y-95750000D02*
X190500000Y-94500000D01*
X181250000Y-88000000D02*
X181250000Y-86750000D01*
D25*
X106500000Y-127299016D02*
X106500000Y-122750000D01*
D26*
X182000000Y-92750000D02*
X178750000Y-92750000D01*
D24*
X146000000Y-88250000D02*
X133500000Y-100750000D01*
D26*
X176000000Y-90000000D02*
X174500000Y-90000000D01*
D24*
X171250000Y-79750000D02*
X171250000Y-89000000D01*
D27*
X106000000Y-102000000D02*
X110875000Y-106875000D01*
D26*
X184000000Y-90750000D02*
X182000000Y-92750000D01*
D24*
X171250000Y-89000000D02*
X172250000Y-90000000D01*
X169750000Y-76500000D02*
X150500000Y-76500000D01*
X146000000Y-81000000D02*
X146000000Y-88250000D01*
X166750000Y-88500000D02*
X166750000Y-85750000D01*
D25*
X106500000Y-122750000D02*
X119500000Y-109750000D01*
D24*
X171250000Y-79750000D02*
X171250000Y-80500000D01*
D25*
X106526000Y-127325016D02*
X106500000Y-127299016D01*
%TO.N,+5V*%
X146750000Y-118250000D02*
X155000000Y-118250000D01*
X144350000Y-108570000D02*
X144350000Y-115850000D01*
X158500000Y-69000000D02*
X157750000Y-68250000D01*
X124500000Y-86000000D02*
X142250000Y-68250000D01*
X148880000Y-104040000D02*
X144350000Y-108570000D01*
X157750000Y-68250000D02*
X144250000Y-68250000D01*
X144350000Y-115850000D02*
X146750000Y-118250000D01*
X129500000Y-95250000D02*
X124500000Y-90250000D01*
X135500000Y-95250000D02*
X129500000Y-95250000D01*
X144250000Y-68250000D02*
X143750000Y-68250000D01*
X142250000Y-68250000D02*
X144250000Y-68250000D01*
D26*
%TO.N,+10V*%
X145577500Y-139672500D02*
X145577500Y-132762500D01*
X147287500Y-141762500D02*
X147287500Y-141382500D01*
X141287500Y-143762500D02*
X141737500Y-143762500D01*
X145577500Y-139922500D02*
X145577500Y-139672500D01*
X141737500Y-143762500D02*
X145577500Y-139922500D01*
X147287500Y-141382500D02*
X145577500Y-139672500D01*
D25*
%TO.N,VUSB*%
X142150000Y-66750000D02*
X140500000Y-65100000D01*
D27*
X151750000Y-65500000D02*
X151750000Y-65750000D01*
D25*
X151750000Y-65500000D02*
X150500000Y-66750000D01*
X150500000Y-66750000D02*
X142150000Y-66750000D01*
D27*
%TO.N,/I2C.INT*%
X180640000Y-90640000D02*
X174000000Y-84000000D01*
X174000000Y-84000000D02*
X174000000Y-74250000D01*
%TO.N,/DAC_AMP/AUD_RADIO*%
X157250000Y-99250000D02*
X149790000Y-99250000D01*
X161500000Y-103500000D02*
X157250000Y-99250000D01*
X148880000Y-100160000D02*
X148880000Y-101500000D01*
X149790000Y-99250000D02*
X148880000Y-100160000D01*
D26*
%TO.N,/AUDIO_SEL*%
X185000000Y-93000000D02*
X186750000Y-93000000D01*
X169750000Y-102000000D02*
X176000000Y-102000000D01*
X155750000Y-116000000D02*
X169750000Y-102000000D01*
X150000000Y-116000000D02*
X155750000Y-116000000D01*
X176000000Y-102000000D02*
X185000000Y-93000000D01*
D27*
%TO.N,/USB_ESP_D-*%
X147857160Y-71600000D02*
X166150000Y-71600000D01*
X187469713Y-86550474D02*
X187681846Y-86550474D01*
X147100000Y-70842840D02*
X147857160Y-71600000D01*
X147100000Y-70750000D02*
X147100000Y-70842840D01*
X167650000Y-70100000D02*
X177600000Y-70100000D01*
X184400000Y-76900000D02*
X184400000Y-83480760D01*
X166150000Y-71600000D02*
X167650000Y-70100000D01*
X177600000Y-70100000D02*
X184400000Y-76900000D01*
X184400000Y-83480760D02*
X187469713Y-86550474D01*
%TO.N,/AMP_SD*%
X188250000Y-93000000D02*
X169250000Y-112000000D01*
X169250000Y-112000000D02*
X164250000Y-112000000D01*
X161500000Y-114750000D02*
X161405000Y-114750000D01*
X164250000Y-112000000D02*
X161500000Y-114750000D01*
%TO.N,/USB_ESP_D+*%
X183100000Y-84019240D02*
X186550474Y-87469713D01*
X183100000Y-77438480D02*
X183100000Y-84019240D01*
X147318680Y-72900000D02*
X166688480Y-72900000D01*
X166688480Y-72900000D02*
X168188480Y-71400000D01*
X145800000Y-71381320D02*
X147318680Y-72900000D01*
X177061520Y-71400000D02*
X183100000Y-77438480D01*
X145800000Y-70750000D02*
X145800000Y-71381320D01*
X168188480Y-71400000D02*
X177061520Y-71400000D01*
X186550474Y-87469713D02*
X186550474Y-87681846D01*
%TD*%
%TA.AperFunction,Conductor*%
%TO.N,GND*%
G36*
X194203032Y-55500649D02*
G01*
X194267797Y-55503830D01*
X194566338Y-55518497D01*
X194578440Y-55519689D01*
X194935230Y-55572613D01*
X194947140Y-55574982D01*
X195297046Y-55662629D01*
X195308663Y-55666154D01*
X195648275Y-55787669D01*
X195659497Y-55792317D01*
X195985582Y-55946543D01*
X195996290Y-55952267D01*
X196305659Y-56137696D01*
X196315777Y-56144456D01*
X196605488Y-56359321D01*
X196614894Y-56367041D01*
X196882146Y-56609264D01*
X196890735Y-56617853D01*
X197056808Y-56801086D01*
X197132958Y-56885105D01*
X197140678Y-56894511D01*
X197355543Y-57184222D01*
X197362303Y-57194340D01*
X197526001Y-57467454D01*
X197547725Y-57503697D01*
X197553460Y-57514425D01*
X197585737Y-57582669D01*
X197707679Y-57840495D01*
X197712334Y-57851734D01*
X197827479Y-58173543D01*
X197833840Y-58191319D01*
X197837373Y-58202964D01*
X197925014Y-58552846D01*
X197927388Y-58564782D01*
X197980309Y-58921555D01*
X197981502Y-58933664D01*
X197999351Y-59296967D01*
X197999500Y-59303052D01*
X197999500Y-74126000D01*
X197979815Y-74193039D01*
X197927011Y-74238794D01*
X197875500Y-74250000D01*
X195000000Y-74250000D01*
X195000000Y-84626000D01*
X194980315Y-84693039D01*
X194927511Y-84738794D01*
X194876000Y-84750000D01*
X193000000Y-84750000D01*
X193000000Y-89000000D01*
X194876000Y-89000000D01*
X194943039Y-89019685D01*
X194988794Y-89072489D01*
X195000000Y-89124000D01*
X195000000Y-89750000D01*
X197875500Y-89750000D01*
X197942539Y-89769685D01*
X197988294Y-89822489D01*
X197999500Y-89874000D01*
X197999500Y-150696947D01*
X197999351Y-150703032D01*
X197981502Y-151066335D01*
X197980309Y-151078444D01*
X197927388Y-151435217D01*
X197925014Y-151447153D01*
X197837373Y-151797035D01*
X197833840Y-151808680D01*
X197712335Y-152148262D01*
X197707679Y-152159504D01*
X197553462Y-152485570D01*
X197547725Y-152496302D01*
X197362303Y-152805659D01*
X197355543Y-152815777D01*
X197140678Y-153105488D01*
X197132958Y-153114894D01*
X196890743Y-153382138D01*
X196882138Y-153390743D01*
X196614894Y-153632958D01*
X196605488Y-153640678D01*
X196315777Y-153855543D01*
X196305659Y-153862303D01*
X195996302Y-154047725D01*
X195985570Y-154053462D01*
X195659504Y-154207679D01*
X195648262Y-154212335D01*
X195308680Y-154333840D01*
X195297035Y-154337373D01*
X194947153Y-154425014D01*
X194935217Y-154427388D01*
X194578444Y-154480309D01*
X194566335Y-154481502D01*
X194203033Y-154499351D01*
X194196948Y-154499500D01*
X184250000Y-154499500D01*
X184250000Y-137500000D01*
X173500000Y-126750000D01*
X107375500Y-126750000D01*
X107375500Y-123164006D01*
X107395185Y-123096967D01*
X107411819Y-123076325D01*
X110738152Y-119749992D01*
X114394500Y-119749992D01*
X114394500Y-125770633D01*
X114415132Y-125927340D01*
X114415132Y-125927341D01*
X114475620Y-126073373D01*
X114475621Y-126073375D01*
X114475622Y-126073376D01*
X114571847Y-126198779D01*
X114697250Y-126295004D01*
X114843285Y-126355494D01*
X115000000Y-126376126D01*
X115000007Y-126376126D01*
X125249993Y-126376126D01*
X125250000Y-126376126D01*
X125406715Y-126355494D01*
X125552750Y-126295004D01*
X125678153Y-126198779D01*
X125774378Y-126073376D01*
X125834868Y-125927341D01*
X125855500Y-125770626D01*
X125855500Y-117270626D01*
X125834868Y-117113911D01*
X125774378Y-116967876D01*
X125678153Y-116842473D01*
X125552750Y-116746248D01*
X125552749Y-116746247D01*
X125552747Y-116746246D01*
X125458344Y-116707143D01*
X125406715Y-116685758D01*
X125387125Y-116683179D01*
X125250007Y-116665126D01*
X125250000Y-116665126D01*
X122000000Y-116665126D01*
X121999992Y-116665126D01*
X121843285Y-116685758D01*
X121843284Y-116685758D01*
X121697252Y-116746246D01*
X121571847Y-116842473D01*
X121475620Y-116967878D01*
X121415132Y-117113910D01*
X121415132Y-117113911D01*
X121394500Y-117270618D01*
X121394500Y-119038973D01*
X121374815Y-119106012D01*
X121322011Y-119151767D01*
X121270135Y-119162972D01*
X115001863Y-119144502D01*
X115001863Y-119144503D01*
X114999999Y-119144499D01*
X114843285Y-119165132D01*
X114843284Y-119165132D01*
X114697252Y-119225620D01*
X114571847Y-119321847D01*
X114475620Y-119447252D01*
X114415132Y-119593284D01*
X114415132Y-119593285D01*
X114394500Y-119749992D01*
X110738152Y-119749992D01*
X119351325Y-111136819D01*
X119412648Y-111103334D01*
X119439006Y-111100500D01*
X127079055Y-111100500D01*
X127079057Y-111100500D01*
X127231784Y-111059577D01*
X127368716Y-110980520D01*
X127480520Y-110868716D01*
X127559577Y-110731784D01*
X127600500Y-110579057D01*
X127600500Y-108483766D01*
X143474500Y-108483766D01*
X143474500Y-115936233D01*
X143508143Y-116105366D01*
X143508146Y-116105378D01*
X143574138Y-116264698D01*
X143574145Y-116264711D01*
X143669954Y-116408098D01*
X143669957Y-116408102D01*
X146069955Y-118808099D01*
X146191898Y-118930042D01*
X146191902Y-118930046D01*
X146335288Y-119025854D01*
X146335301Y-119025861D01*
X146494621Y-119091853D01*
X146494626Y-119091855D01*
X146663766Y-119125499D01*
X146663769Y-119125500D01*
X146663771Y-119125500D01*
X155086231Y-119125500D01*
X155086232Y-119125499D01*
X155255374Y-119091855D01*
X155414705Y-119025858D01*
X155558099Y-118930045D01*
X155680045Y-118808099D01*
X155775858Y-118664705D01*
X155841855Y-118505374D01*
X155875500Y-118336229D01*
X155875500Y-118163771D01*
X155875500Y-118163768D01*
X155875499Y-118163766D01*
X155841856Y-117994633D01*
X155841855Y-117994626D01*
X155841853Y-117994621D01*
X155775861Y-117835301D01*
X155775854Y-117835288D01*
X155680045Y-117691901D01*
X155680042Y-117691897D01*
X155558102Y-117569957D01*
X155558098Y-117569954D01*
X155414711Y-117474145D01*
X155414698Y-117474138D01*
X155255378Y-117408146D01*
X155255366Y-117408143D01*
X155086232Y-117374500D01*
X155086229Y-117374500D01*
X147164006Y-117374500D01*
X147096967Y-117354815D01*
X147076325Y-117338181D01*
X145261819Y-115523675D01*
X145228334Y-115462352D01*
X145225500Y-115435994D01*
X145225500Y-111541902D01*
X147379500Y-111541902D01*
X147379500Y-111778097D01*
X147416446Y-112011368D01*
X147489433Y-112235996D01*
X147596657Y-112446433D01*
X147735483Y-112637510D01*
X147902490Y-112804517D01*
X148093567Y-112943343D01*
X148192991Y-112994002D01*
X148304003Y-113050566D01*
X148304005Y-113050566D01*
X148304008Y-113050568D01*
X148424412Y-113089689D01*
X148528631Y-113123553D01*
X148761903Y-113160500D01*
X148761908Y-113160500D01*
X148998097Y-113160500D01*
X149231368Y-113123553D01*
X149455992Y-113050568D01*
X149666433Y-112943343D01*
X149857510Y-112804517D01*
X150024517Y-112637510D01*
X150163343Y-112446433D01*
X150270568Y-112235992D01*
X150343553Y-112011368D01*
X150380500Y-111778097D01*
X150380500Y-111541902D01*
X152459500Y-111541902D01*
X152459500Y-111778097D01*
X152496446Y-112011368D01*
X152569433Y-112235996D01*
X152676657Y-112446433D01*
X152815483Y-112637510D01*
X152982490Y-112804517D01*
X153173567Y-112943343D01*
X153272991Y-112994002D01*
X153384003Y-113050566D01*
X153384005Y-113050566D01*
X153384008Y-113050568D01*
X153504412Y-113089689D01*
X153608631Y-113123553D01*
X153841903Y-113160500D01*
X153841908Y-113160500D01*
X154078097Y-113160500D01*
X154311368Y-113123553D01*
X154535992Y-113050568D01*
X154746433Y-112943343D01*
X154937510Y-112804517D01*
X155104517Y-112637510D01*
X155243343Y-112446433D01*
X155350568Y-112235992D01*
X155423553Y-112011368D01*
X155460500Y-111778097D01*
X155460500Y-111541902D01*
X155423553Y-111308631D01*
X155367727Y-111136819D01*
X155350568Y-111084008D01*
X155350566Y-111084005D01*
X155350566Y-111084003D01*
X155243342Y-110873566D01*
X155239819Y-110868717D01*
X155104517Y-110682490D01*
X154937510Y-110515483D01*
X154746433Y-110376657D01*
X154535996Y-110269433D01*
X154311368Y-110196446D01*
X154078097Y-110159500D01*
X154078092Y-110159500D01*
X153841908Y-110159500D01*
X153841903Y-110159500D01*
X153608631Y-110196446D01*
X153384003Y-110269433D01*
X153173566Y-110376657D01*
X153064550Y-110455862D01*
X152982490Y-110515483D01*
X152982488Y-110515485D01*
X152982487Y-110515485D01*
X152815485Y-110682487D01*
X152815485Y-110682488D01*
X152815483Y-110682490D01*
X152755862Y-110764550D01*
X152676657Y-110873566D01*
X152569433Y-111084003D01*
X152496446Y-111308631D01*
X152459500Y-111541902D01*
X150380500Y-111541902D01*
X150343553Y-111308631D01*
X150287727Y-111136819D01*
X150270568Y-111084008D01*
X150270566Y-111084005D01*
X150270566Y-111084003D01*
X150163342Y-110873566D01*
X150159819Y-110868717D01*
X150024517Y-110682490D01*
X149857510Y-110515483D01*
X149666433Y-110376657D01*
X149455996Y-110269433D01*
X149231368Y-110196446D01*
X148998097Y-110159500D01*
X148998092Y-110159500D01*
X148761908Y-110159500D01*
X148761903Y-110159500D01*
X148528631Y-110196446D01*
X148304003Y-110269433D01*
X148093566Y-110376657D01*
X147984550Y-110455862D01*
X147902490Y-110515483D01*
X147902488Y-110515485D01*
X147902487Y-110515485D01*
X147735485Y-110682487D01*
X147735485Y-110682488D01*
X147735483Y-110682490D01*
X147675862Y-110764550D01*
X147596657Y-110873566D01*
X147489433Y-111084003D01*
X147416446Y-111308631D01*
X147379500Y-111541902D01*
X145225500Y-111541902D01*
X145225500Y-108984005D01*
X145245185Y-108916966D01*
X145261814Y-108896329D01*
X148592694Y-105565448D01*
X148654015Y-105531965D01*
X148699768Y-105530658D01*
X148740147Y-105537053D01*
X148761905Y-105540500D01*
X148761908Y-105540500D01*
X148998097Y-105540500D01*
X149231368Y-105503553D01*
X149455992Y-105430568D01*
X149666433Y-105323343D01*
X149857510Y-105184517D01*
X150024517Y-105017510D01*
X150163343Y-104826433D01*
X150270568Y-104615992D01*
X150343553Y-104391368D01*
X150380500Y-104158097D01*
X150380500Y-103921902D01*
X150343553Y-103688631D01*
X150270566Y-103464003D01*
X150214002Y-103352991D01*
X150163343Y-103253567D01*
X150073449Y-103129839D01*
X150049970Y-103064035D01*
X150065795Y-102995981D01*
X150114744Y-102948410D01*
X150114546Y-102948047D01*
X150115851Y-102947334D01*
X150115901Y-102947286D01*
X150116111Y-102947192D01*
X150122326Y-102943797D01*
X150122331Y-102943796D01*
X150237546Y-102857546D01*
X150323796Y-102742331D01*
X150374091Y-102607483D01*
X150380500Y-102547873D01*
X150380499Y-100452128D01*
X150374091Y-100392517D01*
X150360278Y-100355483D01*
X150323797Y-100257671D01*
X150323793Y-100257664D01*
X150237547Y-100142455D01*
X150227568Y-100134985D01*
X150212581Y-100123765D01*
X150170712Y-100067832D01*
X150165728Y-99998140D01*
X150199214Y-99936818D01*
X150260538Y-99903333D01*
X150286894Y-99900500D01*
X153277562Y-99900500D01*
X153344601Y-99920185D01*
X153390356Y-99972989D01*
X153400300Y-100042147D01*
X153371275Y-100105703D01*
X153333857Y-100134985D01*
X153173566Y-100216657D01*
X153117119Y-100257669D01*
X152982490Y-100355483D01*
X152982488Y-100355485D01*
X152982487Y-100355485D01*
X152815485Y-100522487D01*
X152815485Y-100522488D01*
X152815483Y-100522490D01*
X152755862Y-100604550D01*
X152676657Y-100713566D01*
X152569433Y-100924003D01*
X152496446Y-101148631D01*
X152459500Y-101381902D01*
X152459500Y-101618097D01*
X152496446Y-101851368D01*
X152569433Y-102075996D01*
X152649685Y-102233497D01*
X152676657Y-102286433D01*
X152815483Y-102477510D01*
X152982490Y-102644517D01*
X153017127Y-102669683D01*
X153059792Y-102725013D01*
X153065771Y-102794626D01*
X153033165Y-102856421D01*
X153017130Y-102870315D01*
X153006264Y-102878210D01*
X152982488Y-102895484D01*
X152815485Y-103062487D01*
X152815485Y-103062488D01*
X152815483Y-103062490D01*
X152755862Y-103144550D01*
X152676657Y-103253566D01*
X152569433Y-103464003D01*
X152496446Y-103688631D01*
X152459500Y-103921902D01*
X152459500Y-104158097D01*
X152496446Y-104391368D01*
X152569433Y-104615996D01*
X152676657Y-104826433D01*
X152815483Y-105017510D01*
X152982490Y-105184517D01*
X153173567Y-105323343D01*
X153272991Y-105374002D01*
X153384003Y-105430566D01*
X153384005Y-105430566D01*
X153384008Y-105430568D01*
X153504412Y-105469689D01*
X153608631Y-105503553D01*
X153841903Y-105540500D01*
X153841908Y-105540500D01*
X154078097Y-105540500D01*
X154311368Y-105503553D01*
X154535992Y-105430568D01*
X154746433Y-105323343D01*
X154937510Y-105184517D01*
X155104517Y-105017510D01*
X155243343Y-104826433D01*
X155350568Y-104615992D01*
X155423553Y-104391368D01*
X155460500Y-104158097D01*
X155460500Y-103921902D01*
X155423553Y-103688631D01*
X155350566Y-103464003D01*
X155294002Y-103352991D01*
X155243343Y-103253567D01*
X155104517Y-103062490D01*
X154937510Y-102895483D01*
X154902872Y-102870317D01*
X154860207Y-102814989D01*
X154854228Y-102745375D01*
X154886833Y-102683580D01*
X154902873Y-102669682D01*
X154909199Y-102665086D01*
X154937510Y-102644517D01*
X155104517Y-102477510D01*
X155243343Y-102286433D01*
X155350568Y-102075992D01*
X155423553Y-101851368D01*
X155439529Y-101750500D01*
X155460500Y-101618097D01*
X155460500Y-101381902D01*
X155423553Y-101148631D01*
X155350566Y-100924003D01*
X155243342Y-100713566D01*
X155104517Y-100522490D01*
X154937510Y-100355483D01*
X154746433Y-100216657D01*
X154656714Y-100170943D01*
X154586143Y-100134985D01*
X154535347Y-100087010D01*
X154518552Y-100019189D01*
X154541089Y-99953054D01*
X154595805Y-99909603D01*
X154642438Y-99900500D01*
X156929192Y-99900500D01*
X156996231Y-99920185D01*
X157016873Y-99936819D01*
X160682984Y-103602930D01*
X160716469Y-103664253D01*
X160716920Y-103666420D01*
X160730261Y-103733489D01*
X160730264Y-103733501D01*
X160790602Y-103879172D01*
X160790609Y-103879185D01*
X160878210Y-104010288D01*
X160878213Y-104010292D01*
X160989707Y-104121786D01*
X160989711Y-104121789D01*
X161120814Y-104209390D01*
X161120827Y-104209397D01*
X161266498Y-104269735D01*
X161266503Y-104269737D01*
X161421153Y-104300499D01*
X161421156Y-104300500D01*
X161421158Y-104300500D01*
X161578844Y-104300500D01*
X161578845Y-104300499D01*
X161733497Y-104269737D01*
X161879179Y-104209394D01*
X162010289Y-104121789D01*
X162121789Y-104010289D01*
X162209394Y-103879179D01*
X162269737Y-103733497D01*
X162300500Y-103578842D01*
X162300500Y-103421158D01*
X162300500Y-103421155D01*
X162300499Y-103421153D01*
X162269738Y-103266510D01*
X162269737Y-103266503D01*
X162264377Y-103253563D01*
X162209397Y-103120827D01*
X162209390Y-103120814D01*
X162121789Y-102989711D01*
X162121786Y-102989707D01*
X162010292Y-102878213D01*
X162010288Y-102878210D01*
X161879185Y-102790609D01*
X161879172Y-102790602D01*
X161733501Y-102730264D01*
X161733489Y-102730261D01*
X161666420Y-102716920D01*
X161604509Y-102684535D01*
X161602930Y-102682984D01*
X157950352Y-99030405D01*
X157664673Y-98744726D01*
X157664669Y-98744723D01*
X157558127Y-98673535D01*
X157439744Y-98624499D01*
X157439738Y-98624497D01*
X157314071Y-98599500D01*
X157314069Y-98599500D01*
X149725931Y-98599500D01*
X149725929Y-98599500D01*
X149600261Y-98624497D01*
X149600255Y-98624499D01*
X149481870Y-98673535D01*
X149375331Y-98744722D01*
X149375324Y-98744728D01*
X148374727Y-99745325D01*
X148374721Y-99745332D01*
X148320511Y-99826464D01*
X148320512Y-99826465D01*
X148303533Y-99851874D01*
X148274092Y-99922953D01*
X148230250Y-99977357D01*
X148163956Y-99999421D01*
X148159531Y-99999500D01*
X147832130Y-99999500D01*
X147832123Y-99999501D01*
X147772516Y-100005908D01*
X147637671Y-100056202D01*
X147637664Y-100056206D01*
X147522455Y-100142452D01*
X147522452Y-100142455D01*
X147436206Y-100257664D01*
X147436202Y-100257671D01*
X147385908Y-100392517D01*
X147379501Y-100452116D01*
X147379501Y-100452123D01*
X147379500Y-100452135D01*
X147379500Y-102547870D01*
X147379501Y-102547876D01*
X147385908Y-102607483D01*
X147436202Y-102742328D01*
X147436206Y-102742335D01*
X147522452Y-102857544D01*
X147522455Y-102857547D01*
X147637664Y-102943793D01*
X147645454Y-102948047D01*
X147643646Y-102951357D01*
X147685351Y-102982449D01*
X147709897Y-103047865D01*
X147695180Y-103116167D01*
X147686549Y-103129840D01*
X147596659Y-103253563D01*
X147489433Y-103464003D01*
X147416446Y-103688631D01*
X147379500Y-103921902D01*
X147379500Y-103921908D01*
X147379500Y-104158092D01*
X147389341Y-104220228D01*
X147380385Y-104289521D01*
X147354548Y-104327306D01*
X143791901Y-107889955D01*
X143730927Y-107950929D01*
X143669953Y-108011902D01*
X143574145Y-108155288D01*
X143574138Y-108155301D01*
X143508146Y-108314621D01*
X143508143Y-108314633D01*
X143474500Y-108483766D01*
X127600500Y-108483766D01*
X127600500Y-106170943D01*
X127600500Y-101874500D01*
X127620185Y-101807461D01*
X127672989Y-101761706D01*
X127724500Y-101750500D01*
X133598542Y-101750500D01*
X133614175Y-101747390D01*
X133695188Y-101731275D01*
X133791836Y-101712051D01*
X133845689Y-101689744D01*
X133973914Y-101636632D01*
X134137782Y-101527139D01*
X134277139Y-101387782D01*
X134277139Y-101387780D01*
X134287347Y-101377573D01*
X134287348Y-101377570D01*
X145912320Y-89752599D01*
X145973641Y-89719116D01*
X146043333Y-89724100D01*
X146087680Y-89752601D01*
X147612215Y-91277137D01*
X147612219Y-91277140D01*
X147776079Y-91386628D01*
X147776085Y-91386631D01*
X147776086Y-91386632D01*
X147958165Y-91462052D01*
X148151455Y-91500500D01*
X148151458Y-91500501D01*
X148151460Y-91500501D01*
X148354655Y-91500501D01*
X148354675Y-91500500D01*
X164848543Y-91500500D01*
X164885597Y-91493128D01*
X164993538Y-91471658D01*
X165041836Y-91462051D01*
X165095165Y-91439961D01*
X165223914Y-91386632D01*
X165387782Y-91277139D01*
X165527139Y-91137782D01*
X165527140Y-91137779D01*
X165534206Y-91130714D01*
X165534209Y-91130710D01*
X167387778Y-89277141D01*
X167387782Y-89277139D01*
X167527139Y-89137782D01*
X167636632Y-88973914D01*
X167695866Y-88830909D01*
X167712051Y-88791836D01*
X167750500Y-88598540D01*
X167750500Y-88401460D01*
X167750500Y-85651459D01*
X167750500Y-85651456D01*
X167712052Y-85458170D01*
X167712051Y-85458169D01*
X167712051Y-85458165D01*
X167712049Y-85458160D01*
X167636635Y-85276092D01*
X167636628Y-85276079D01*
X167527139Y-85112218D01*
X167527136Y-85112214D01*
X167387785Y-84972863D01*
X167387781Y-84972860D01*
X167223920Y-84863371D01*
X167223907Y-84863364D01*
X167041839Y-84787950D01*
X167041829Y-84787947D01*
X166848543Y-84749500D01*
X166848541Y-84749500D01*
X166651459Y-84749500D01*
X166651457Y-84749500D01*
X166458170Y-84787947D01*
X166458160Y-84787950D01*
X166276092Y-84863364D01*
X166276079Y-84863371D01*
X166112218Y-84972860D01*
X166112214Y-84972863D01*
X165972863Y-85112214D01*
X165972860Y-85112218D01*
X165863371Y-85276079D01*
X165863364Y-85276092D01*
X165787950Y-85458160D01*
X165787947Y-85458170D01*
X165749500Y-85651456D01*
X165749500Y-88034218D01*
X165729815Y-88101257D01*
X165713181Y-88121899D01*
X164371899Y-89463181D01*
X164310576Y-89496666D01*
X164284218Y-89499500D01*
X148715783Y-89499500D01*
X148648744Y-89479815D01*
X148628102Y-89463181D01*
X147036819Y-87871898D01*
X147003334Y-87810575D01*
X147000500Y-87784217D01*
X147000500Y-81465782D01*
X147020185Y-81398743D01*
X147036819Y-81378101D01*
X150878101Y-77536819D01*
X150939424Y-77503334D01*
X150965782Y-77500500D01*
X169651459Y-77500500D01*
X170125500Y-77500500D01*
X170192539Y-77520185D01*
X170238294Y-77572989D01*
X170249500Y-77624500D01*
X170249500Y-79651459D01*
X170249500Y-89098541D01*
X170254564Y-89124000D01*
X170257306Y-89137781D01*
X170257306Y-89137784D01*
X170285022Y-89277125D01*
X170287948Y-89291832D01*
X170287950Y-89291840D01*
X170363364Y-89473907D01*
X170363371Y-89473920D01*
X170472859Y-89637780D01*
X170472860Y-89637781D01*
X170472861Y-89637782D01*
X170612218Y-89777139D01*
X170612219Y-89777139D01*
X170619286Y-89784206D01*
X170619285Y-89784206D01*
X170619289Y-89784209D01*
X171612215Y-90777137D01*
X171612219Y-90777140D01*
X171776079Y-90886628D01*
X171776085Y-90886631D01*
X171776086Y-90886632D01*
X171958165Y-90962052D01*
X172151455Y-91000500D01*
X172151458Y-91000501D01*
X172151460Y-91000501D01*
X172354655Y-91000501D01*
X172354675Y-91000500D01*
X173384046Y-91000500D01*
X173405488Y-91006796D01*
X173427777Y-91008467D01*
X173441644Y-91017412D01*
X173451085Y-91020185D01*
X173458696Y-91025488D01*
X173466672Y-91031501D01*
X173467454Y-91032546D01*
X173552632Y-91096310D01*
X173552877Y-91096495D01*
X173573606Y-91124385D01*
X173594409Y-91152175D01*
X173594424Y-91152394D01*
X173594556Y-91152571D01*
X173596911Y-91187165D01*
X173599393Y-91221867D01*
X173599289Y-91222097D01*
X173599302Y-91222279D01*
X173598798Y-91223193D01*
X173578545Y-91268392D01*
X173494624Y-91383900D01*
X173410620Y-91548764D01*
X173410619Y-91548767D01*
X173353445Y-91724734D01*
X173324500Y-91907486D01*
X173324500Y-92092513D01*
X173353445Y-92275265D01*
X173410619Y-92451232D01*
X173410620Y-92451235D01*
X173472201Y-92572093D01*
X173494622Y-92616096D01*
X173603379Y-92765787D01*
X173734213Y-92896621D01*
X173738421Y-92899678D01*
X173738432Y-92899686D01*
X173781094Y-92955019D01*
X173787069Y-93024633D01*
X173754459Y-93086426D01*
X173738432Y-93100314D01*
X173734210Y-93103381D01*
X173603381Y-93234210D01*
X173603381Y-93234211D01*
X173603379Y-93234213D01*
X173574074Y-93274548D01*
X173494622Y-93383903D01*
X173410620Y-93548764D01*
X173410619Y-93548767D01*
X173353445Y-93724734D01*
X173324500Y-93907486D01*
X173324500Y-94092513D01*
X173353445Y-94275265D01*
X173410619Y-94451232D01*
X173410620Y-94451235D01*
X173473131Y-94573918D01*
X173494622Y-94616096D01*
X173603379Y-94765787D01*
X173734213Y-94896621D01*
X173738421Y-94899678D01*
X173738432Y-94899686D01*
X173781094Y-94955019D01*
X173787069Y-95024633D01*
X173754459Y-95086426D01*
X173738432Y-95100314D01*
X173734210Y-95103381D01*
X173603381Y-95234210D01*
X173603381Y-95234211D01*
X173603379Y-95234213D01*
X173556672Y-95298499D01*
X173494622Y-95383903D01*
X173410620Y-95548764D01*
X173410619Y-95548767D01*
X173353445Y-95724734D01*
X173324500Y-95907486D01*
X173324500Y-96092513D01*
X173353445Y-96275265D01*
X173410619Y-96451232D01*
X173410620Y-96451235D01*
X173461199Y-96550500D01*
X173494622Y-96616096D01*
X173603379Y-96765787D01*
X173734213Y-96896621D01*
X173734216Y-96896623D01*
X173808831Y-96950834D01*
X173823806Y-96970254D01*
X174453554Y-97600000D01*
X174447339Y-97600000D01*
X174345606Y-97627259D01*
X174254394Y-97679920D01*
X174179920Y-97754394D01*
X174127259Y-97845606D01*
X174100000Y-97947339D01*
X174100000Y-97953553D01*
X173510015Y-97363568D01*
X173495049Y-97384167D01*
X173411084Y-97548956D01*
X173411083Y-97548959D01*
X173353933Y-97724852D01*
X173325000Y-97907526D01*
X173325000Y-98092473D01*
X173353933Y-98275147D01*
X173411083Y-98451040D01*
X173411084Y-98451043D01*
X173495050Y-98615834D01*
X173510015Y-98636430D01*
X173510016Y-98636431D01*
X174100000Y-98046447D01*
X174100000Y-98052661D01*
X174127259Y-98154394D01*
X174179920Y-98245606D01*
X174254394Y-98320080D01*
X174345606Y-98372741D01*
X174447339Y-98400000D01*
X174453553Y-98400000D01*
X173863568Y-98989983D01*
X173863568Y-98989984D01*
X173884165Y-99004949D01*
X174048956Y-99088915D01*
X174048959Y-99088916D01*
X174224852Y-99146066D01*
X174407527Y-99175000D01*
X174592473Y-99175000D01*
X174775147Y-99146066D01*
X174951040Y-99088916D01*
X174951043Y-99088915D01*
X175115836Y-99004947D01*
X175115845Y-99004942D01*
X175136430Y-98989984D01*
X175136431Y-98989983D01*
X174546448Y-98400000D01*
X174552661Y-98400000D01*
X174654394Y-98372741D01*
X174745606Y-98320080D01*
X174820080Y-98245606D01*
X174872741Y-98154394D01*
X174900000Y-98052661D01*
X174900000Y-98046447D01*
X175489983Y-98636430D01*
X175489984Y-98636430D01*
X175504942Y-98615845D01*
X175504947Y-98615836D01*
X175588915Y-98451043D01*
X175588916Y-98451040D01*
X175646066Y-98275147D01*
X175675000Y-98092473D01*
X175675000Y-97907526D01*
X175646066Y-97724852D01*
X175588916Y-97548959D01*
X175588915Y-97548956D01*
X175504949Y-97384165D01*
X175489983Y-97363568D01*
X174900000Y-97953551D01*
X174900000Y-97947339D01*
X174872741Y-97845606D01*
X174820080Y-97754394D01*
X174745606Y-97679920D01*
X174654394Y-97627259D01*
X174552661Y-97600000D01*
X174546447Y-97600000D01*
X175160675Y-96985771D01*
X175191165Y-96950836D01*
X175265787Y-96896621D01*
X175396621Y-96765787D01*
X175505378Y-96616096D01*
X175589379Y-96451235D01*
X175646555Y-96275264D01*
X175675500Y-96092514D01*
X175675500Y-95907486D01*
X175646555Y-95724736D01*
X175589379Y-95548765D01*
X175589379Y-95548764D01*
X175505377Y-95383903D01*
X175396621Y-95234213D01*
X175265787Y-95103379D01*
X175261576Y-95100319D01*
X175218909Y-95044994D01*
X175212926Y-94975381D01*
X175245529Y-94913585D01*
X175261570Y-94899684D01*
X175265787Y-94896621D01*
X175396621Y-94765787D01*
X175505378Y-94616096D01*
X175589379Y-94451235D01*
X175646555Y-94275264D01*
X175675500Y-94092514D01*
X175675500Y-93907486D01*
X175646555Y-93724736D01*
X175589379Y-93548765D01*
X175589379Y-93548764D01*
X175546577Y-93464763D01*
X175505378Y-93383904D01*
X175396621Y-93234213D01*
X175265787Y-93103379D01*
X175261576Y-93100319D01*
X175218909Y-93044994D01*
X175212926Y-92975381D01*
X175245529Y-92913585D01*
X175261570Y-92899684D01*
X175265787Y-92896621D01*
X175396621Y-92765787D01*
X175505378Y-92616096D01*
X175589379Y-92451235D01*
X175646555Y-92275264D01*
X175675500Y-92092514D01*
X175675500Y-91907486D01*
X175646555Y-91724736D01*
X175589379Y-91548765D01*
X175589379Y-91548764D01*
X175534215Y-91440500D01*
X175505378Y-91383904D01*
X175421453Y-91268392D01*
X175397974Y-91202586D01*
X175413799Y-91134532D01*
X175447459Y-91096241D01*
X175532546Y-91032546D01*
X175618796Y-90917331D01*
X175618797Y-90917326D01*
X175623047Y-90909546D01*
X175626321Y-90911334D01*
X175657598Y-90869493D01*
X175723045Y-90845030D01*
X175791328Y-90859834D01*
X175819659Y-90881027D01*
X177031146Y-92092513D01*
X178167049Y-93228416D01*
X178249500Y-93310867D01*
X178271585Y-93332952D01*
X178394498Y-93415080D01*
X178394511Y-93415087D01*
X178531082Y-93471656D01*
X178531087Y-93471658D01*
X178531091Y-93471658D01*
X178531092Y-93471659D01*
X178676079Y-93500500D01*
X178676082Y-93500500D01*
X182073920Y-93500500D01*
X182171462Y-93481096D01*
X182218913Y-93471658D01*
X182355495Y-93415084D01*
X182409231Y-93379179D01*
X182409231Y-93379178D01*
X182409233Y-93379178D01*
X182474047Y-93335871D01*
X182478416Y-93332952D01*
X184274548Y-91536818D01*
X184335871Y-91503334D01*
X184362229Y-91500500D01*
X187887770Y-91500500D01*
X187954809Y-91520185D01*
X187975451Y-91536819D01*
X188426870Y-91988238D01*
X188460355Y-92049561D01*
X188455371Y-92119253D01*
X188413499Y-92175186D01*
X188348035Y-92199603D01*
X188334934Y-92199427D01*
X188334934Y-92199500D01*
X188171155Y-92199500D01*
X188016510Y-92230261D01*
X188016498Y-92230264D01*
X187870827Y-92290602D01*
X187870814Y-92290609D01*
X187739711Y-92378210D01*
X187739707Y-92378213D01*
X187628213Y-92489707D01*
X187603102Y-92527289D01*
X187549489Y-92572093D01*
X187480164Y-92580800D01*
X187417137Y-92550645D01*
X187396898Y-92527289D01*
X187371786Y-92489707D01*
X187260292Y-92378213D01*
X187260288Y-92378210D01*
X187129185Y-92290609D01*
X187129172Y-92290602D01*
X186983501Y-92230264D01*
X186983489Y-92230261D01*
X186828845Y-92199500D01*
X186828842Y-92199500D01*
X186671158Y-92199500D01*
X186671155Y-92199500D01*
X186516511Y-92230260D01*
X186516506Y-92230262D01*
X186516504Y-92230262D01*
X186516503Y-92230263D01*
X186492844Y-92240062D01*
X186445396Y-92249500D01*
X184926080Y-92249500D01*
X184781092Y-92278340D01*
X184781082Y-92278343D01*
X184644511Y-92334912D01*
X184644504Y-92334916D01*
X184628992Y-92345281D01*
X184621183Y-92350499D01*
X184621182Y-92350499D01*
X184521585Y-92417046D01*
X184521578Y-92417052D01*
X175725451Y-101213181D01*
X175664128Y-101246666D01*
X175637770Y-101249500D01*
X169676080Y-101249500D01*
X169531092Y-101278340D01*
X169531086Y-101278342D01*
X169394508Y-101334914D01*
X169394496Y-101334921D01*
X169345269Y-101367813D01*
X169271588Y-101417044D01*
X169271580Y-101417050D01*
X155475451Y-115213181D01*
X155414128Y-115246666D01*
X155387770Y-115249500D01*
X150304604Y-115249500D01*
X150257155Y-115240062D01*
X150233497Y-115230263D01*
X150233493Y-115230262D01*
X150233488Y-115230260D01*
X150078845Y-115199500D01*
X150078842Y-115199500D01*
X149921158Y-115199500D01*
X149921155Y-115199500D01*
X149766510Y-115230261D01*
X149766498Y-115230264D01*
X149620827Y-115290602D01*
X149620814Y-115290609D01*
X149489711Y-115378210D01*
X149489707Y-115378213D01*
X149378213Y-115489707D01*
X149378210Y-115489711D01*
X149290609Y-115620814D01*
X149290602Y-115620827D01*
X149230264Y-115766498D01*
X149230261Y-115766510D01*
X149199500Y-115921153D01*
X149199500Y-116078846D01*
X149230261Y-116233489D01*
X149230264Y-116233501D01*
X149290602Y-116379172D01*
X149290609Y-116379185D01*
X149378210Y-116510288D01*
X149378213Y-116510292D01*
X149489707Y-116621786D01*
X149489711Y-116621789D01*
X149620814Y-116709390D01*
X149620827Y-116709397D01*
X149709790Y-116746246D01*
X149766503Y-116769737D01*
X149921153Y-116800499D01*
X149921156Y-116800500D01*
X149921158Y-116800500D01*
X150078844Y-116800500D01*
X150078845Y-116800499D01*
X150155152Y-116785320D01*
X150233488Y-116769739D01*
X150233489Y-116769738D01*
X150233497Y-116769737D01*
X150257155Y-116759937D01*
X150304604Y-116750500D01*
X155823920Y-116750500D01*
X155921462Y-116731096D01*
X155968913Y-116721658D01*
X156105495Y-116665084D01*
X156170291Y-116621789D01*
X156170294Y-116621786D01*
X156170296Y-116621786D01*
X156199547Y-116602240D01*
X156228416Y-116582952D01*
X170024549Y-102786819D01*
X170085872Y-102753334D01*
X170112230Y-102750500D01*
X176073920Y-102750500D01*
X176175664Y-102730261D01*
X176218913Y-102721658D01*
X176355495Y-102665084D01*
X176420291Y-102621789D01*
X176420294Y-102621786D01*
X176420296Y-102621786D01*
X176449547Y-102602240D01*
X176478416Y-102582952D01*
X185274549Y-93786819D01*
X185335872Y-93753334D01*
X185362230Y-93750500D01*
X186280191Y-93750500D01*
X186347230Y-93770185D01*
X186392985Y-93822989D01*
X186402929Y-93892147D01*
X186373904Y-93955703D01*
X186367872Y-93962181D01*
X169016873Y-111313181D01*
X168955550Y-111346666D01*
X168929192Y-111349500D01*
X164185929Y-111349500D01*
X164060261Y-111374497D01*
X164060255Y-111374499D01*
X163941870Y-111423535D01*
X163835331Y-111494722D01*
X163835324Y-111494728D01*
X161416873Y-113913181D01*
X161355550Y-113946666D01*
X161329192Y-113949500D01*
X161326155Y-113949500D01*
X161171510Y-113980261D01*
X161171498Y-113980264D01*
X161025827Y-114040602D01*
X161025814Y-114040609D01*
X160894711Y-114128210D01*
X160894707Y-114128213D01*
X160783213Y-114239707D01*
X160783210Y-114239711D01*
X160695609Y-114370814D01*
X160695602Y-114370827D01*
X160635264Y-114516498D01*
X160635261Y-114516510D01*
X160604500Y-114671153D01*
X160604500Y-114828846D01*
X160635261Y-114983489D01*
X160635264Y-114983501D01*
X160695602Y-115129172D01*
X160695609Y-115129185D01*
X160783210Y-115260288D01*
X160783213Y-115260292D01*
X160894707Y-115371786D01*
X160894711Y-115371789D01*
X161025814Y-115459390D01*
X161025827Y-115459397D01*
X161099013Y-115489711D01*
X161171503Y-115519737D01*
X161326153Y-115550499D01*
X161326156Y-115550500D01*
X161326158Y-115550500D01*
X161483844Y-115550500D01*
X161483845Y-115550499D01*
X161638497Y-115519737D01*
X161784179Y-115459394D01*
X161915289Y-115371789D01*
X162026789Y-115260289D01*
X162114394Y-115129179D01*
X162157017Y-115026273D01*
X162183893Y-114986051D01*
X162307809Y-114862135D01*
X164604500Y-114862135D01*
X164604500Y-116847869D01*
X164604501Y-116847876D01*
X164610908Y-116907483D01*
X164661202Y-117042328D01*
X164661206Y-117042335D01*
X164747452Y-117157544D01*
X164747455Y-117157547D01*
X164862664Y-117243793D01*
X164862671Y-117243797D01*
X164907618Y-117260561D01*
X164997517Y-117294091D01*
X165057127Y-117300500D01*
X165326157Y-117300499D01*
X165326158Y-117300500D01*
X165483842Y-117300500D01*
X165483843Y-117300499D01*
X166288546Y-117300499D01*
X166288562Y-117300500D01*
X166296158Y-117300500D01*
X166461438Y-117300500D01*
X166461454Y-117300499D01*
X166722871Y-117300499D01*
X166722872Y-117300499D01*
X166782483Y-117294091D01*
X166917331Y-117243796D01*
X167032546Y-117157546D01*
X167118796Y-117042331D01*
X167169091Y-116907483D01*
X167175500Y-116847873D01*
X167175499Y-115288845D01*
X167175500Y-115288842D01*
X167175500Y-115131158D01*
X167175499Y-115131153D01*
X167175499Y-114862128D01*
X167169091Y-114802517D01*
X167120097Y-114671158D01*
X167118797Y-114667671D01*
X167118793Y-114667664D01*
X167032547Y-114552455D01*
X167032544Y-114552452D01*
X166917335Y-114466206D01*
X166917328Y-114466202D01*
X166782482Y-114415908D01*
X166782483Y-114415908D01*
X166722883Y-114409501D01*
X166722881Y-114409500D01*
X166722873Y-114409500D01*
X166453842Y-114409500D01*
X166296158Y-114409500D01*
X166296156Y-114409500D01*
X165483845Y-114409500D01*
X165483842Y-114409500D01*
X165326158Y-114409500D01*
X165326153Y-114409500D01*
X165057130Y-114409500D01*
X165057123Y-114409501D01*
X164997516Y-114415908D01*
X164862671Y-114466202D01*
X164862664Y-114466206D01*
X164747455Y-114552452D01*
X164747452Y-114552455D01*
X164661206Y-114667664D01*
X164661202Y-114667671D01*
X164610908Y-114802517D01*
X164608078Y-114828846D01*
X164604501Y-114862123D01*
X164604500Y-114862135D01*
X162307809Y-114862135D01*
X164483127Y-112686819D01*
X164544450Y-112653334D01*
X164570808Y-112650500D01*
X169314071Y-112650500D01*
X169398615Y-112633682D01*
X169439744Y-112625501D01*
X169558127Y-112576465D01*
X169664669Y-112505277D01*
X186772531Y-95397413D01*
X186833852Y-95363930D01*
X186903544Y-95368914D01*
X186959477Y-95410786D01*
X186983894Y-95476250D01*
X186980090Y-95510257D01*
X186981451Y-95510528D01*
X186949500Y-95671153D01*
X186949500Y-95828846D01*
X186980261Y-95983489D01*
X186980264Y-95983501D01*
X187040602Y-96129172D01*
X187040609Y-96129185D01*
X187128210Y-96260288D01*
X187128213Y-96260292D01*
X187239707Y-96371786D01*
X187239711Y-96371789D01*
X187370814Y-96459390D01*
X187370827Y-96459397D01*
X187470060Y-96500500D01*
X187516503Y-96519737D01*
X187671153Y-96550499D01*
X187671156Y-96550500D01*
X187671158Y-96550500D01*
X187828844Y-96550500D01*
X187828845Y-96550499D01*
X187905152Y-96535320D01*
X187983488Y-96519739D01*
X187983489Y-96519738D01*
X187983497Y-96519737D01*
X188007155Y-96509937D01*
X188054604Y-96500500D01*
X189323920Y-96500500D01*
X189421462Y-96481096D01*
X189468913Y-96471658D01*
X189605495Y-96415084D01*
X189670291Y-96371789D01*
X189670294Y-96371786D01*
X189670296Y-96371786D01*
X189699547Y-96352240D01*
X189728416Y-96332952D01*
X191082952Y-94978416D01*
X191135013Y-94900500D01*
X191135563Y-94899678D01*
X191139992Y-94893048D01*
X191165084Y-94855495D01*
X191221658Y-94718913D01*
X191242110Y-94616096D01*
X191250500Y-94573920D01*
X191250500Y-92926081D01*
X191250499Y-92926080D01*
X191238528Y-92865894D01*
X191221659Y-92781088D01*
X191178164Y-92676083D01*
X191176114Y-92671133D01*
X191165087Y-92644511D01*
X191165085Y-92644507D01*
X191165084Y-92644505D01*
X191110205Y-92562373D01*
X191082952Y-92521585D01*
X190524548Y-91963181D01*
X188728421Y-90167052D01*
X188728420Y-90167051D01*
X188625886Y-90098541D01*
X188625886Y-90098540D01*
X188605495Y-90084916D01*
X188605490Y-90084913D01*
X188468917Y-90028343D01*
X188468907Y-90028340D01*
X188323920Y-89999500D01*
X188323918Y-89999500D01*
X184362229Y-89999500D01*
X184295190Y-89979815D01*
X184274548Y-89963181D01*
X182036819Y-87725451D01*
X182003334Y-87664128D01*
X182000500Y-87637770D01*
X182000500Y-87054604D01*
X182009939Y-87007151D01*
X182019737Y-86983497D01*
X182050500Y-86828842D01*
X182050500Y-86671158D01*
X182050500Y-86671155D01*
X182050499Y-86671153D01*
X182019738Y-86516510D01*
X182019737Y-86516503D01*
X182001149Y-86471627D01*
X181959397Y-86370827D01*
X181959390Y-86370814D01*
X181871789Y-86239711D01*
X181871786Y-86239707D01*
X181760292Y-86128213D01*
X181760288Y-86128210D01*
X181629185Y-86040609D01*
X181629172Y-86040602D01*
X181483501Y-85980264D01*
X181483489Y-85980261D01*
X181328845Y-85949500D01*
X181328842Y-85949500D01*
X181171158Y-85949500D01*
X181171155Y-85949500D01*
X181016510Y-85980261D01*
X181016498Y-85980264D01*
X180870827Y-86040602D01*
X180870814Y-86040609D01*
X180739711Y-86128210D01*
X180739707Y-86128213D01*
X180628213Y-86239707D01*
X180628210Y-86239711D01*
X180540609Y-86370814D01*
X180540602Y-86370827D01*
X180480264Y-86516498D01*
X180480261Y-86516510D01*
X180449500Y-86671153D01*
X180449500Y-86828846D01*
X180480261Y-86983489D01*
X180480263Y-86983497D01*
X180490061Y-87007151D01*
X180499500Y-87054604D01*
X180499500Y-88073918D01*
X180499500Y-88073920D01*
X180499499Y-88073920D01*
X180528340Y-88218907D01*
X180528343Y-88218917D01*
X180584913Y-88355490D01*
X180584914Y-88355492D01*
X180584915Y-88355494D01*
X180584916Y-88355495D01*
X180589405Y-88362213D01*
X180589407Y-88362219D01*
X180589408Y-88362219D01*
X180667046Y-88478414D01*
X180667052Y-88478421D01*
X182850950Y-90662318D01*
X182884435Y-90723641D01*
X182879451Y-90793333D01*
X182850950Y-90837680D01*
X181725451Y-91963181D01*
X181664128Y-91996666D01*
X181637770Y-91999500D01*
X179112229Y-91999500D01*
X179045190Y-91979815D01*
X179024548Y-91963181D01*
X176478421Y-89417052D01*
X176478414Y-89417046D01*
X176404729Y-89367812D01*
X176404729Y-89367813D01*
X176355491Y-89334913D01*
X176218917Y-89278343D01*
X176218907Y-89278340D01*
X176073920Y-89249500D01*
X176073918Y-89249500D01*
X175767115Y-89249500D01*
X175700076Y-89229815D01*
X175654321Y-89177011D01*
X175650933Y-89168833D01*
X175618797Y-89082671D01*
X175618793Y-89082664D01*
X175532547Y-88967455D01*
X175532544Y-88967452D01*
X175417335Y-88881206D01*
X175417328Y-88881202D01*
X175282482Y-88830908D01*
X175282483Y-88830908D01*
X175222883Y-88824501D01*
X175222881Y-88824500D01*
X175222873Y-88824500D01*
X175222864Y-88824500D01*
X173777129Y-88824500D01*
X173777123Y-88824501D01*
X173717516Y-88830908D01*
X173582671Y-88881202D01*
X173582664Y-88881206D01*
X173460355Y-88972768D01*
X173458560Y-88970370D01*
X173410404Y-88996666D01*
X173384046Y-88999500D01*
X172715783Y-88999500D01*
X172648744Y-88979815D01*
X172628102Y-88963181D01*
X172286819Y-88621898D01*
X172253334Y-88560575D01*
X172250500Y-88534217D01*
X172250500Y-76901456D01*
X172212052Y-76708170D01*
X172212051Y-76708169D01*
X172212051Y-76708165D01*
X172212049Y-76708160D01*
X172136635Y-76526092D01*
X172136628Y-76526079D01*
X172027139Y-76362218D01*
X172027136Y-76362214D01*
X171884686Y-76219764D01*
X171884655Y-76219735D01*
X171531479Y-75866559D01*
X171531459Y-75866537D01*
X171387785Y-75722863D01*
X171387781Y-75722860D01*
X171223920Y-75613371D01*
X171223911Y-75613366D01*
X171151315Y-75583296D01*
X171095165Y-75560038D01*
X171041836Y-75537949D01*
X171041832Y-75537948D01*
X171041828Y-75537946D01*
X170945188Y-75518724D01*
X170848544Y-75499500D01*
X170848541Y-75499500D01*
X169848541Y-75499500D01*
X150401459Y-75499500D01*
X150401455Y-75499500D01*
X150304812Y-75518724D01*
X150208167Y-75537947D01*
X150208161Y-75537949D01*
X150154834Y-75560037D01*
X150154834Y-75560038D01*
X150109315Y-75578892D01*
X150026089Y-75613366D01*
X150026079Y-75613371D01*
X149862219Y-75722859D01*
X149792540Y-75792538D01*
X149722861Y-75862218D01*
X149722858Y-75862221D01*
X145362221Y-80222858D01*
X145362218Y-80222861D01*
X145292538Y-80292540D01*
X145222859Y-80362219D01*
X145113371Y-80526079D01*
X145113364Y-80526092D01*
X145037950Y-80708160D01*
X145037947Y-80708170D01*
X144999500Y-80901456D01*
X144999500Y-87784217D01*
X144979815Y-87851256D01*
X144963181Y-87871898D01*
X133121899Y-99713181D01*
X133060576Y-99746666D01*
X133034218Y-99749500D01*
X127367334Y-99749500D01*
X127305334Y-99732887D01*
X127231786Y-99690424D01*
X127231785Y-99690423D01*
X127231784Y-99690423D01*
X127079057Y-99649500D01*
X122079057Y-99649500D01*
X121920943Y-99649500D01*
X121768216Y-99690423D01*
X121768209Y-99690426D01*
X121631290Y-99769475D01*
X121631282Y-99769481D01*
X121519481Y-99881282D01*
X121519475Y-99881290D01*
X121440426Y-100018209D01*
X121440423Y-100018216D01*
X121399500Y-100170943D01*
X121399500Y-105525500D01*
X121379815Y-105592539D01*
X121327011Y-105638294D01*
X121275500Y-105649500D01*
X110620808Y-105649500D01*
X110553769Y-105629815D01*
X110533127Y-105613181D01*
X106414674Y-101494727D01*
X106414671Y-101494724D01*
X106310705Y-101425257D01*
X106291915Y-101409836D01*
X106260292Y-101378213D01*
X106260288Y-101378210D01*
X106129185Y-101290609D01*
X106129172Y-101290602D01*
X105983501Y-101230264D01*
X105983489Y-101230261D01*
X105828845Y-101199500D01*
X105828842Y-101199500D01*
X105671158Y-101199500D01*
X105671155Y-101199500D01*
X105516510Y-101230261D01*
X105516498Y-101230264D01*
X105370827Y-101290602D01*
X105370814Y-101290609D01*
X105239711Y-101378210D01*
X105239707Y-101378213D01*
X105128213Y-101489707D01*
X105128210Y-101489711D01*
X105040609Y-101620814D01*
X105040602Y-101620827D01*
X104980264Y-101766498D01*
X104980261Y-101766510D01*
X104949500Y-101921153D01*
X104949500Y-102078846D01*
X104980261Y-102233489D01*
X104980264Y-102233501D01*
X105040602Y-102379172D01*
X105040609Y-102379185D01*
X105128210Y-102510288D01*
X105128213Y-102510292D01*
X105239707Y-102621786D01*
X105239711Y-102621789D01*
X105370814Y-102709390D01*
X105370827Y-102709397D01*
X105450348Y-102742335D01*
X105516503Y-102769737D01*
X105628024Y-102791920D01*
X105671153Y-102800499D01*
X105671156Y-102800500D01*
X105829192Y-102800500D01*
X105896231Y-102820185D01*
X105916873Y-102836819D01*
X108981323Y-105901269D01*
X109014808Y-105962592D01*
X109013417Y-106021043D01*
X108973252Y-106170943D01*
X108973252Y-110579056D01*
X109014175Y-110731783D01*
X109014178Y-110731790D01*
X109093227Y-110868709D01*
X109093231Y-110868714D01*
X109093232Y-110868716D01*
X109205036Y-110980520D01*
X109205038Y-110980521D01*
X109205042Y-110980524D01*
X109341961Y-111059573D01*
X109341968Y-111059577D01*
X109494695Y-111100500D01*
X109652809Y-111100500D01*
X116611994Y-111100500D01*
X116679033Y-111120185D01*
X116724788Y-111172989D01*
X116734732Y-111242147D01*
X116705707Y-111305703D01*
X116699675Y-111312181D01*
X105941901Y-122069955D01*
X105880927Y-122130929D01*
X105819953Y-122191902D01*
X105724145Y-122335288D01*
X105724138Y-122335301D01*
X105658146Y-122494621D01*
X105658143Y-122494633D01*
X105624500Y-122663766D01*
X105624500Y-126750000D01*
X99000500Y-126750000D01*
X99000500Y-83920943D01*
X121399500Y-83920943D01*
X121399500Y-91829057D01*
X121439896Y-91979815D01*
X121440423Y-91981783D01*
X121440426Y-91981790D01*
X121519475Y-92118709D01*
X121519479Y-92118714D01*
X121519480Y-92118716D01*
X121631284Y-92230520D01*
X121631286Y-92230521D01*
X121631290Y-92230524D01*
X121735350Y-92290602D01*
X121768216Y-92309577D01*
X121920943Y-92350500D01*
X121920945Y-92350500D01*
X125310994Y-92350500D01*
X125378033Y-92370185D01*
X125398675Y-92386819D01*
X128819955Y-95808099D01*
X128899637Y-95887781D01*
X128941902Y-95930046D01*
X129085288Y-96025854D01*
X129085301Y-96025861D01*
X129244621Y-96091853D01*
X129244626Y-96091855D01*
X129413766Y-96125499D01*
X129413769Y-96125500D01*
X129413771Y-96125500D01*
X134974545Y-96125500D01*
X135021997Y-96134939D01*
X135208160Y-96212049D01*
X135208165Y-96212051D01*
X135208169Y-96212051D01*
X135208170Y-96212052D01*
X135401456Y-96250500D01*
X135401459Y-96250500D01*
X135598543Y-96250500D01*
X135728582Y-96224632D01*
X135791835Y-96212051D01*
X135973914Y-96136632D01*
X136137782Y-96027139D01*
X136277139Y-95887782D01*
X136386632Y-95723914D01*
X136462051Y-95541835D01*
X136493466Y-95383903D01*
X136500500Y-95348543D01*
X136500500Y-95151456D01*
X136462052Y-94958170D01*
X136462051Y-94958169D01*
X136462051Y-94958165D01*
X136438165Y-94900499D01*
X136386635Y-94776092D01*
X136386628Y-94776079D01*
X136277139Y-94612218D01*
X136277136Y-94612214D01*
X136137785Y-94472863D01*
X136137781Y-94472860D01*
X135973920Y-94363371D01*
X135973907Y-94363364D01*
X135791839Y-94287950D01*
X135791829Y-94287947D01*
X135598543Y-94249500D01*
X135598541Y-94249500D01*
X135401459Y-94249500D01*
X135401457Y-94249500D01*
X135208170Y-94287947D01*
X135208160Y-94287950D01*
X135021997Y-94365061D01*
X134974545Y-94374500D01*
X129914006Y-94374500D01*
X129846967Y-94354815D01*
X129826325Y-94338181D01*
X125886819Y-90398675D01*
X125853334Y-90337352D01*
X125850500Y-90310994D01*
X125850500Y-85939006D01*
X125870185Y-85871967D01*
X125886819Y-85851325D01*
X137566991Y-74171153D01*
X173199500Y-74171153D01*
X173199500Y-74328846D01*
X173230261Y-74483489D01*
X173230264Y-74483501D01*
X173290602Y-74629172D01*
X173290606Y-74629179D01*
X173328602Y-74686044D01*
X173349480Y-74752721D01*
X173349500Y-74754935D01*
X173349500Y-84064069D01*
X173349500Y-84064071D01*
X173349499Y-84064071D01*
X173374497Y-84189738D01*
X173374498Y-84189742D01*
X173374499Y-84189744D01*
X173423535Y-84308127D01*
X173436391Y-84327367D01*
X173494726Y-84414673D01*
X173494727Y-84414674D01*
X179822984Y-90742930D01*
X179856469Y-90804253D01*
X179856920Y-90806420D01*
X179870261Y-90873489D01*
X179870264Y-90873501D01*
X179930602Y-91019172D01*
X179930609Y-91019185D01*
X180018210Y-91150288D01*
X180018213Y-91150292D01*
X180129707Y-91261786D01*
X180129711Y-91261789D01*
X180260814Y-91349390D01*
X180260827Y-91349397D01*
X180406498Y-91409735D01*
X180406503Y-91409737D01*
X180547484Y-91437780D01*
X180561153Y-91440499D01*
X180561156Y-91440500D01*
X180561158Y-91440500D01*
X180718844Y-91440500D01*
X180718845Y-91440499D01*
X180873497Y-91409737D01*
X181019179Y-91349394D01*
X181150289Y-91261789D01*
X181261789Y-91150289D01*
X181349394Y-91019179D01*
X181409737Y-90873497D01*
X181440500Y-90718842D01*
X181440500Y-90561158D01*
X181440500Y-90561155D01*
X181440499Y-90561153D01*
X181409738Y-90406510D01*
X181409737Y-90406503D01*
X181381094Y-90337352D01*
X181349397Y-90260827D01*
X181349390Y-90260814D01*
X181261789Y-90129711D01*
X181261786Y-90129707D01*
X181150292Y-90018213D01*
X181150288Y-90018210D01*
X181019185Y-89930609D01*
X181019172Y-89930602D01*
X180873501Y-89870264D01*
X180873489Y-89870261D01*
X180806420Y-89856920D01*
X180744509Y-89824535D01*
X180742930Y-89822984D01*
X174686819Y-83766873D01*
X174653334Y-83705550D01*
X174650500Y-83679192D01*
X174650500Y-74754935D01*
X174670185Y-74687896D01*
X174671366Y-74686090D01*
X174709394Y-74629179D01*
X174769737Y-74483497D01*
X174800500Y-74328842D01*
X174800500Y-74171158D01*
X174800500Y-74171155D01*
X174800499Y-74171153D01*
X174769738Y-74016510D01*
X174769737Y-74016503D01*
X174769735Y-74016498D01*
X174709397Y-73870827D01*
X174709390Y-73870814D01*
X174621789Y-73739711D01*
X174621786Y-73739707D01*
X174510292Y-73628213D01*
X174510288Y-73628210D01*
X174379185Y-73540609D01*
X174379172Y-73540602D01*
X174233501Y-73480264D01*
X174233489Y-73480261D01*
X174078845Y-73449500D01*
X174078842Y-73449500D01*
X173921158Y-73449500D01*
X173921155Y-73449500D01*
X173766510Y-73480261D01*
X173766498Y-73480264D01*
X173620827Y-73540602D01*
X173620814Y-73540609D01*
X173489711Y-73628210D01*
X173489707Y-73628213D01*
X173378213Y-73739707D01*
X173378210Y-73739711D01*
X173290609Y-73870814D01*
X173290602Y-73870827D01*
X173230264Y-74016498D01*
X173230261Y-74016510D01*
X173199500Y-74171153D01*
X137566991Y-74171153D01*
X141066991Y-70671153D01*
X144999500Y-70671153D01*
X144999500Y-70828846D01*
X145030261Y-70983489D01*
X145030264Y-70983501D01*
X145090602Y-71129172D01*
X145090606Y-71129179D01*
X145128602Y-71186044D01*
X145149480Y-71252721D01*
X145149500Y-71254935D01*
X145149500Y-71445389D01*
X145149500Y-71445391D01*
X145149499Y-71445391D01*
X145174497Y-71571058D01*
X145174499Y-71571064D01*
X145223534Y-71689445D01*
X145294726Y-71795993D01*
X146904006Y-73405273D01*
X146904009Y-73405275D01*
X146904011Y-73405277D01*
X147010553Y-73476465D01*
X147128936Y-73525501D01*
X147128940Y-73525501D01*
X147128941Y-73525502D01*
X147254608Y-73550500D01*
X147254611Y-73550500D01*
X166752551Y-73550500D01*
X166837095Y-73533682D01*
X166878224Y-73525501D01*
X166996607Y-73476465D01*
X167103149Y-73405277D01*
X168421607Y-72086819D01*
X168482930Y-72053334D01*
X168509288Y-72050500D01*
X176740712Y-72050500D01*
X176807751Y-72070185D01*
X176828393Y-72086819D01*
X182413181Y-77671607D01*
X182446666Y-77732930D01*
X182449500Y-77759288D01*
X182449500Y-84083310D01*
X182470672Y-84189743D01*
X182470673Y-84189747D01*
X182474499Y-84208983D01*
X182474499Y-84208984D01*
X182515565Y-84308127D01*
X182523535Y-84327367D01*
X182581870Y-84414673D01*
X182594726Y-84433913D01*
X182594727Y-84433914D01*
X185713655Y-87552840D01*
X185747140Y-87614163D01*
X185749974Y-87640521D01*
X185749974Y-87760692D01*
X185780735Y-87915335D01*
X185780738Y-87915347D01*
X185841076Y-88061018D01*
X185841083Y-88061031D01*
X185928684Y-88192134D01*
X185928687Y-88192138D01*
X186040181Y-88303632D01*
X186040185Y-88303635D01*
X186171288Y-88391236D01*
X186171301Y-88391243D01*
X186316972Y-88451581D01*
X186316977Y-88451583D01*
X186451865Y-88478414D01*
X186471627Y-88482345D01*
X186471630Y-88482346D01*
X186471632Y-88482346D01*
X186629318Y-88482346D01*
X186629319Y-88482345D01*
X186783971Y-88451583D01*
X186929653Y-88391240D01*
X187060763Y-88303635D01*
X187172263Y-88192135D01*
X187259868Y-88061025D01*
X187320211Y-87915343D01*
X187350974Y-87760688D01*
X187350974Y-87603004D01*
X187350974Y-87603001D01*
X187324599Y-87470408D01*
X187330826Y-87400816D01*
X187373689Y-87345639D01*
X187439579Y-87322394D01*
X187470408Y-87324599D01*
X187603001Y-87350974D01*
X187603004Y-87350974D01*
X187760690Y-87350974D01*
X187760691Y-87350973D01*
X187915343Y-87320211D01*
X188061025Y-87259868D01*
X188192135Y-87172263D01*
X188303635Y-87060763D01*
X188391240Y-86929653D01*
X188451583Y-86783971D01*
X188482346Y-86629316D01*
X188482346Y-86471632D01*
X188482346Y-86471629D01*
X188482345Y-86471627D01*
X188451583Y-86316977D01*
X188419577Y-86239707D01*
X188391243Y-86171301D01*
X188391236Y-86171288D01*
X188303635Y-86040185D01*
X188303632Y-86040181D01*
X188192138Y-85928687D01*
X188192134Y-85928684D01*
X188061031Y-85841083D01*
X188061018Y-85841076D01*
X187915347Y-85780738D01*
X187915335Y-85780735D01*
X187760691Y-85749974D01*
X187760688Y-85749974D01*
X187640521Y-85749974D01*
X187573482Y-85730289D01*
X187552840Y-85713655D01*
X185086819Y-83247633D01*
X185053334Y-83186310D01*
X185050500Y-83159952D01*
X185050500Y-76835928D01*
X185025502Y-76710261D01*
X185025501Y-76710260D01*
X185025501Y-76710256D01*
X184976465Y-76591873D01*
X184976464Y-76591872D01*
X184976461Y-76591866D01*
X184905277Y-76485332D01*
X184905276Y-76485331D01*
X184814669Y-76394724D01*
X183137265Y-74717320D01*
X178014674Y-69594727D01*
X178014673Y-69594726D01*
X178014669Y-69594723D01*
X177908127Y-69523535D01*
X177789744Y-69474499D01*
X177786807Y-69473914D01*
X177786803Y-69473912D01*
X177786803Y-69473914D01*
X177664071Y-69449500D01*
X177664069Y-69449500D01*
X167585931Y-69449500D01*
X167585929Y-69449500D01*
X167463197Y-69473914D01*
X167463192Y-69473915D01*
X167460259Y-69474498D01*
X167460255Y-69474499D01*
X167341870Y-69523535D01*
X167235331Y-69594722D01*
X167235324Y-69594728D01*
X165916873Y-70913181D01*
X165855550Y-70946666D01*
X165829192Y-70949500D01*
X148177968Y-70949500D01*
X148148527Y-70940855D01*
X148118541Y-70934332D01*
X148113525Y-70930577D01*
X148110929Y-70929815D01*
X148090287Y-70913181D01*
X147936819Y-70759713D01*
X147903334Y-70698390D01*
X147900500Y-70672032D01*
X147900500Y-70671155D01*
X147900499Y-70671153D01*
X147869738Y-70516510D01*
X147869737Y-70516503D01*
X147869735Y-70516498D01*
X147809397Y-70370827D01*
X147809390Y-70370814D01*
X147721789Y-70239711D01*
X147721786Y-70239707D01*
X147610292Y-70128213D01*
X147610288Y-70128210D01*
X147479185Y-70040609D01*
X147479172Y-70040602D01*
X147333501Y-69980264D01*
X147333489Y-69980261D01*
X147178845Y-69949500D01*
X147178842Y-69949500D01*
X147021158Y-69949500D01*
X147021155Y-69949500D01*
X146866510Y-69980261D01*
X146866498Y-69980264D01*
X146720827Y-70040602D01*
X146720814Y-70040609D01*
X146589711Y-70128210D01*
X146589707Y-70128213D01*
X146537681Y-70180240D01*
X146476358Y-70213725D01*
X146406666Y-70208741D01*
X146362319Y-70180240D01*
X146310292Y-70128213D01*
X146310288Y-70128210D01*
X146179185Y-70040609D01*
X146179172Y-70040602D01*
X146033501Y-69980264D01*
X146033489Y-69980261D01*
X145878845Y-69949500D01*
X145878842Y-69949500D01*
X145721158Y-69949500D01*
X145721155Y-69949500D01*
X145566510Y-69980261D01*
X145566498Y-69980264D01*
X145420827Y-70040602D01*
X145420814Y-70040609D01*
X145289711Y-70128210D01*
X145289707Y-70128213D01*
X145178213Y-70239707D01*
X145178210Y-70239711D01*
X145090609Y-70370814D01*
X145090602Y-70370827D01*
X145030264Y-70516498D01*
X145030261Y-70516510D01*
X144999500Y-70671153D01*
X141066991Y-70671153D01*
X142576325Y-69161819D01*
X142637648Y-69128334D01*
X142664006Y-69125500D01*
X143663771Y-69125500D01*
X144163771Y-69125500D01*
X157335994Y-69125500D01*
X157365434Y-69134144D01*
X157395421Y-69140668D01*
X157400436Y-69144422D01*
X157403033Y-69145185D01*
X157423675Y-69161819D01*
X157509376Y-69247520D01*
X157536256Y-69287749D01*
X157613364Y-69473907D01*
X157613369Y-69473916D01*
X157722860Y-69637781D01*
X157722863Y-69637785D01*
X157862214Y-69777136D01*
X157862218Y-69777139D01*
X158026079Y-69886628D01*
X158026092Y-69886635D01*
X158177864Y-69949500D01*
X158208165Y-69962051D01*
X158208169Y-69962051D01*
X158208170Y-69962052D01*
X158401456Y-70000500D01*
X158401459Y-70000500D01*
X158598543Y-70000500D01*
X158728582Y-69974632D01*
X158791835Y-69962051D01*
X158973914Y-69886632D01*
X159137782Y-69777139D01*
X159277139Y-69637782D01*
X159353477Y-69523534D01*
X159386631Y-69473916D01*
X159386635Y-69473907D01*
X159462049Y-69291839D01*
X159462051Y-69291835D01*
X159491374Y-69144422D01*
X159500500Y-69098543D01*
X159500500Y-68901456D01*
X159462052Y-68708170D01*
X159462051Y-68708169D01*
X159462051Y-68708165D01*
X159462049Y-68708160D01*
X159386635Y-68526092D01*
X159386628Y-68526079D01*
X159277139Y-68362218D01*
X159277136Y-68362214D01*
X159137785Y-68222863D01*
X159137781Y-68222860D01*
X158973920Y-68113371D01*
X158973907Y-68113364D01*
X158787749Y-68036256D01*
X158747520Y-68009376D01*
X158308102Y-67569957D01*
X158308098Y-67569954D01*
X158271988Y-67545826D01*
X158164711Y-67474145D01*
X158164698Y-67474138D01*
X158005378Y-67408146D01*
X158005366Y-67408143D01*
X157836232Y-67374500D01*
X157836229Y-67374500D01*
X151413006Y-67374500D01*
X151345967Y-67354815D01*
X151300212Y-67302011D01*
X151290268Y-67232853D01*
X151319293Y-67169297D01*
X151325325Y-67162819D01*
X151537104Y-66951040D01*
X152208854Y-66279288D01*
X152227634Y-66263876D01*
X152324035Y-66199464D01*
X152449464Y-66074035D01*
X152548013Y-65926547D01*
X152615894Y-65762666D01*
X152650500Y-65588691D01*
X152650500Y-65411309D01*
X152650500Y-65411306D01*
X152650499Y-65411304D01*
X152615896Y-65237341D01*
X152615893Y-65237332D01*
X152548016Y-65073459D01*
X152548009Y-65073446D01*
X152449464Y-64925965D01*
X152449461Y-64925961D01*
X152324038Y-64800538D01*
X152324034Y-64800535D01*
X152176553Y-64701990D01*
X152176540Y-64701983D01*
X152012667Y-64634106D01*
X152012658Y-64634103D01*
X151838694Y-64599500D01*
X151838691Y-64599500D01*
X151661309Y-64599500D01*
X151661306Y-64599500D01*
X151487341Y-64634103D01*
X151487332Y-64634106D01*
X151323459Y-64701983D01*
X151323446Y-64701990D01*
X151175965Y-64800535D01*
X151175961Y-64800538D01*
X151050542Y-64925958D01*
X151050539Y-64925961D01*
X150986122Y-65022364D01*
X150970702Y-65041152D01*
X150173675Y-65838181D01*
X150112352Y-65871666D01*
X150085994Y-65874500D01*
X142564006Y-65874500D01*
X142496967Y-65854815D01*
X142476325Y-65838181D01*
X141279294Y-64641150D01*
X141263873Y-64622359D01*
X141199467Y-64525969D01*
X141199461Y-64525961D01*
X141074038Y-64400538D01*
X141074034Y-64400535D01*
X140926553Y-64301990D01*
X140926540Y-64301983D01*
X140762667Y-64234106D01*
X140762658Y-64234103D01*
X140588694Y-64199500D01*
X140588691Y-64199500D01*
X140411309Y-64199500D01*
X140411306Y-64199500D01*
X140237341Y-64234103D01*
X140237332Y-64234106D01*
X140073459Y-64301983D01*
X140073446Y-64301990D01*
X139925965Y-64400535D01*
X139925961Y-64400538D01*
X139800538Y-64525961D01*
X139800535Y-64525965D01*
X139701990Y-64673446D01*
X139701983Y-64673459D01*
X139634106Y-64837332D01*
X139634103Y-64837341D01*
X139599500Y-65011304D01*
X139599500Y-65188695D01*
X139634103Y-65362658D01*
X139634106Y-65362667D01*
X139701983Y-65526540D01*
X139701990Y-65526553D01*
X139800535Y-65674034D01*
X139800538Y-65674038D01*
X139925961Y-65799461D01*
X139925969Y-65799467D01*
X140022359Y-65863873D01*
X140041150Y-65879294D01*
X141469955Y-67308099D01*
X141591901Y-67430045D01*
X141618652Y-67447919D01*
X141626163Y-67454986D01*
X141638830Y-67476592D01*
X141654891Y-67495810D01*
X141656197Y-67506214D01*
X141661501Y-67515260D01*
X141660476Y-67540284D01*
X141663597Y-67565135D01*
X141659071Y-67574594D01*
X141658642Y-67585072D01*
X141644250Y-67605570D01*
X141633441Y-67628162D01*
X141628875Y-67632979D01*
X125764393Y-83497462D01*
X125703070Y-83530947D01*
X125633378Y-83525963D01*
X125614713Y-83517168D01*
X125481790Y-83440426D01*
X125481786Y-83440424D01*
X125481784Y-83440423D01*
X125329057Y-83399500D01*
X122079057Y-83399500D01*
X121920943Y-83399500D01*
X121768216Y-83440423D01*
X121768209Y-83440426D01*
X121631290Y-83519475D01*
X121631282Y-83519481D01*
X121519481Y-83631282D01*
X121519475Y-83631290D01*
X121440426Y-83768209D01*
X121440423Y-83768216D01*
X121399500Y-83920943D01*
X99000500Y-83920943D01*
X99000500Y-62503543D01*
X141129499Y-62503543D01*
X141167947Y-62696829D01*
X141167950Y-62696839D01*
X141243364Y-62878907D01*
X141243371Y-62878920D01*
X141352860Y-63042781D01*
X141352863Y-63042785D01*
X141492214Y-63182136D01*
X141492218Y-63182139D01*
X141656079Y-63291628D01*
X141656092Y-63291635D01*
X141838160Y-63367049D01*
X141838165Y-63367051D01*
X141838169Y-63367051D01*
X141838170Y-63367052D01*
X142031456Y-63405500D01*
X142031459Y-63405500D01*
X142228543Y-63405500D01*
X142358582Y-63379632D01*
X142421835Y-63367051D01*
X142603914Y-63291632D01*
X142767782Y-63182139D01*
X142907139Y-63042782D01*
X143016632Y-62878914D01*
X143092051Y-62696835D01*
X143130500Y-62503541D01*
X143130500Y-61990951D01*
X143150185Y-61923912D01*
X143202989Y-61878157D01*
X143272147Y-61868213D01*
X143316499Y-61883563D01*
X143336322Y-61895008D01*
X143483707Y-61934500D01*
X143483710Y-61934500D01*
X143636290Y-61934500D01*
X143636293Y-61934500D01*
X143783678Y-61895008D01*
X143915821Y-61818715D01*
X144023715Y-61710821D01*
X144100008Y-61578678D01*
X144139500Y-61431293D01*
X144139500Y-61278707D01*
X148760500Y-61278707D01*
X148760500Y-61431293D01*
X148799992Y-61578678D01*
X148799993Y-61578681D01*
X148876282Y-61710817D01*
X148876284Y-61710819D01*
X148876285Y-61710821D01*
X148984179Y-61818715D01*
X148984180Y-61818716D01*
X148984182Y-61818717D01*
X149116318Y-61895006D01*
X149116319Y-61895006D01*
X149116322Y-61895008D01*
X149263707Y-61934500D01*
X149263710Y-61934500D01*
X149416290Y-61934500D01*
X149416293Y-61934500D01*
X149563678Y-61895008D01*
X149583499Y-61883563D01*
X149651399Y-61867091D01*
X149717426Y-61889943D01*
X149760617Y-61944864D01*
X149769500Y-61990951D01*
X149769500Y-62503541D01*
X149769500Y-62503543D01*
X149769499Y-62503543D01*
X149807947Y-62696829D01*
X149807950Y-62696839D01*
X149883364Y-62878907D01*
X149883371Y-62878920D01*
X149992860Y-63042781D01*
X149992863Y-63042785D01*
X150132214Y-63182136D01*
X150132218Y-63182139D01*
X150296079Y-63291628D01*
X150296092Y-63291635D01*
X150478160Y-63367049D01*
X150478165Y-63367051D01*
X150478169Y-63367051D01*
X150478170Y-63367052D01*
X150671456Y-63405500D01*
X150671459Y-63405500D01*
X150868543Y-63405500D01*
X150998582Y-63379632D01*
X151061835Y-63367051D01*
X151243914Y-63291632D01*
X151407782Y-63182139D01*
X151547139Y-63042782D01*
X151656632Y-62878914D01*
X151732051Y-62696835D01*
X151770500Y-62503541D01*
X151770500Y-61206459D01*
X151770500Y-61206456D01*
X151732052Y-61013170D01*
X151732051Y-61013169D01*
X151732051Y-61013165D01*
X151706398Y-60951232D01*
X151656635Y-60831092D01*
X151656628Y-60831079D01*
X151547139Y-60667218D01*
X151547136Y-60667214D01*
X151407785Y-60527863D01*
X151407781Y-60527860D01*
X151243920Y-60418371D01*
X151243907Y-60418364D01*
X151061839Y-60342950D01*
X151061829Y-60342947D01*
X150868543Y-60304500D01*
X150868541Y-60304500D01*
X150671459Y-60304500D01*
X150671457Y-60304500D01*
X150478170Y-60342947D01*
X150478160Y-60342950D01*
X150296092Y-60418364D01*
X150296079Y-60418371D01*
X150132218Y-60527860D01*
X150132214Y-60527863D01*
X149992863Y-60667214D01*
X149992860Y-60667218D01*
X149883371Y-60831079D01*
X149883365Y-60831091D01*
X149881054Y-60836671D01*
X149837212Y-60891074D01*
X149770917Y-60913137D01*
X149703218Y-60895857D01*
X149700192Y-60893809D01*
X149695821Y-60891285D01*
X149624158Y-60849910D01*
X149563681Y-60814993D01*
X149563682Y-60814993D01*
X149551595Y-60811754D01*
X149416293Y-60775500D01*
X149263707Y-60775500D01*
X149128404Y-60811754D01*
X149116318Y-60814993D01*
X148984182Y-60891282D01*
X148984176Y-60891287D01*
X148876287Y-60999176D01*
X148876282Y-60999182D01*
X148799993Y-61131318D01*
X148799992Y-61131322D01*
X148760500Y-61278707D01*
X144139500Y-61278707D01*
X144100008Y-61131322D01*
X144091217Y-61116096D01*
X144023717Y-60999182D01*
X144023712Y-60999176D01*
X143915823Y-60891287D01*
X143915817Y-60891282D01*
X143783681Y-60814993D01*
X143783682Y-60814993D01*
X143771595Y-60811754D01*
X143636293Y-60775500D01*
X143483707Y-60775500D01*
X143348404Y-60811754D01*
X143336318Y-60814993D01*
X143197140Y-60895349D01*
X143195643Y-60892757D01*
X143143795Y-60912788D01*
X143075353Y-60898735D01*
X143025374Y-60849910D01*
X143018943Y-60836666D01*
X143016634Y-60831092D01*
X143016632Y-60831086D01*
X142979333Y-60775264D01*
X142907139Y-60667217D01*
X142767785Y-60527863D01*
X142767781Y-60527860D01*
X142603920Y-60418371D01*
X142603907Y-60418364D01*
X142421839Y-60342950D01*
X142421829Y-60342947D01*
X142228543Y-60304500D01*
X142228541Y-60304500D01*
X142031459Y-60304500D01*
X142031457Y-60304500D01*
X141838170Y-60342947D01*
X141838160Y-60342950D01*
X141656092Y-60418364D01*
X141656079Y-60418371D01*
X141492218Y-60527860D01*
X141492214Y-60527863D01*
X141352863Y-60667214D01*
X141352860Y-60667218D01*
X141243371Y-60831079D01*
X141243364Y-60831092D01*
X141167950Y-61013160D01*
X141167947Y-61013170D01*
X141129500Y-61206456D01*
X141129500Y-61206459D01*
X141129500Y-62503541D01*
X141129500Y-62503543D01*
X141129499Y-62503543D01*
X99000500Y-62503543D01*
X99000500Y-59303052D01*
X99000649Y-59296968D01*
X99018497Y-58933665D01*
X99019690Y-58921555D01*
X99029987Y-58852136D01*
X99072614Y-58564765D01*
X99074981Y-58552863D01*
X99162631Y-58202947D01*
X99166152Y-58191341D01*
X99172520Y-58173543D01*
X141129499Y-58173543D01*
X141167947Y-58366829D01*
X141167950Y-58366839D01*
X141243364Y-58548907D01*
X141243371Y-58548920D01*
X141352860Y-58712781D01*
X141352863Y-58712785D01*
X141492214Y-58852136D01*
X141492218Y-58852139D01*
X141656079Y-58961628D01*
X141656092Y-58961635D01*
X141838160Y-59037049D01*
X141838165Y-59037051D01*
X141838169Y-59037051D01*
X141838170Y-59037052D01*
X142031456Y-59075500D01*
X142031459Y-59075500D01*
X142228543Y-59075500D01*
X142358582Y-59049632D01*
X142421835Y-59037051D01*
X142603914Y-58961632D01*
X142767782Y-58852139D01*
X142907139Y-58712782D01*
X143016632Y-58548914D01*
X143092051Y-58366835D01*
X143113304Y-58259992D01*
X143130500Y-58173543D01*
X149769499Y-58173543D01*
X149807947Y-58366829D01*
X149807950Y-58366839D01*
X149883364Y-58548907D01*
X149883371Y-58548920D01*
X149992860Y-58712781D01*
X149992863Y-58712785D01*
X150132214Y-58852136D01*
X150132218Y-58852139D01*
X150296079Y-58961628D01*
X150296092Y-58961635D01*
X150478160Y-59037049D01*
X150478165Y-59037051D01*
X150478169Y-59037051D01*
X150478170Y-59037052D01*
X150671456Y-59075500D01*
X150671459Y-59075500D01*
X150868543Y-59075500D01*
X150998582Y-59049632D01*
X151061835Y-59037051D01*
X151243914Y-58961632D01*
X151407782Y-58852139D01*
X151547139Y-58712782D01*
X151656632Y-58548914D01*
X151732051Y-58366835D01*
X151753304Y-58259992D01*
X151770500Y-58173543D01*
X151770500Y-57777135D01*
X176624500Y-57777135D01*
X176624500Y-59222870D01*
X176624501Y-59222876D01*
X176630908Y-59282483D01*
X176681202Y-59417328D01*
X176681206Y-59417335D01*
X176767452Y-59532544D01*
X176767453Y-59532544D01*
X176767454Y-59532546D01*
X176818740Y-59570939D01*
X176852539Y-59596241D01*
X176894409Y-59652175D01*
X176899393Y-59721867D01*
X176878545Y-59768392D01*
X176794624Y-59883900D01*
X176710620Y-60048764D01*
X176710619Y-60048767D01*
X176653445Y-60224734D01*
X176624500Y-60407486D01*
X176624500Y-60592513D01*
X176653445Y-60775265D01*
X176710619Y-60951232D01*
X176710620Y-60951235D01*
X176794622Y-61116096D01*
X176903379Y-61265787D01*
X177034213Y-61396621D01*
X177038421Y-61399678D01*
X177038432Y-61399686D01*
X177081094Y-61455019D01*
X177087069Y-61524633D01*
X177054459Y-61586426D01*
X177038432Y-61600314D01*
X177034210Y-61603381D01*
X176903381Y-61734210D01*
X176903381Y-61734211D01*
X176903379Y-61734213D01*
X176895516Y-61745036D01*
X176794622Y-61883903D01*
X176710620Y-62048764D01*
X176710619Y-62048767D01*
X176653445Y-62224734D01*
X176624500Y-62407486D01*
X176624500Y-62592513D01*
X176653445Y-62775265D01*
X176710619Y-62951232D01*
X176710620Y-62951235D01*
X176757268Y-63042785D01*
X176794622Y-63116096D01*
X176903379Y-63265787D01*
X177034213Y-63396621D01*
X177038421Y-63399678D01*
X177038432Y-63399686D01*
X177081094Y-63455019D01*
X177087069Y-63524633D01*
X177054459Y-63586426D01*
X177038432Y-63600314D01*
X177034210Y-63603381D01*
X176903381Y-63734210D01*
X176903381Y-63734211D01*
X176903379Y-63734213D01*
X176856672Y-63798499D01*
X176794622Y-63883903D01*
X176710620Y-64048764D01*
X176710619Y-64048767D01*
X176653445Y-64224734D01*
X176641209Y-64301990D01*
X176624500Y-64407486D01*
X176624500Y-64592514D01*
X176631087Y-64634103D01*
X176653445Y-64775265D01*
X176710619Y-64951232D01*
X176710620Y-64951235D01*
X176772894Y-65073453D01*
X176794622Y-65116096D01*
X176903379Y-65265787D01*
X177034213Y-65396621D01*
X177054429Y-65411309D01*
X177108831Y-65450834D01*
X177123806Y-65470254D01*
X177753554Y-66100000D01*
X177747339Y-66100000D01*
X177645606Y-66127259D01*
X177554394Y-66179920D01*
X177479920Y-66254394D01*
X177427259Y-66345606D01*
X177400000Y-66447339D01*
X177400000Y-66453553D01*
X176810015Y-65863568D01*
X176795049Y-65884167D01*
X176711084Y-66048956D01*
X176711083Y-66048959D01*
X176653933Y-66224852D01*
X176625000Y-66407526D01*
X176625000Y-66592473D01*
X176653933Y-66775147D01*
X176711083Y-66951040D01*
X176711084Y-66951043D01*
X176795050Y-67115834D01*
X176810015Y-67136430D01*
X176810016Y-67136431D01*
X177400000Y-66546447D01*
X177400000Y-66552661D01*
X177427259Y-66654394D01*
X177479920Y-66745606D01*
X177554394Y-66820080D01*
X177645606Y-66872741D01*
X177747339Y-66900000D01*
X177753553Y-66900000D01*
X177163568Y-67489983D01*
X177163568Y-67489984D01*
X177184165Y-67504949D01*
X177348956Y-67588915D01*
X177348959Y-67588916D01*
X177524852Y-67646066D01*
X177707527Y-67675000D01*
X177892473Y-67675000D01*
X178075147Y-67646066D01*
X178251040Y-67588916D01*
X178251043Y-67588915D01*
X178415836Y-67504947D01*
X178415845Y-67504942D01*
X178436430Y-67489984D01*
X178436431Y-67489983D01*
X177846448Y-66900000D01*
X177852661Y-66900000D01*
X177954394Y-66872741D01*
X178045606Y-66820080D01*
X178120080Y-66745606D01*
X178172741Y-66654394D01*
X178200000Y-66552661D01*
X178200000Y-66546447D01*
X178789983Y-67136430D01*
X178789984Y-67136430D01*
X178804942Y-67115845D01*
X178804947Y-67115836D01*
X178888915Y-66951043D01*
X178888916Y-66951040D01*
X178946066Y-66775147D01*
X178975000Y-66592473D01*
X178975000Y-66407526D01*
X178946066Y-66224852D01*
X178888916Y-66048959D01*
X178888915Y-66048956D01*
X178804949Y-65884165D01*
X178789983Y-65863568D01*
X178200000Y-66453551D01*
X178200000Y-66447339D01*
X178172741Y-66345606D01*
X178120080Y-66254394D01*
X178045606Y-66179920D01*
X177954394Y-66127259D01*
X177852661Y-66100000D01*
X177846447Y-66100000D01*
X178460675Y-65485771D01*
X178491165Y-65450836D01*
X178565787Y-65396621D01*
X178696621Y-65265787D01*
X178805378Y-65116096D01*
X178889379Y-64951235D01*
X178946555Y-64775264D01*
X178975500Y-64592514D01*
X178975500Y-64407486D01*
X178946555Y-64224736D01*
X178889379Y-64048765D01*
X178889379Y-64048764D01*
X178805377Y-63883903D01*
X178696621Y-63734213D01*
X178565787Y-63603379D01*
X178561576Y-63600319D01*
X178518909Y-63544994D01*
X178512926Y-63475381D01*
X178545529Y-63413585D01*
X178561570Y-63399684D01*
X178565787Y-63396621D01*
X178696621Y-63265787D01*
X178805378Y-63116096D01*
X178889379Y-62951235D01*
X178946555Y-62775264D01*
X178975500Y-62592514D01*
X178975500Y-62407486D01*
X178946555Y-62224736D01*
X178889379Y-62048765D01*
X178889379Y-62048764D01*
X178825763Y-61923912D01*
X178805378Y-61883904D01*
X178696621Y-61734213D01*
X178565787Y-61603379D01*
X178561576Y-61600319D01*
X178518909Y-61544994D01*
X178512926Y-61475381D01*
X178545529Y-61413585D01*
X178561570Y-61399684D01*
X178565787Y-61396621D01*
X178696621Y-61265787D01*
X178805378Y-61116096D01*
X178889379Y-60951235D01*
X178946555Y-60775264D01*
X178975500Y-60592514D01*
X178975500Y-60407486D01*
X178946555Y-60224736D01*
X178889379Y-60048765D01*
X178889379Y-60048764D01*
X178805377Y-59883903D01*
X178721454Y-59768393D01*
X178697974Y-59702586D01*
X178713799Y-59634532D01*
X178747459Y-59596241D01*
X178832546Y-59532546D01*
X178918796Y-59417331D01*
X178969091Y-59282483D01*
X178975500Y-59222873D01*
X178975499Y-57777128D01*
X178969091Y-57717517D01*
X178918796Y-57582669D01*
X178918795Y-57582668D01*
X178918793Y-57582664D01*
X178832547Y-57467455D01*
X178832544Y-57467452D01*
X178717335Y-57381206D01*
X178717328Y-57381202D01*
X178582482Y-57330908D01*
X178582483Y-57330908D01*
X178522883Y-57324501D01*
X178522881Y-57324500D01*
X178522873Y-57324500D01*
X178522864Y-57324500D01*
X177077129Y-57324500D01*
X177077123Y-57324501D01*
X177017516Y-57330908D01*
X176882671Y-57381202D01*
X176882664Y-57381206D01*
X176767455Y-57467452D01*
X176767452Y-57467455D01*
X176681206Y-57582664D01*
X176681202Y-57582671D01*
X176630908Y-57717517D01*
X176624501Y-57777116D01*
X176624501Y-57777123D01*
X176624500Y-57777135D01*
X151770500Y-57777135D01*
X151770500Y-57176456D01*
X151732052Y-56983170D01*
X151732051Y-56983169D01*
X151732051Y-56983165D01*
X151691434Y-56885105D01*
X151656635Y-56801092D01*
X151656628Y-56801079D01*
X151547139Y-56637218D01*
X151547136Y-56637214D01*
X151407785Y-56497863D01*
X151407781Y-56497860D01*
X151243920Y-56388371D01*
X151243907Y-56388364D01*
X151061839Y-56312950D01*
X151061829Y-56312947D01*
X150868543Y-56274500D01*
X150868541Y-56274500D01*
X150671459Y-56274500D01*
X150671457Y-56274500D01*
X150478170Y-56312947D01*
X150478160Y-56312950D01*
X150296092Y-56388364D01*
X150296079Y-56388371D01*
X150132218Y-56497860D01*
X150132214Y-56497863D01*
X149992863Y-56637214D01*
X149992860Y-56637218D01*
X149883371Y-56801079D01*
X149883364Y-56801092D01*
X149807950Y-56983160D01*
X149807947Y-56983170D01*
X149769500Y-57176456D01*
X149769500Y-57176459D01*
X149769500Y-58173541D01*
X149769500Y-58173543D01*
X149769499Y-58173543D01*
X143130500Y-58173543D01*
X143130500Y-57176456D01*
X143092052Y-56983170D01*
X143092051Y-56983169D01*
X143092051Y-56983165D01*
X143051434Y-56885105D01*
X143016635Y-56801092D01*
X143016628Y-56801079D01*
X142907139Y-56637218D01*
X142907136Y-56637214D01*
X142767785Y-56497863D01*
X142767781Y-56497860D01*
X142603920Y-56388371D01*
X142603907Y-56388364D01*
X142421839Y-56312950D01*
X142421829Y-56312947D01*
X142228543Y-56274500D01*
X142228541Y-56274500D01*
X142031459Y-56274500D01*
X142031457Y-56274500D01*
X141838170Y-56312947D01*
X141838160Y-56312950D01*
X141656092Y-56388364D01*
X141656079Y-56388371D01*
X141492218Y-56497860D01*
X141492214Y-56497863D01*
X141352863Y-56637214D01*
X141352860Y-56637218D01*
X141243371Y-56801079D01*
X141243364Y-56801092D01*
X141167950Y-56983160D01*
X141167947Y-56983170D01*
X141129500Y-57176456D01*
X141129500Y-57176459D01*
X141129500Y-58173541D01*
X141129500Y-58173543D01*
X141129499Y-58173543D01*
X99172520Y-58173543D01*
X99287672Y-57851717D01*
X99292314Y-57840509D01*
X99446547Y-57514409D01*
X99452262Y-57503717D01*
X99637704Y-57194327D01*
X99644447Y-57184234D01*
X99859329Y-56894500D01*
X99867032Y-56885115D01*
X100109273Y-56617843D01*
X100117843Y-56609273D01*
X100385115Y-56367032D01*
X100394500Y-56359329D01*
X100684234Y-56144447D01*
X100694327Y-56137704D01*
X101003717Y-55952262D01*
X101014409Y-55946547D01*
X101340509Y-55792314D01*
X101351717Y-55787672D01*
X101691341Y-55666152D01*
X101702947Y-55662631D01*
X102052863Y-55574981D01*
X102064765Y-55572614D01*
X102421561Y-55519689D01*
X102433659Y-55518497D01*
X102742885Y-55503305D01*
X102796968Y-55500649D01*
X102803052Y-55500500D01*
X102865892Y-55500500D01*
X194134108Y-55500500D01*
X194196948Y-55500500D01*
X194203032Y-55500649D01*
G37*
%TD.AperFunction*%
%TD*%
%TA.AperFunction,Conductor*%
%TO.N,GND*%
G36*
X105624500Y-127212787D02*
G01*
X105624500Y-127385245D01*
X105624500Y-127385247D01*
X105624499Y-127385247D01*
X105648117Y-127503974D01*
X105650500Y-127528166D01*
X105650500Y-127971832D01*
X105648117Y-127996023D01*
X105624500Y-128114751D01*
X105624500Y-138086233D01*
X105658143Y-138255366D01*
X105658146Y-138255378D01*
X105724138Y-138414698D01*
X105724145Y-138414711D01*
X105819954Y-138558098D01*
X105819957Y-138558102D01*
X117204397Y-149942542D01*
X117204401Y-149942545D01*
X117347788Y-150038354D01*
X117347801Y-150038361D01*
X117507121Y-150104353D01*
X117507126Y-150104355D01*
X117676266Y-150137999D01*
X117676269Y-150138000D01*
X117676271Y-150138000D01*
X117848729Y-150138000D01*
X125399545Y-150138000D01*
X125446997Y-150147439D01*
X125633160Y-150224549D01*
X125633165Y-150224551D01*
X125633169Y-150224551D01*
X125633170Y-150224552D01*
X125826456Y-150263000D01*
X125826459Y-150263000D01*
X126023543Y-150263000D01*
X126153582Y-150237132D01*
X126216835Y-150224551D01*
X126398914Y-150149132D01*
X126562782Y-150039639D01*
X126702139Y-149900282D01*
X126811632Y-149736414D01*
X126887051Y-149554335D01*
X126925500Y-149361041D01*
X126925500Y-149163959D01*
X126925500Y-149163956D01*
X126887052Y-148970670D01*
X126887051Y-148970669D01*
X126887051Y-148970665D01*
X126887049Y-148970660D01*
X126811635Y-148788592D01*
X126811628Y-148788579D01*
X126702139Y-148624718D01*
X126702136Y-148624714D01*
X126562785Y-148485363D01*
X126562781Y-148485360D01*
X126398920Y-148375871D01*
X126398907Y-148375864D01*
X126216839Y-148300450D01*
X126216829Y-148300447D01*
X126023543Y-148262000D01*
X126023541Y-148262000D01*
X125826459Y-148262000D01*
X125826457Y-148262000D01*
X125633170Y-148300447D01*
X125633160Y-148300450D01*
X125446997Y-148377561D01*
X125399545Y-148387000D01*
X118176506Y-148387000D01*
X118109467Y-148367315D01*
X118088825Y-148350681D01*
X113421797Y-143683653D01*
X140487000Y-143683653D01*
X140487000Y-143841346D01*
X140517761Y-143995989D01*
X140517764Y-143996001D01*
X140578102Y-144141672D01*
X140578109Y-144141685D01*
X140665710Y-144272788D01*
X140665713Y-144272792D01*
X140777207Y-144384286D01*
X140777211Y-144384289D01*
X140908314Y-144471890D01*
X140908327Y-144471897D01*
X141007560Y-144513000D01*
X141054003Y-144532237D01*
X141208653Y-144562999D01*
X141208656Y-144563000D01*
X141208658Y-144563000D01*
X141366344Y-144563000D01*
X141366345Y-144562999D01*
X141442652Y-144547820D01*
X141520988Y-144532239D01*
X141520989Y-144532238D01*
X141520997Y-144532237D01*
X141544655Y-144522437D01*
X141592104Y-144513000D01*
X141811420Y-144513000D01*
X141908962Y-144493596D01*
X141956413Y-144484158D01*
X142092995Y-144427584D01*
X142157791Y-144384289D01*
X142157794Y-144384286D01*
X142157796Y-144384286D01*
X142187047Y-144364740D01*
X142215916Y-144345452D01*
X145614819Y-140946547D01*
X145676142Y-140913063D01*
X145745834Y-140918047D01*
X145790181Y-140946548D01*
X146450681Y-141607048D01*
X146484166Y-141668371D01*
X146487000Y-141694729D01*
X146487000Y-141841346D01*
X146517761Y-141995989D01*
X146517764Y-141996001D01*
X146578102Y-142141672D01*
X146578109Y-142141685D01*
X146665710Y-142272788D01*
X146665713Y-142272792D01*
X146777207Y-142384286D01*
X146777211Y-142384289D01*
X146908314Y-142471890D01*
X146908327Y-142471897D01*
X147053998Y-142532235D01*
X147054003Y-142532237D01*
X147208653Y-142562999D01*
X147208656Y-142563000D01*
X147208658Y-142563000D01*
X147366344Y-142563000D01*
X147366345Y-142562999D01*
X147520997Y-142532237D01*
X147666679Y-142471894D01*
X147797789Y-142384289D01*
X147909289Y-142272789D01*
X147996894Y-142141679D01*
X148057237Y-141995997D01*
X148088000Y-141841342D01*
X148088000Y-141683658D01*
X148088000Y-141683655D01*
X148087999Y-141683653D01*
X148057239Y-141529011D01*
X148057238Y-141529008D01*
X148057237Y-141529003D01*
X148047437Y-141505344D01*
X148038000Y-141457896D01*
X148038000Y-141308579D01*
X148009159Y-141163592D01*
X148009158Y-141163591D01*
X148009158Y-141163587D01*
X148009156Y-141163582D01*
X147952587Y-141027011D01*
X147952580Y-141026998D01*
X147870452Y-140904085D01*
X147825234Y-140858867D01*
X147765916Y-140799549D01*
X146364319Y-139397951D01*
X146330834Y-139336628D01*
X146328000Y-139310270D01*
X146328000Y-133067104D01*
X146337439Y-133019651D01*
X146347237Y-132995997D01*
X146378000Y-132841342D01*
X146378000Y-132683658D01*
X146378000Y-132683655D01*
X146377999Y-132683653D01*
X146347238Y-132529010D01*
X146347237Y-132529003D01*
X146347235Y-132528998D01*
X146286897Y-132383327D01*
X146286890Y-132383314D01*
X146199289Y-132252211D01*
X146199286Y-132252207D01*
X146087792Y-132140713D01*
X146087788Y-132140710D01*
X145956685Y-132053109D01*
X145956672Y-132053102D01*
X145811001Y-131992764D01*
X145810989Y-131992761D01*
X145656345Y-131962000D01*
X145656342Y-131962000D01*
X145498658Y-131962000D01*
X145498655Y-131962000D01*
X145344010Y-131992761D01*
X145343998Y-131992764D01*
X145198327Y-132053102D01*
X145198314Y-132053109D01*
X145067211Y-132140710D01*
X145067207Y-132140713D01*
X144955713Y-132252207D01*
X144955710Y-132252211D01*
X144868109Y-132383314D01*
X144868102Y-132383327D01*
X144807764Y-132528998D01*
X144807761Y-132529010D01*
X144777000Y-132683653D01*
X144777000Y-132841346D01*
X144807761Y-132995989D01*
X144807763Y-132995997D01*
X144817561Y-133019651D01*
X144827000Y-133067104D01*
X144827000Y-139560269D01*
X144807315Y-139627308D01*
X144790681Y-139647950D01*
X141505199Y-142933431D01*
X141443876Y-142966916D01*
X141393327Y-142967367D01*
X141366346Y-142962000D01*
X141366342Y-142962000D01*
X141208658Y-142962000D01*
X141208655Y-142962000D01*
X141054010Y-142992761D01*
X141053998Y-142992764D01*
X140908327Y-143053102D01*
X140908314Y-143053109D01*
X140777211Y-143140710D01*
X140777207Y-143140713D01*
X140665713Y-143252207D01*
X140665710Y-143252211D01*
X140578109Y-143383314D01*
X140578102Y-143383327D01*
X140517764Y-143528998D01*
X140517761Y-143529010D01*
X140487000Y-143683653D01*
X113421797Y-143683653D01*
X107411819Y-137673675D01*
X107378334Y-137612352D01*
X107375500Y-137585994D01*
X107375500Y-128404134D01*
X107377883Y-128379942D01*
X107401500Y-128261215D01*
X107401500Y-127238786D01*
X107401499Y-127238783D01*
X107377883Y-127120055D01*
X107375500Y-127095864D01*
X107375500Y-126750000D01*
X173500000Y-126750000D01*
X184250000Y-137500000D01*
X184250000Y-154499500D01*
X102803052Y-154499500D01*
X102796967Y-154499351D01*
X102433664Y-154481502D01*
X102421555Y-154480309D01*
X102064782Y-154427388D01*
X102052846Y-154425014D01*
X101702964Y-154337373D01*
X101691323Y-154333841D01*
X101351734Y-154212334D01*
X101340495Y-154207679D01*
X101014429Y-154053462D01*
X101003702Y-154047727D01*
X100694340Y-153862303D01*
X100684222Y-153855543D01*
X100394511Y-153640678D01*
X100385105Y-153632958D01*
X100342479Y-153594324D01*
X100117853Y-153390735D01*
X100109264Y-153382146D01*
X99867041Y-153114894D01*
X99859321Y-153105488D01*
X99644456Y-152815777D01*
X99637696Y-152805659D01*
X99477760Y-152538822D01*
X99452267Y-152496290D01*
X99446543Y-152485582D01*
X99292317Y-152159497D01*
X99287669Y-152148275D01*
X99166154Y-151808663D01*
X99162629Y-151797046D01*
X99074982Y-151447140D01*
X99072613Y-151435230D01*
X99019689Y-151078440D01*
X99018497Y-151066334D01*
X99000649Y-150703031D01*
X99000500Y-150696947D01*
X99000500Y-126750000D01*
X105624500Y-126750000D01*
X105624500Y-127212787D01*
G37*
%TD.AperFunction*%
%TD*%
M02*
