M48
; DRILL file {KiCad 9.0.7} date 2026-03-03T17:12:36+0100
; FORMAT={-:-/ absolute / metric / decimal}
; #@! TF.CreationDate,2026-03-03T17:12:36+01:00
; #@! TF.GenerationSoftware,Kicad,Pcbnew,9.0.7
; #@! TF.FileFunction,Plated,1,4,PTH
FMAT,2
METRIC
; #@! TA.AperFunction,Plated,PTH,ViaDrill
T1C0.300
; #@! TA.AperFunction,Plated,PTH,ComponentDrill
T2C0.300
; #@! TA.AperFunction,Plated,PTH,ViaDrill
T3C0.400
; #@! TA.AperFunction,Plated,PTH,ViaDrill
T4C0.500
; #@! TA.AperFunction,Plated,PTH,ComponentDrill
T5C0.600
; #@! TA.AperFunction,Plated,PTH,ComponentDrill
T6C0.800
; #@! TA.AperFunction,Plated,PTH,ComponentDrill
T7C1.000
; #@! TA.AperFunction,Plated,PTH,ComponentDrill
T8C4.300
%
G90
G05
T1
X105.75Y-102.0
X111.25Y-107.25
X111.25Y-108.25
X118.287Y-137.512
X118.787Y-143.762
X119.75Y-137.5
X120.25Y-143.75
X121.287Y-137.512
X121.787Y-143.762
X122.75Y-137.5
X122.75Y-139.75
X122.75Y-141.0
X122.75Y-142.0
X123.25Y-143.75
X124.25Y-137.5
X124.75Y-143.75
X125.75Y-137.5
X126.25Y-143.75
X127.25Y-137.5
X127.25Y-141.75
X128.787Y-137.512
X129.037Y-142.512
X130.25Y-137.5
X130.537Y-147.512
X130.75Y-142.5
X131.75Y-137.5
X132.0Y-147.5
X132.25Y-142.5
X133.25Y-137.5
X133.5Y-120.75
X133.537Y-147.512
X133.75Y-142.5
X134.787Y-137.512
X135.0Y-147.5
X135.75Y-142.5
X136.25Y-137.5
X136.5Y-70.0
X136.5Y-147.5
X137.75Y-137.5
X137.75Y-151.0
X138.0Y-147.5
X139.0Y-151.0
X139.25Y-137.5
X139.5Y-107.75
X140.25Y-147.5
X140.75Y-62.25
X140.75Y-63.25
X140.787Y-146.262
X141.0Y-87.75
X141.25Y-74.25
X141.287Y-143.762
X141.5Y-63.75
X142.287Y-146.012
X142.5Y-63.75
X142.5Y-148.762
X143.25Y-138.512
X143.75Y-68.25
X143.787Y-133.762
X143.787Y-137.262
X143.787Y-139.762
X144.037Y-150.0
X144.5Y-138.512
X144.75Y-93.75
X145.0Y-77.75
X145.25Y-142.012
X145.577Y-132.762
X145.75Y-115.422
X145.8Y-70.75
X146.0Y-142.012
X146.5Y-64.75
X146.75Y-138.512
X146.787Y-146.262
X146.787Y-147.762
X147.1Y-70.75
X147.287Y-141.762
X147.5Y-83.75
X147.537Y-133.762
X147.537Y-137.262
X147.537Y-139.762
X148.0Y-138.512
X148.537Y-146.512
X149.537Y-143.762
X150.0Y-116.0
X150.037Y-146.262
X150.25Y-63.75
X151.25Y-63.75
X151.25Y-102.25
X151.75Y-87.75
X151.787Y-141.262
X152.0Y-63.25
X152.25Y-59.25
X152.5Y-83.25
X152.5Y-92.75
X153.25Y-141.25
X153.5Y-108.5
X154.75Y-78.0
X154.75Y-141.25
X155.0Y-118.25
X155.5Y-137.262
X156.25Y-141.25
X156.5Y-57.25
X156.5Y-59.25
X156.75Y-86.0
X157.0Y-69.75
X157.0Y-137.262
X157.037Y-131.262
X157.75Y-141.25
X157.75Y-142.75
X157.75Y-144.25
X157.762Y-145.713
X158.5Y-137.262
X158.787Y-131.512
X159.25Y-146.75
X159.75Y-74.75
X159.75Y-86.0
X159.963Y-137.25
X160.75Y-146.75
X161.405Y-114.75
X161.5Y-103.5
X161.75Y-78.75
X162.0Y-83.75
X162.0Y-84.75
X162.25Y-146.75
X162.75Y-87.25
X163.0Y-76.5
X163.0Y-85.0
X163.713Y-146.737
X164.787Y-137.262
X165.0Y-81.25
X165.0Y-94.25
X165.25Y-146.0
X165.5Y-142.262
X165.5Y-144.0
X166.287Y-137.262
X166.75Y-80.0
X166.75Y-81.25
X166.75Y-82.5
X166.75Y-83.75
X167.037Y-142.262
X167.5Y-79.0
X167.787Y-137.262
X168.0Y-90.25
X168.287Y-142.262
X169.0Y-87.0
X169.25Y-137.25
X169.537Y-142.262
X169.75Y-115.75
X171.25Y-80.5
X171.5Y-116.0
X171.5Y-137.25
X171.5Y-143.25
X171.5Y-144.75
X171.512Y-138.713
X171.512Y-140.213
X171.512Y-141.713
X173.5Y-72.25
X173.75Y-66.0
X174.0Y-74.25
X174.75Y-62.5
X176.25Y-116.5
X176.5Y-74.0
X180.5Y-120.75
X180.64Y-90.64
X180.75Y-60.0
X181.25Y-70.75
X181.25Y-86.75
X182.75Y-66.0
X183.5Y-60.5
X183.5Y-87.5
X185.4Y-125.8
X186.55Y-87.682
X186.75Y-93.0
X187.0Y-75.75
X187.682Y-86.55
X187.75Y-95.75
X188.25Y-93.0
X191.25Y-63.0
X191.75Y-92.5
X193.0Y-65.25
X193.0Y-66.25
X193.0Y-67.25
X193.0Y-70.5
X194.0Y-71.5
X195.5Y-65.5
X196.75Y-65.25
T2
X165.405Y-115.21
X165.405Y-116.5
X166.375Y-115.21
X166.375Y-116.5
X189.95Y-82.3
X189.95Y-83.4
X190.5Y-81.75
X190.5Y-82.85
X190.5Y-83.95
X191.05Y-82.3
X191.05Y-83.4
X191.6Y-81.75
X191.6Y-82.85
X191.6Y-83.95
X192.15Y-82.3
X192.15Y-83.4
T3
X100.5Y-127.75
X103.0Y-127.75
X105.5Y-127.75
X107.75Y-127.75
X110.25Y-127.75
X111.5Y-125.75
X111.75Y-124.0
X112.75Y-127.75
X113.25Y-125.75
X115.0Y-127.75
X117.25Y-127.75
X119.75Y-127.75
X122.25Y-127.75
X124.75Y-127.75
X127.0Y-127.75
X129.5Y-127.75
X131.75Y-127.75
X134.25Y-127.75
X136.75Y-127.75
X139.0Y-127.75
X140.5Y-65.1
X141.5Y-127.75
X141.5Y-135.5
X143.75Y-127.75
X146.25Y-127.75
X148.75Y-127.75
X151.25Y-127.75
X151.75Y-65.5
X153.5Y-127.75
X156.0Y-127.75
X158.5Y-127.75
X161.0Y-127.75
X163.25Y-127.75
X165.75Y-127.75
X168.25Y-127.75
X170.75Y-127.75
X173.0Y-127.75
X174.5Y-129.25
X176.0Y-130.75
X177.5Y-132.25
X179.0Y-133.75
X180.5Y-135.25
X182.0Y-136.75
X183.25Y-138.25
X183.25Y-140.5
X183.25Y-143.0
X183.25Y-145.5
X183.25Y-148.0
X183.25Y-150.25
X183.25Y-152.75
X188.25Y-120.0
X188.45Y-104.3
X190.95Y-104.3
X193.0Y-120.0
X193.2Y-104.3
T4
X100.5Y-78.75
X100.75Y-98.5
X100.75Y-115.0
X106.25Y-97.75
X106.25Y-100.25
X106.5Y-109.75
X107.0Y-114.25
X107.5Y-107.75
X109.0Y-116.5
X110.75Y-100.5
X113.25Y-113.75
X114.25Y-61.75
X116.25Y-100.75
X116.25Y-102.5
X116.25Y-104.25
X118.5Y-125.0
X119.5Y-109.75
X119.5Y-112.5
X119.75Y-67.75
X119.75Y-73.0
X120.5Y-100.75
X120.5Y-102.5
X120.5Y-104.25
X121.0Y-125.0
X121.5Y-115.75
X122.75Y-86.0
X122.75Y-90.25
X123.5Y-125.0
X124.5Y-86.0
X124.5Y-90.25
X125.75Y-67.75
X125.75Y-72.75
X125.925Y-149.262
X126.0Y-100.75
X126.0Y-102.5
X126.0Y-104.25
X126.25Y-116.0
X128.75Y-67.75
X128.75Y-72.75
X135.5Y-95.25
X158.5Y-69.0
X166.75Y-67.0
X166.75Y-85.75
X170.75Y-76.5
X175.8Y-79.6
T6
X174.5Y-90.0
X174.5Y-92.0
X174.5Y-94.0
X174.5Y-96.0
X174.5Y-98.0
X177.8Y-58.5
X177.8Y-60.5
X177.8Y-62.5
X177.8Y-64.5
X177.8Y-66.5
T7
X148.88Y-101.5
X148.88Y-104.04
X148.88Y-111.66
X153.96Y-101.5
X153.96Y-104.04
X153.96Y-111.66
T8
X105.5Y-62.0
X105.5Y-148.0
X166.5Y-62.0
X191.5Y-148.0
T5
X142.13Y-58.075G85X142.13Y-57.275
G05
X142.13Y-62.405G85X142.13Y-61.305
G05
X150.77Y-58.075G85X150.77Y-57.275
G05
X150.77Y-62.405G85X150.77Y-61.305
G05
M30
