%TF.GenerationSoftware,KiCad,Pcbnew,9.0.7*%
%TF.CreationDate,2026-03-03T17:12:30+01:00*%
%TF.ProjectId,Tesla_sextant_BT,5465736c-615f-4736-9578-74616e745f42,2.3*%
%TF.SameCoordinates,Original*%
%TF.FileFunction,Paste,Top*%
%TF.FilePolarity,Positive*%
%FSLAX46Y46*%
G04 Gerber Fmt 4.6, Leading zero omitted, Abs format (unit mm)*
G04 Created by KiCad (PCBNEW 9.0.7) date 2026-03-03 17:12:30*
%MOMM*%
%LPD*%
G01*
G04 APERTURE LIST*
G04 Aperture macros list*
%AMRoundRect*
0 Rectangle with rounded corners*
0 $1 Rounding radius*
0 $2 $3 $4 $5 $6 $7 $8 $9 X,Y pos of 4 corners*
0 Add a 4 corners polygon primitive as box body*
4,1,4,$2,$3,$4,$5,$6,$7,$8,$9,$2,$3,0*
0 Add four circle primitives for the rounded corners*
1,1,$1+$1,$2,$3*
1,1,$1+$1,$4,$5*
1,1,$1+$1,$6,$7*
1,1,$1+$1,$8,$9*
0 Add four rect primitives between the rounded corners*
20,1,$1+$1,$2,$3,$4,$5,0*
20,1,$1+$1,$4,$5,$6,$7,0*
20,1,$1+$1,$6,$7,$8,$9,0*
20,1,$1+$1,$8,$9,$2,$3,0*%
%AMFreePoly0*
4,1,27,-2.500000,2.000000,-1.500000,3.000000,1.750000,3.000000,1.901663,2.984505,2.066964,2.929731,2.215177,2.838312,2.338312,2.715177,2.429731,2.566964,2.484505,2.401663,2.500000,2.250000,2.500000,-2.250000,2.484505,-2.401663,2.429731,-2.566964,2.338312,-2.715177,2.215177,-2.838312,2.066964,-2.929731,1.901663,-2.984505,1.750000,-3.000000,-1.750000,-3.000000,-1.901663,-2.984505,
-2.066964,-2.929731,-2.215177,-2.838312,-2.338312,-2.715177,-2.429731,-2.566964,-2.484505,-2.401663,-2.500000,-2.250000,-2.500000,2.000000,-2.500000,2.000000,$1*%
G04 Aperture macros list end*
%ADD10RoundRect,0.250000X0.450000X-0.262500X0.450000X0.262500X-0.450000X0.262500X-0.450000X-0.262500X0*%
%ADD11RoundRect,0.250000X-0.262500X-0.450000X0.262500X-0.450000X0.262500X0.450000X-0.262500X0.450000X0*%
%ADD12RoundRect,0.218750X-0.256250X0.218750X-0.256250X-0.218750X0.256250X-0.218750X0.256250X0.218750X0*%
%ADD13RoundRect,0.250000X0.475000X-0.250000X0.475000X0.250000X-0.475000X0.250000X-0.475000X-0.250000X0*%
%ADD14RoundRect,0.250000X-0.450000X0.262500X-0.450000X-0.262500X0.450000X-0.262500X0.450000X0.262500X0*%
%ADD15R,0.700000X0.700000*%
%ADD16R,0.900000X1.500000*%
%ADD17RoundRect,0.225000X0.225000X0.250000X-0.225000X0.250000X-0.225000X-0.250000X0.225000X-0.250000X0*%
%ADD18RoundRect,0.250000X-0.475000X0.250000X-0.475000X-0.250000X0.475000X-0.250000X0.475000X0.250000X0*%
%ADD19RoundRect,0.250000X0.250000X0.475000X-0.250000X0.475000X-0.250000X-0.475000X0.250000X-0.475000X0*%
%ADD20RoundRect,0.150000X0.150000X-0.587500X0.150000X0.587500X-0.150000X0.587500X-0.150000X-0.587500X0*%
%ADD21RoundRect,0.150000X0.150000X0.425000X-0.150000X0.425000X-0.150000X-0.425000X0.150000X-0.425000X0*%
%ADD22RoundRect,0.075000X0.075000X0.500000X-0.075000X0.500000X-0.075000X-0.500000X0.075000X-0.500000X0*%
%ADD23O,1.000000X2.100000*%
%ADD24O,1.000000X1.800000*%
%ADD25FreePoly0,90.000000*%
%ADD26RoundRect,0.750000X2.250000X-1.750000X2.250000X1.750000X-2.250000X1.750000X-2.250000X-1.750000X0*%
%ADD27RoundRect,0.157500X-0.157500X-0.222500X0.157500X-0.222500X0.157500X0.222500X-0.157500X0.222500X0*%
%ADD28RoundRect,0.125000X-0.600000X-0.125000X0.600000X-0.125000X0.600000X0.125000X-0.600000X0.125000X0*%
%ADD29RoundRect,0.218750X-0.218750X-0.256250X0.218750X-0.256250X0.218750X0.256250X-0.218750X0.256250X0*%
%ADD30RoundRect,0.250000X-0.250000X-0.475000X0.250000X-0.475000X0.250000X0.475000X-0.250000X0.475000X0*%
%ADD31RoundRect,0.250000X-0.900000X1.000000X-0.900000X-1.000000X0.900000X-1.000000X0.900000X1.000000X0*%
%ADD32RoundRect,0.250000X0.262500X0.450000X-0.262500X0.450000X-0.262500X-0.450000X0.262500X-0.450000X0*%
%ADD33RoundRect,0.225000X-0.250000X0.225000X-0.250000X-0.225000X0.250000X-0.225000X0.250000X0.225000X0*%
%ADD34RoundRect,0.250000X0.362500X1.425000X-0.362500X1.425000X-0.362500X-1.425000X0.362500X-1.425000X0*%
%ADD35R,2.900000X5.400000*%
%ADD36RoundRect,0.225000X-0.225000X-0.250000X0.225000X-0.250000X0.225000X0.250000X-0.225000X0.250000X0*%
%ADD37RoundRect,0.250000X0.650000X-1.000000X0.650000X1.000000X-0.650000X1.000000X-0.650000X-1.000000X0*%
%ADD38RoundRect,0.150000X-0.150000X0.512500X-0.150000X-0.512500X0.150000X-0.512500X0.150000X0.512500X0*%
%ADD39RoundRect,0.250000X0.900000X-1.000000X0.900000X1.000000X-0.900000X1.000000X-0.900000X-1.000000X0*%
%ADD40RoundRect,0.250000X1.000000X0.650000X-1.000000X0.650000X-1.000000X-0.650000X1.000000X-0.650000X0*%
%ADD41RoundRect,0.200000X-0.300000X0.600000X-0.300000X-0.600000X0.300000X-0.600000X0.300000X0.600000X0*%
%ADD42RoundRect,0.150000X-0.350000X0.650000X-0.350000X-0.650000X0.350000X-0.650000X0.350000X0.650000X0*%
%ADD43RoundRect,0.250000X1.425000X-0.362500X1.425000X0.362500X-1.425000X0.362500X-1.425000X-0.362500X0*%
%ADD44RoundRect,0.250000X-0.875000X-0.650000X0.875000X-0.650000X0.875000X0.650000X-0.875000X0.650000X0*%
%ADD45R,0.700000X1.925000*%
%ADD46R,1.925000X0.700000*%
%ADD47FreePoly0,270.000000*%
%ADD48RoundRect,0.750000X-2.250000X1.750000X-2.250000X-1.750000X2.250000X-1.750000X2.250000X1.750000X0*%
%ADD49FreePoly0,180.000000*%
%ADD50RoundRect,0.750000X1.750000X2.250000X-1.750000X2.250000X-1.750000X-2.250000X1.750000X-2.250000X0*%
%ADD51RoundRect,0.150000X-0.512500X-0.150000X0.512500X-0.150000X0.512500X0.150000X-0.512500X0.150000X0*%
%ADD52RoundRect,0.100000X-0.637500X-0.100000X0.637500X-0.100000X0.637500X0.100000X-0.637500X0.100000X0*%
%ADD53RoundRect,0.375000X-0.625000X-0.375000X0.625000X-0.375000X0.625000X0.375000X-0.625000X0.375000X0*%
%ADD54RoundRect,0.500000X-0.500000X-1.400000X0.500000X-1.400000X0.500000X1.400000X-0.500000X1.400000X0*%
%ADD55RoundRect,0.200000X-0.600000X-0.300000X0.600000X-0.300000X0.600000X0.300000X-0.600000X0.300000X0*%
%ADD56RoundRect,0.150000X-0.650000X-0.350000X0.650000X-0.350000X0.650000X0.350000X-0.650000X0.350000X0*%
G04 APERTURE END LIST*
D10*
%TO.C,R15*%
X143130000Y-117672500D03*
X143130000Y-115847500D03*
%TD*%
D11*
%TO.C,R33*%
X145575000Y-149512500D03*
X147400000Y-149512500D03*
%TD*%
D12*
%TO.C,L5*%
X130500000Y-139750000D03*
X130500000Y-141325000D03*
%TD*%
D13*
%TO.C,C41*%
X178500000Y-105700000D03*
X178500000Y-103800000D03*
%TD*%
D14*
%TO.C,R3*%
X181250000Y-79137500D03*
X181250000Y-80962500D03*
%TD*%
D15*
%TO.C,U1*%
X192150000Y-81750000D03*
X191050000Y-81750000D03*
X189950000Y-81750000D03*
X192150000Y-82850000D03*
X191050000Y-82850000D03*
X189950000Y-82850000D03*
X192150000Y-83950000D03*
X191050000Y-83950000D03*
X189950000Y-83950000D03*
D16*
X197250000Y-73140000D03*
X195750000Y-73140000D03*
X194250000Y-73140000D03*
X192750000Y-73140000D03*
X191250000Y-73140000D03*
X189750000Y-73140000D03*
X188250000Y-73140000D03*
X186750000Y-73140000D03*
X185250000Y-73140000D03*
X185250000Y-90640000D03*
X186750000Y-90640000D03*
X188250000Y-90640000D03*
X189750000Y-90640000D03*
X191250000Y-90640000D03*
X192750000Y-90640000D03*
X194250000Y-90640000D03*
X195750000Y-90640000D03*
X197250000Y-90640000D03*
%TD*%
D17*
%TO.C,C32*%
X163837500Y-142512500D03*
X162287500Y-142512500D03*
%TD*%
D11*
%TO.C,R11*%
X149387500Y-85000000D03*
X151212500Y-85000000D03*
%TD*%
D18*
%TO.C,C5*%
X164750000Y-85500000D03*
X164750000Y-87400000D03*
%TD*%
D19*
%TO.C,C38*%
X158737500Y-133512500D03*
X156837500Y-133512500D03*
%TD*%
D20*
%TO.C,Q1*%
X143180000Y-113860000D03*
X145080000Y-113860000D03*
X144130000Y-111985000D03*
%TD*%
D13*
%TO.C,C29*%
X153537500Y-146360000D03*
X153537500Y-144460000D03*
%TD*%
D21*
%TO.C,J6*%
X149650000Y-62430000D03*
X148850000Y-62430000D03*
D22*
X147700000Y-62430000D03*
X146700000Y-62430000D03*
X146200000Y-62430000D03*
X145200000Y-62430000D03*
D21*
X144050000Y-62430000D03*
X143250000Y-62430000D03*
X143250000Y-62430000D03*
X144050000Y-62430000D03*
D22*
X144700000Y-62430000D03*
X145700000Y-62430000D03*
X147200000Y-62430000D03*
X148200000Y-62430000D03*
D21*
X148850000Y-62430000D03*
X149650000Y-62430000D03*
D23*
X150770000Y-61855000D03*
D24*
X150770000Y-57675000D03*
D23*
X142130000Y-61855000D03*
D24*
X142130000Y-57675000D03*
%TD*%
D25*
%TO.C,J4*%
X190750000Y-115750000D03*
D26*
X190750000Y-109250000D03*
%TD*%
D17*
%TO.C,C36*%
X142050000Y-151250000D03*
X140500000Y-151250000D03*
%TD*%
D14*
%TO.C,R23*%
X150750000Y-67787500D03*
X150750000Y-69612500D03*
%TD*%
D27*
%TO.C,U4*%
X165500000Y-115385000D03*
X165500000Y-116325000D03*
X166280000Y-115385000D03*
X166280000Y-116325000D03*
D28*
X163740000Y-114880000D03*
X163740000Y-115530000D03*
X163740000Y-116180000D03*
X163740000Y-116830000D03*
X168040000Y-116830000D03*
X168040000Y-116180000D03*
X168040000Y-115530000D03*
X168040000Y-114880000D03*
%TD*%
D29*
%TO.C,L8*%
X142000000Y-153000000D03*
X143575000Y-153000000D03*
%TD*%
D30*
%TO.C,C21*%
X108112500Y-98700000D03*
X110012500Y-98700000D03*
%TD*%
D18*
%TO.C,C30*%
X145537500Y-129812500D03*
X145537500Y-131712500D03*
%TD*%
D30*
%TO.C,C22*%
X104550000Y-106000000D03*
X106450000Y-106000000D03*
%TD*%
D17*
%TO.C,C42*%
X143562500Y-147262500D03*
X142012500Y-147262500D03*
%TD*%
D25*
%TO.C,J9*%
X114500000Y-144250000D03*
D26*
X114500000Y-137750000D03*
%TD*%
D31*
%TO.C,D3*%
X144880000Y-104160000D03*
X144880000Y-108460000D03*
%TD*%
D32*
%TO.C,R29*%
X139662500Y-149250000D03*
X137837500Y-149250000D03*
%TD*%
D30*
%TO.C,C15*%
X157455000Y-111750000D03*
X159355000Y-111750000D03*
%TD*%
D33*
%TO.C,C33*%
X138812500Y-141237500D03*
X138812500Y-142787500D03*
%TD*%
D32*
%TO.C,R31*%
X151750000Y-131210000D03*
X149925000Y-131210000D03*
%TD*%
%TO.C,R8*%
X159162500Y-81400000D03*
X157337500Y-81400000D03*
%TD*%
D30*
%TO.C,C28*%
X137427500Y-145762500D03*
X139327500Y-145762500D03*
%TD*%
D34*
%TO.C,R24*%
X115712500Y-90500000D03*
X109787500Y-90500000D03*
%TD*%
D35*
%TO.C,L2*%
X113412500Y-102950000D03*
X123312500Y-102950000D03*
%TD*%
D36*
%TO.C,C35*%
X132200000Y-139750000D03*
X133750000Y-139750000D03*
%TD*%
D30*
%TO.C,C8*%
X164800000Y-75000000D03*
X166700000Y-75000000D03*
%TD*%
D29*
%TO.C,L4*%
X162250000Y-144500000D03*
X163825000Y-144500000D03*
%TD*%
D11*
%TO.C,R27*%
X155575000Y-139762500D03*
X157400000Y-139762500D03*
%TD*%
D32*
%TO.C,R9*%
X151112500Y-81500000D03*
X149287500Y-81500000D03*
%TD*%
D37*
%TO.C,D7*%
X154250000Y-62500000D03*
X154250000Y-58500000D03*
%TD*%
D35*
%TO.C,L1*%
X117200000Y-79750000D03*
X107300000Y-79750000D03*
%TD*%
D33*
%TO.C,C40*%
X145537500Y-146212500D03*
X145537500Y-147762500D03*
%TD*%
D11*
%TO.C,R6*%
X172287500Y-64250000D03*
X174112500Y-64250000D03*
%TD*%
D18*
%TO.C,C7*%
X154750000Y-84050000D03*
X154750000Y-85950000D03*
%TD*%
D13*
%TO.C,C2*%
X196750000Y-68700000D03*
X196750000Y-66800000D03*
%TD*%
D38*
%TO.C,U5*%
X147400000Y-66225000D03*
X146450000Y-66225000D03*
X145500000Y-66225000D03*
X145500000Y-68500000D03*
X146450000Y-68500000D03*
X147400000Y-68500000D03*
%TD*%
D32*
%TO.C,R10*%
X159212500Y-84000000D03*
X157387500Y-84000000D03*
%TD*%
D19*
%TO.C,C11*%
X159250000Y-79000000D03*
X157350000Y-79000000D03*
%TD*%
D18*
%TO.C,C12*%
X160979911Y-116300000D03*
X160979911Y-118200000D03*
%TD*%
D14*
%TO.C,R30*%
X153577500Y-133547500D03*
X153577500Y-135372500D03*
%TD*%
D11*
%TO.C,R7*%
X172287500Y-60750000D03*
X174112500Y-60750000D03*
%TD*%
D18*
%TO.C,C13*%
X158811484Y-116300000D03*
X158811484Y-118200000D03*
%TD*%
D39*
%TO.C,D4*%
X133000000Y-79900000D03*
X133000000Y-75600000D03*
%TD*%
D18*
%TO.C,C1*%
X191500000Y-64550000D03*
X191500000Y-66450000D03*
%TD*%
D13*
%TO.C,C10*%
X173500000Y-79700000D03*
X173500000Y-77800000D03*
%TD*%
%TO.C,C20*%
X119750000Y-90450000D03*
X119750000Y-88550000D03*
%TD*%
D10*
%TO.C,R25*%
X119400000Y-120462500D03*
X119400000Y-118637500D03*
%TD*%
D11*
%TO.C,R2*%
X188925000Y-95750000D03*
X190750000Y-95750000D03*
%TD*%
D40*
%TO.C,D5*%
X131750000Y-70250000D03*
X127750000Y-70250000D03*
%TD*%
D39*
%TO.C,D6*%
X124000000Y-79650000D03*
X124000000Y-75350000D03*
%TD*%
D37*
%TO.C,D2*%
X183250000Y-114000000D03*
X183250000Y-110000000D03*
%TD*%
D33*
%TO.C,C39*%
X145500000Y-151500000D03*
X145500000Y-153050000D03*
%TD*%
D41*
%TO.C,L6*%
X169550000Y-144012500D03*
D42*
X168300000Y-144012500D03*
X167050000Y-144012500D03*
X167050000Y-140262500D03*
X169550000Y-140262500D03*
%TD*%
D13*
%TO.C,C19*%
X115750000Y-71450000D03*
X115750000Y-69550000D03*
%TD*%
D43*
%TO.C,R21*%
X130500000Y-88962500D03*
X130500000Y-83037500D03*
%TD*%
D44*
%TO.C,Y1*%
X130825000Y-152662500D03*
X135675000Y-152662500D03*
X135675000Y-149262500D03*
X130825000Y-149262500D03*
%TD*%
D13*
%TO.C,C25*%
X106900000Y-117950000D03*
X106900000Y-116050000D03*
%TD*%
D14*
%TO.C,R1*%
X189250000Y-64587500D03*
X189250000Y-66412500D03*
%TD*%
D19*
%TO.C,C24*%
X110262500Y-106000000D03*
X108362500Y-106000000D03*
%TD*%
D18*
%TO.C,C4*%
X175750000Y-75900000D03*
X175750000Y-77800000D03*
%TD*%
D12*
%TO.C,L3*%
X159250000Y-142962500D03*
X159250000Y-144537500D03*
%TD*%
D10*
%TO.C,R13*%
X175000000Y-105662500D03*
X175000000Y-103837500D03*
%TD*%
D14*
%TO.C,R4*%
X191250000Y-69337500D03*
X191250000Y-71162500D03*
%TD*%
D11*
%TO.C,R16*%
X161742500Y-111750000D03*
X163567500Y-111750000D03*
%TD*%
D45*
%TO.C,U8*%
X145577500Y-135657500D03*
X144307500Y-135657500D03*
X143037500Y-135657500D03*
D46*
X141525000Y-137170000D03*
X141525000Y-138440000D03*
X141525000Y-139710000D03*
X141525000Y-140980000D03*
X141525000Y-142250000D03*
D45*
X143037500Y-143762500D03*
X144307500Y-143762500D03*
X145577500Y-143762500D03*
X146847500Y-143762500D03*
X148117500Y-143762500D03*
D46*
X149630000Y-142250000D03*
X149630000Y-140980000D03*
X149630000Y-139710000D03*
X149630000Y-138440000D03*
X149630000Y-137170000D03*
D45*
X148117500Y-135657500D03*
X146847500Y-135657500D03*
%TD*%
D47*
%TO.C,J8*%
X176787500Y-144262500D03*
D48*
X176787500Y-150762500D03*
%TD*%
D10*
%TO.C,R22*%
X138500000Y-65862500D03*
X138500000Y-64037500D03*
%TD*%
%TO.C,R28*%
X153577500Y-139672500D03*
X153577500Y-137847500D03*
%TD*%
D18*
%TO.C,C16*%
X163655000Y-118550000D03*
X163655000Y-120450000D03*
%TD*%
%TO.C,C37*%
X128175000Y-147362500D03*
X128175000Y-149262500D03*
%TD*%
D36*
%TO.C,C34*%
X127225000Y-139750000D03*
X128775000Y-139750000D03*
%TD*%
D49*
%TO.C,J7*%
X129750000Y-61750000D03*
D50*
X124000000Y-61750000D03*
X118250000Y-61750000D03*
%TD*%
D25*
%TO.C,J2*%
X190750000Y-130750000D03*
D26*
X190750000Y-124250000D03*
%TD*%
D10*
%TO.C,R5*%
X181250000Y-84862500D03*
X181250000Y-83037500D03*
%TD*%
D51*
%TO.C,D1*%
X166475000Y-92800000D03*
X166475000Y-93750000D03*
X166475000Y-94700000D03*
X168750000Y-94700000D03*
X168750000Y-93750000D03*
X168750000Y-92800000D03*
%TD*%
%TO.C,U6*%
X106975000Y-102000000D03*
X106975000Y-102950000D03*
X106975000Y-103900000D03*
X109250000Y-103900000D03*
X109250000Y-102950000D03*
X109250000Y-102000000D03*
%TD*%
D13*
%TO.C,C26*%
X123650000Y-117950000D03*
X123650000Y-116050000D03*
%TD*%
%TO.C,C18*%
X127250000Y-88950000D03*
X127250000Y-87050000D03*
%TD*%
D33*
%TO.C,C31*%
X159287500Y-139762500D03*
X159287500Y-141312500D03*
%TD*%
D10*
%TO.C,R26*%
X115900000Y-116162500D03*
X115900000Y-114337500D03*
%TD*%
D19*
%TO.C,C23*%
X110250000Y-109750000D03*
X108350000Y-109750000D03*
%TD*%
D13*
%TO.C,C6*%
X154750000Y-81500000D03*
X154750000Y-79600000D03*
%TD*%
%TO.C,C9*%
X144750000Y-101450000D03*
X144750000Y-99550000D03*
%TD*%
D52*
%TO.C,U2*%
X163387500Y-78075000D03*
X163387500Y-78725000D03*
X163387500Y-79375000D03*
X163387500Y-80025000D03*
X163387500Y-80675000D03*
X163387500Y-81325000D03*
X163387500Y-81975000D03*
X163387500Y-82625000D03*
X163387500Y-83275000D03*
X163387500Y-83925000D03*
X169112500Y-83925000D03*
X169112500Y-83275000D03*
X169112500Y-82625000D03*
X169112500Y-81975000D03*
X169112500Y-81325000D03*
X169112500Y-80675000D03*
X169112500Y-80025000D03*
X169112500Y-79375000D03*
X169112500Y-78725000D03*
X169112500Y-78075000D03*
%TD*%
D19*
%TO.C,C3*%
X161750000Y-76500000D03*
X159850000Y-76500000D03*
%TD*%
D32*
%TO.C,R32*%
X155400000Y-131210000D03*
X153575000Y-131210000D03*
%TD*%
D53*
%TO.C,U7*%
X109750000Y-119950000D03*
X109750000Y-122250000D03*
X109750000Y-124550000D03*
D54*
X116050000Y-122250000D03*
%TD*%
D55*
%TO.C,L7*%
X124638207Y-139736793D03*
D56*
X124638207Y-140986793D03*
X124638207Y-142236793D03*
X120888207Y-142236793D03*
X120888207Y-139736793D03*
%TD*%
D10*
%TO.C,R12*%
X178500000Y-110325000D03*
X178500000Y-108500000D03*
%TD*%
D13*
%TO.C,C27*%
X119400000Y-116200000D03*
X119400000Y-114300000D03*
%TD*%
D40*
%TO.C,D8*%
X123500000Y-70500000D03*
X119500000Y-70500000D03*
%TD*%
D10*
%TO.C,R34*%
X162287500Y-140225000D03*
X162287500Y-138400000D03*
%TD*%
M02*
